M48
; DRILL file {KiCad 5.1.5+dfsg1-2build2} date So 24 Okt 2021 20:04:10 CEST
; FORMAT={-:-/ absolute / metric / decimal}
; #@! TF.CreationDate,2021-10-24T20:04:10+02:00
; #@! TF.GenerationSoftware,Kicad,Pcbnew,5.1.5+dfsg1-2build2
FMAT,2
METRIC
T1C0.300
T2C0.400
T3C0.950
T4C1.000
%
G90
G05
T1
X101.1Y-148.4
X112.55Y-122.05
X112.55Y-132.05
X112.55Y-142.05
X112.55Y-152.05
X112.55Y-162.05
X112.6Y-172.0
X122.55Y-112.05
X122.55Y-122.05
X122.55Y-132.05
X122.55Y-141.55
X122.55Y-152.05
X122.55Y-162.05
X122.55Y-172.05
X122.55Y-182.05
X131.1Y-123.4
X132.55Y-112.05
X132.55Y-132.05
X132.55Y-141.55
X132.55Y-152.05
X132.55Y-162.05
X132.55Y-172.05
X132.55Y-182.05
X141.1Y-133.4
X142.5Y-141.5
X142.5Y-182.0
X142.55Y-112.05
X142.55Y-122.05
X142.55Y-152.05
X142.55Y-162.05
X142.55Y-172.05
X147.55Y-102.05
X147.55Y-192.05
X152.5Y-141.5
X152.5Y-172.0
X152.5Y-182.0
X152.55Y-112.05
X152.55Y-122.05
X152.55Y-132.05
X152.55Y-152.05
X152.55Y-162.05
X162.55Y-112.05
X162.55Y-122.05
X162.55Y-132.05
X162.55Y-142.05
X162.55Y-152.05
X162.55Y-162.05
X162.55Y-172.05
X162.55Y-182.05
X171.1Y-133.4
X172.5Y-112.0
X172.55Y-122.05
X172.55Y-152.05
X172.55Y-162.05
X172.55Y-171.55
X172.55Y-182.05
X181.1Y-123.4
X182.55Y-132.05
X182.55Y-142.05
X182.55Y-152.05
X182.55Y-162.05
X182.55Y-172.05
X192.55Y-146.55
T2
X146.5Y-140.5
X172.55Y-142.05
T3
X90.5Y-151.0
X90.5Y-153.5
X90.5Y-156.0
X90.5Y-139.0
X90.5Y-141.5
X90.5Y-144.0
T4
X103.0Y-162.88
X103.0Y-165.42
X103.0Y-167.96
X103.0Y-170.5
T0
M30
