G04 #@! TF.GenerationSoftware,KiCad,Pcbnew,(5.1.10)-1*
G04 #@! TF.CreationDate,2021-10-24T10:48:28+02:00*
G04 #@! TF.ProjectId,amepl_led,616d6570-6c5f-46c6-9564-2e6b69636164,rev?*
G04 #@! TF.SameCoordinates,Original*
G04 #@! TF.FileFunction,Copper,L2,Bot*
G04 #@! TF.FilePolarity,Positive*
%FSLAX46Y46*%
G04 Gerber Fmt 4.6, Leading zero omitted, Abs format (unit mm)*
G04 Created by KiCad (PCBNEW (5.1.10)-1) date 2021-10-24 10:48:28*
%MOMM*%
%LPD*%
G01*
G04 APERTURE LIST*
G04 #@! TA.AperFunction,ComponentPad*
%ADD10O,1.950000X1.700000*%
G04 #@! TD*
G04 #@! TA.AperFunction,ViaPad*
%ADD11C,0.600000*%
G04 #@! TD*
G04 #@! TA.AperFunction,ViaPad*
%ADD12C,0.800000*%
G04 #@! TD*
G04 #@! TA.AperFunction,Conductor*
%ADD13C,0.350000*%
G04 #@! TD*
G04 #@! TA.AperFunction,Conductor*
%ADD14C,0.254000*%
G04 #@! TD*
G04 #@! TA.AperFunction,Conductor*
%ADD15C,0.100000*%
G04 #@! TD*
G04 APERTURE END LIST*
D10*
X90500000Y-145000000D03*
X90500000Y-147500000D03*
G04 #@! TA.AperFunction,ComponentPad*
G36*
G01*
X91225000Y-150850000D02*
X89775000Y-150850000D01*
G75*
G02*
X89525000Y-150600000I0J250000D01*
G01*
X89525000Y-149400000D01*
G75*
G02*
X89775000Y-149150000I250000J0D01*
G01*
X91225000Y-149150000D01*
G75*
G02*
X91475000Y-149400000I0J-250000D01*
G01*
X91475000Y-150600000D01*
G75*
G02*
X91225000Y-150850000I-250000J0D01*
G01*
G37*
G04 #@! TD.AperFunction*
D11*
X142500000Y-141500000D03*
X152500000Y-141500000D03*
X152550000Y-152050000D03*
X142550000Y-152050000D03*
X132550000Y-152050000D03*
X122550000Y-152050000D03*
X101100000Y-148400000D03*
X112550000Y-142050000D03*
X112550000Y-132050000D03*
X112550000Y-122050000D03*
X122550000Y-112050000D03*
X122550000Y-122050000D03*
X132550000Y-112050000D03*
X142550000Y-112050000D03*
X152550000Y-112050000D03*
X162550000Y-112050000D03*
X172500000Y-112000000D03*
X172550000Y-122050000D03*
X162550000Y-122050000D03*
X152550000Y-122050000D03*
X142550000Y-122050000D03*
X131100000Y-123400000D03*
X122550000Y-132050000D03*
X132550000Y-132050000D03*
X141100000Y-133400000D03*
X152550000Y-132050000D03*
X162550000Y-132050000D03*
X171100000Y-133400000D03*
X182550000Y-132050000D03*
X181100000Y-123400000D03*
X192550000Y-146550000D03*
X182550000Y-142050000D03*
X162550000Y-142050000D03*
X162550000Y-152050000D03*
X172550000Y-152050000D03*
X182550000Y-152050000D03*
X182550000Y-162050000D03*
X172550000Y-162050000D03*
X162550000Y-162050000D03*
X152550000Y-162050000D03*
X142550000Y-162050000D03*
X132550000Y-162050000D03*
X122550000Y-162050000D03*
X112550000Y-162050000D03*
X112600000Y-172000000D03*
X122550000Y-172050000D03*
X132550000Y-172050000D03*
X142550000Y-172050000D03*
X122550000Y-182050000D03*
X132550000Y-182050000D03*
X142500000Y-182000000D03*
X152500000Y-182000000D03*
X162550000Y-182050000D03*
X172550000Y-182050000D03*
X147550000Y-192050000D03*
X182550000Y-172050000D03*
X172550000Y-171550000D03*
X162550000Y-172050000D03*
X152500000Y-172000000D03*
X132550000Y-141550000D03*
X122550000Y-141550000D03*
D12*
X172550000Y-142050000D03*
D11*
X112550000Y-152050000D03*
X147550000Y-102050000D03*
X145000000Y-143500000D03*
D13*
X90500000Y-147500000D02*
X139500000Y-147500000D01*
X143500000Y-143500000D02*
X145000000Y-143500000D01*
X139500000Y-147500000D02*
X143500000Y-143500000D01*
D14*
X154154724Y-80784584D02*
X157468470Y-81063380D01*
X160765037Y-81500733D01*
X164036845Y-82095637D01*
X167276368Y-82846722D01*
X170476154Y-83752263D01*
X173628845Y-84810175D01*
X176727188Y-86018026D01*
X179764058Y-87373037D01*
X182732470Y-88872093D01*
X185625596Y-90511745D01*
X188436782Y-92288221D01*
X191159562Y-94197437D01*
X193787674Y-96235000D01*
X196315073Y-98396225D01*
X198735945Y-100676139D01*
X201044724Y-103069501D01*
X203236098Y-105570803D01*
X205305027Y-108174295D01*
X207246753Y-110873987D01*
X209056809Y-113663670D01*
X210731033Y-116536928D01*
X212265574Y-119487152D01*
X213656902Y-122507556D01*
X214901817Y-125591194D01*
X215997455Y-128730973D01*
X216941298Y-131919671D01*
X217731173Y-135149955D01*
X218365264Y-138414394D01*
X218842113Y-141705481D01*
X219160623Y-145015645D01*
X219320062Y-148337274D01*
X219320062Y-151662726D01*
X219160623Y-154984355D01*
X218842113Y-158294519D01*
X218365264Y-161585606D01*
X217731173Y-164850045D01*
X216941298Y-168080329D01*
X215997455Y-171269027D01*
X214901817Y-174408806D01*
X213656902Y-177492444D01*
X212265574Y-180512848D01*
X210731033Y-183463072D01*
X209056809Y-186336330D01*
X207246753Y-189126013D01*
X205305027Y-191825705D01*
X203236098Y-194429197D01*
X201044724Y-196930499D01*
X198735945Y-199323861D01*
X196315073Y-201603775D01*
X193787674Y-203765000D01*
X191159562Y-205802563D01*
X188436782Y-207711779D01*
X185625596Y-209488255D01*
X182732470Y-211127907D01*
X179764058Y-212626963D01*
X176727188Y-213981974D01*
X173628845Y-215189825D01*
X170476154Y-216247737D01*
X167276368Y-217153278D01*
X164036845Y-217904363D01*
X160765037Y-218499267D01*
X157468470Y-218936620D01*
X154154724Y-219215416D01*
X150831423Y-219335015D01*
X147506209Y-219295141D01*
X144186731Y-219095886D01*
X140880624Y-218737709D01*
X137595492Y-218221432D01*
X134338890Y-217548244D01*
X131118310Y-216719693D01*
X127941158Y-215737684D01*
X124814742Y-214604476D01*
X121746253Y-213322677D01*
X118742748Y-211895233D01*
X115811136Y-210325428D01*
X112958160Y-208616872D01*
X111266376Y-207490122D01*
X141342116Y-207490122D01*
X141342116Y-208728570D01*
X141518365Y-209954413D01*
X141867276Y-211142695D01*
X142381746Y-212269227D01*
X143051302Y-213311076D01*
X143862313Y-214247033D01*
X144798270Y-215058044D01*
X145840119Y-215727600D01*
X146966651Y-216242070D01*
X148154933Y-216590981D01*
X149380776Y-216767230D01*
X150619224Y-216767230D01*
X151845067Y-216590981D01*
X153033349Y-216242070D01*
X154159881Y-215727600D01*
X155201730Y-215058044D01*
X156137687Y-214247033D01*
X156948698Y-213311076D01*
X157618254Y-212269227D01*
X158132724Y-211142695D01*
X158481635Y-209954413D01*
X158657884Y-208728570D01*
X158657884Y-207490122D01*
X158481635Y-206264279D01*
X158132724Y-205075997D01*
X157618254Y-203949465D01*
X156948698Y-202907616D01*
X156137687Y-201971659D01*
X155201730Y-201160648D01*
X154159881Y-200491092D01*
X153033349Y-199976622D01*
X151845067Y-199627711D01*
X150619224Y-199451462D01*
X149380776Y-199451462D01*
X148154933Y-199627711D01*
X146966651Y-199976622D01*
X145840119Y-200491092D01*
X144798270Y-201160648D01*
X143862313Y-201971659D01*
X143051302Y-202907616D01*
X142381746Y-203949465D01*
X141867276Y-205075997D01*
X141518365Y-206264279D01*
X141342116Y-207490122D01*
X111266376Y-207490122D01*
X110190381Y-206773496D01*
X107514165Y-204799539D01*
X104935669Y-202699541D01*
X102460821Y-200478333D01*
X100095316Y-198141023D01*
X97844592Y-195692987D01*
X95713828Y-193139855D01*
X93707924Y-190487501D01*
X91831493Y-187742024D01*
X90088852Y-184909739D01*
X88484008Y-181997161D01*
X87020653Y-179010988D01*
X85702152Y-175958089D01*
X84531539Y-172845486D01*
X83511505Y-169680337D01*
X82644397Y-166469923D01*
X81932209Y-163221627D01*
X81376579Y-159942921D01*
X80978785Y-156641347D01*
X80739742Y-153324497D01*
X80680389Y-150850000D01*
X88886928Y-150850000D01*
X88899188Y-150974482D01*
X88935498Y-151094180D01*
X88994463Y-151204494D01*
X89073815Y-151301185D01*
X89170506Y-151380537D01*
X89280820Y-151439502D01*
X89400518Y-151475812D01*
X89525000Y-151488072D01*
X90214250Y-151485000D01*
X90373000Y-151326250D01*
X90373000Y-150127000D01*
X90627000Y-150127000D01*
X90627000Y-151326250D01*
X90785750Y-151485000D01*
X91475000Y-151488072D01*
X91599482Y-151475812D01*
X91719180Y-151439502D01*
X91829494Y-151380537D01*
X91926185Y-151301185D01*
X92005537Y-151204494D01*
X92064502Y-151094180D01*
X92100812Y-150974482D01*
X92113072Y-150850000D01*
X92110000Y-150285750D01*
X91951250Y-150127000D01*
X90627000Y-150127000D01*
X90373000Y-150127000D01*
X89048750Y-150127000D01*
X88890000Y-150285750D01*
X88886928Y-150850000D01*
X80680389Y-150850000D01*
X80660000Y-150000000D01*
X80739742Y-146675503D01*
X80860494Y-145000000D01*
X88882815Y-145000000D01*
X88911487Y-145291111D01*
X88996401Y-145571034D01*
X89134294Y-145829014D01*
X89319866Y-146055134D01*
X89545986Y-146240706D01*
X89563374Y-146250000D01*
X89545986Y-146259294D01*
X89319866Y-146444866D01*
X89134294Y-146670986D01*
X88996401Y-146928966D01*
X88911487Y-147208889D01*
X88882815Y-147500000D01*
X88911487Y-147791111D01*
X88996401Y-148071034D01*
X89134294Y-148329014D01*
X89315608Y-148549945D01*
X89280820Y-148560498D01*
X89170506Y-148619463D01*
X89073815Y-148698815D01*
X88994463Y-148795506D01*
X88935498Y-148905820D01*
X88899188Y-149025518D01*
X88886928Y-149150000D01*
X88890000Y-149714250D01*
X89048750Y-149873000D01*
X90373000Y-149873000D01*
X90373000Y-149853000D01*
X90627000Y-149853000D01*
X90627000Y-149873000D01*
X91951250Y-149873000D01*
X92110000Y-149714250D01*
X92111815Y-149380776D01*
X200342116Y-149380776D01*
X200342116Y-150619224D01*
X200518365Y-151845067D01*
X200867276Y-153033349D01*
X201381746Y-154159881D01*
X202051302Y-155201730D01*
X202862313Y-156137687D01*
X203798270Y-156948698D01*
X204840119Y-157618254D01*
X205966651Y-158132724D01*
X207154933Y-158481635D01*
X208380776Y-158657884D01*
X209619224Y-158657884D01*
X210845067Y-158481635D01*
X212033349Y-158132724D01*
X213159881Y-157618254D01*
X214201730Y-156948698D01*
X215137687Y-156137687D01*
X215948698Y-155201730D01*
X216618254Y-154159881D01*
X217132724Y-153033349D01*
X217481635Y-151845067D01*
X217657884Y-150619224D01*
X217657884Y-149380776D01*
X217481635Y-148154933D01*
X217132724Y-146966651D01*
X216618254Y-145840119D01*
X215948698Y-144798270D01*
X215137687Y-143862313D01*
X214201730Y-143051302D01*
X213159881Y-142381746D01*
X212033349Y-141867276D01*
X210845067Y-141518365D01*
X209619224Y-141342116D01*
X208380776Y-141342116D01*
X207154933Y-141518365D01*
X205966651Y-141867276D01*
X204840119Y-142381746D01*
X203798270Y-143051302D01*
X202862313Y-143862313D01*
X202051302Y-144798270D01*
X201381746Y-145840119D01*
X200867276Y-146966651D01*
X200518365Y-148154933D01*
X200342116Y-149380776D01*
X92111815Y-149380776D01*
X92113072Y-149150000D01*
X92100812Y-149025518D01*
X92064502Y-148905820D01*
X92005537Y-148795506D01*
X91926185Y-148698815D01*
X91829494Y-148619463D01*
X91719180Y-148560498D01*
X91684392Y-148549945D01*
X91865706Y-148329014D01*
X91875869Y-148310000D01*
X139460212Y-148310000D01*
X139500000Y-148313919D01*
X139539788Y-148310000D01*
X139539791Y-148310000D01*
X139658788Y-148298280D01*
X139811473Y-148251963D01*
X139952189Y-148176749D01*
X140075528Y-148075528D01*
X140100900Y-148044612D01*
X143835513Y-144310000D01*
X144529295Y-144310000D01*
X144557111Y-144328586D01*
X144727271Y-144399068D01*
X144907911Y-144435000D01*
X145092089Y-144435000D01*
X145272729Y-144399068D01*
X145442889Y-144328586D01*
X145596028Y-144226262D01*
X145726262Y-144096028D01*
X145828586Y-143942889D01*
X145899068Y-143772729D01*
X145935000Y-143592089D01*
X145935000Y-143407911D01*
X145899068Y-143227271D01*
X145828586Y-143057111D01*
X145726262Y-142903972D01*
X145596028Y-142773738D01*
X145442889Y-142671414D01*
X145272729Y-142600932D01*
X145092089Y-142565000D01*
X144907911Y-142565000D01*
X144727271Y-142600932D01*
X144557111Y-142671414D01*
X144529295Y-142690000D01*
X143539787Y-142690000D01*
X143499999Y-142686081D01*
X143460211Y-142690000D01*
X143460209Y-142690000D01*
X143341212Y-142701720D01*
X143188527Y-142748037D01*
X143140444Y-142773738D01*
X143047810Y-142823251D01*
X142992210Y-142868881D01*
X142924472Y-142924472D01*
X142899105Y-142955382D01*
X139164488Y-146690000D01*
X91875869Y-146690000D01*
X91865706Y-146670986D01*
X91680134Y-146444866D01*
X91454014Y-146259294D01*
X91436626Y-146250000D01*
X91454014Y-146240706D01*
X91680134Y-146055134D01*
X91865706Y-145829014D01*
X92003599Y-145571034D01*
X92088513Y-145291111D01*
X92117185Y-145000000D01*
X92088513Y-144708889D01*
X92003599Y-144428966D01*
X91865706Y-144170986D01*
X91680134Y-143944866D01*
X91454014Y-143759294D01*
X91196034Y-143621401D01*
X90916111Y-143536487D01*
X90697950Y-143515000D01*
X90302050Y-143515000D01*
X90083889Y-143536487D01*
X89803966Y-143621401D01*
X89545986Y-143759294D01*
X89319866Y-143944866D01*
X89134294Y-144170986D01*
X88996401Y-144428966D01*
X88911487Y-144708889D01*
X88882815Y-145000000D01*
X80860494Y-145000000D01*
X80978785Y-143358653D01*
X81376579Y-140057079D01*
X81932209Y-136778373D01*
X82644397Y-133530077D01*
X83511505Y-130319663D01*
X84531539Y-127154514D01*
X85702152Y-124041911D01*
X87020653Y-120989012D01*
X88484008Y-118002839D01*
X90088852Y-115090261D01*
X91831493Y-112257976D01*
X93707924Y-109512499D01*
X95713828Y-106860145D01*
X97844592Y-104307013D01*
X100095316Y-101858977D01*
X102460821Y-99521667D01*
X104935669Y-97300459D01*
X107514165Y-95200461D01*
X110190381Y-93226504D01*
X112958160Y-91383128D01*
X115811136Y-89674572D01*
X116359800Y-89380776D01*
X141342116Y-89380776D01*
X141342116Y-90619224D01*
X141518365Y-91845067D01*
X141867276Y-93033349D01*
X142381746Y-94159881D01*
X143051302Y-95201730D01*
X143862313Y-96137687D01*
X144798270Y-96948698D01*
X145840119Y-97618254D01*
X146966651Y-98132724D01*
X148154933Y-98481635D01*
X149380776Y-98657884D01*
X150619224Y-98657884D01*
X151845067Y-98481635D01*
X153033349Y-98132724D01*
X154159881Y-97618254D01*
X155201730Y-96948698D01*
X156137687Y-96137687D01*
X156948698Y-95201730D01*
X157618254Y-94159881D01*
X158132724Y-93033349D01*
X158481635Y-91845067D01*
X158657884Y-90619224D01*
X158657884Y-89380776D01*
X158481635Y-88154933D01*
X158132724Y-86966651D01*
X157618254Y-85840119D01*
X156948698Y-84798270D01*
X156137687Y-83862313D01*
X155201730Y-83051302D01*
X154159881Y-82381746D01*
X153033349Y-81867276D01*
X151845067Y-81518365D01*
X150619224Y-81342116D01*
X149380776Y-81342116D01*
X148154933Y-81518365D01*
X146966651Y-81867276D01*
X145840119Y-82381746D01*
X144798270Y-83051302D01*
X143862313Y-83862313D01*
X143051302Y-84798270D01*
X142381746Y-85840119D01*
X141867276Y-86966651D01*
X141518365Y-88154933D01*
X141342116Y-89380776D01*
X116359800Y-89380776D01*
X118742748Y-88104767D01*
X121746253Y-86677323D01*
X124814742Y-85395524D01*
X127941158Y-84262316D01*
X131118310Y-83280307D01*
X134338890Y-82451756D01*
X137595492Y-81778568D01*
X140880624Y-81262291D01*
X144186731Y-80904114D01*
X147506209Y-80704859D01*
X150831423Y-80664985D01*
X154154724Y-80784584D01*
G04 #@! TA.AperFunction,Conductor*
D15*
G36*
X154154724Y-80784584D02*
G01*
X157468470Y-81063380D01*
X160765037Y-81500733D01*
X164036845Y-82095637D01*
X167276368Y-82846722D01*
X170476154Y-83752263D01*
X173628845Y-84810175D01*
X176727188Y-86018026D01*
X179764058Y-87373037D01*
X182732470Y-88872093D01*
X185625596Y-90511745D01*
X188436782Y-92288221D01*
X191159562Y-94197437D01*
X193787674Y-96235000D01*
X196315073Y-98396225D01*
X198735945Y-100676139D01*
X201044724Y-103069501D01*
X203236098Y-105570803D01*
X205305027Y-108174295D01*
X207246753Y-110873987D01*
X209056809Y-113663670D01*
X210731033Y-116536928D01*
X212265574Y-119487152D01*
X213656902Y-122507556D01*
X214901817Y-125591194D01*
X215997455Y-128730973D01*
X216941298Y-131919671D01*
X217731173Y-135149955D01*
X218365264Y-138414394D01*
X218842113Y-141705481D01*
X219160623Y-145015645D01*
X219320062Y-148337274D01*
X219320062Y-151662726D01*
X219160623Y-154984355D01*
X218842113Y-158294519D01*
X218365264Y-161585606D01*
X217731173Y-164850045D01*
X216941298Y-168080329D01*
X215997455Y-171269027D01*
X214901817Y-174408806D01*
X213656902Y-177492444D01*
X212265574Y-180512848D01*
X210731033Y-183463072D01*
X209056809Y-186336330D01*
X207246753Y-189126013D01*
X205305027Y-191825705D01*
X203236098Y-194429197D01*
X201044724Y-196930499D01*
X198735945Y-199323861D01*
X196315073Y-201603775D01*
X193787674Y-203765000D01*
X191159562Y-205802563D01*
X188436782Y-207711779D01*
X185625596Y-209488255D01*
X182732470Y-211127907D01*
X179764058Y-212626963D01*
X176727188Y-213981974D01*
X173628845Y-215189825D01*
X170476154Y-216247737D01*
X167276368Y-217153278D01*
X164036845Y-217904363D01*
X160765037Y-218499267D01*
X157468470Y-218936620D01*
X154154724Y-219215416D01*
X150831423Y-219335015D01*
X147506209Y-219295141D01*
X144186731Y-219095886D01*
X140880624Y-218737709D01*
X137595492Y-218221432D01*
X134338890Y-217548244D01*
X131118310Y-216719693D01*
X127941158Y-215737684D01*
X124814742Y-214604476D01*
X121746253Y-213322677D01*
X118742748Y-211895233D01*
X115811136Y-210325428D01*
X112958160Y-208616872D01*
X111266376Y-207490122D01*
X141342116Y-207490122D01*
X141342116Y-208728570D01*
X141518365Y-209954413D01*
X141867276Y-211142695D01*
X142381746Y-212269227D01*
X143051302Y-213311076D01*
X143862313Y-214247033D01*
X144798270Y-215058044D01*
X145840119Y-215727600D01*
X146966651Y-216242070D01*
X148154933Y-216590981D01*
X149380776Y-216767230D01*
X150619224Y-216767230D01*
X151845067Y-216590981D01*
X153033349Y-216242070D01*
X154159881Y-215727600D01*
X155201730Y-215058044D01*
X156137687Y-214247033D01*
X156948698Y-213311076D01*
X157618254Y-212269227D01*
X158132724Y-211142695D01*
X158481635Y-209954413D01*
X158657884Y-208728570D01*
X158657884Y-207490122D01*
X158481635Y-206264279D01*
X158132724Y-205075997D01*
X157618254Y-203949465D01*
X156948698Y-202907616D01*
X156137687Y-201971659D01*
X155201730Y-201160648D01*
X154159881Y-200491092D01*
X153033349Y-199976622D01*
X151845067Y-199627711D01*
X150619224Y-199451462D01*
X149380776Y-199451462D01*
X148154933Y-199627711D01*
X146966651Y-199976622D01*
X145840119Y-200491092D01*
X144798270Y-201160648D01*
X143862313Y-201971659D01*
X143051302Y-202907616D01*
X142381746Y-203949465D01*
X141867276Y-205075997D01*
X141518365Y-206264279D01*
X141342116Y-207490122D01*
X111266376Y-207490122D01*
X110190381Y-206773496D01*
X107514165Y-204799539D01*
X104935669Y-202699541D01*
X102460821Y-200478333D01*
X100095316Y-198141023D01*
X97844592Y-195692987D01*
X95713828Y-193139855D01*
X93707924Y-190487501D01*
X91831493Y-187742024D01*
X90088852Y-184909739D01*
X88484008Y-181997161D01*
X87020653Y-179010988D01*
X85702152Y-175958089D01*
X84531539Y-172845486D01*
X83511505Y-169680337D01*
X82644397Y-166469923D01*
X81932209Y-163221627D01*
X81376579Y-159942921D01*
X80978785Y-156641347D01*
X80739742Y-153324497D01*
X80680389Y-150850000D01*
X88886928Y-150850000D01*
X88899188Y-150974482D01*
X88935498Y-151094180D01*
X88994463Y-151204494D01*
X89073815Y-151301185D01*
X89170506Y-151380537D01*
X89280820Y-151439502D01*
X89400518Y-151475812D01*
X89525000Y-151488072D01*
X90214250Y-151485000D01*
X90373000Y-151326250D01*
X90373000Y-150127000D01*
X90627000Y-150127000D01*
X90627000Y-151326250D01*
X90785750Y-151485000D01*
X91475000Y-151488072D01*
X91599482Y-151475812D01*
X91719180Y-151439502D01*
X91829494Y-151380537D01*
X91926185Y-151301185D01*
X92005537Y-151204494D01*
X92064502Y-151094180D01*
X92100812Y-150974482D01*
X92113072Y-150850000D01*
X92110000Y-150285750D01*
X91951250Y-150127000D01*
X90627000Y-150127000D01*
X90373000Y-150127000D01*
X89048750Y-150127000D01*
X88890000Y-150285750D01*
X88886928Y-150850000D01*
X80680389Y-150850000D01*
X80660000Y-150000000D01*
X80739742Y-146675503D01*
X80860494Y-145000000D01*
X88882815Y-145000000D01*
X88911487Y-145291111D01*
X88996401Y-145571034D01*
X89134294Y-145829014D01*
X89319866Y-146055134D01*
X89545986Y-146240706D01*
X89563374Y-146250000D01*
X89545986Y-146259294D01*
X89319866Y-146444866D01*
X89134294Y-146670986D01*
X88996401Y-146928966D01*
X88911487Y-147208889D01*
X88882815Y-147500000D01*
X88911487Y-147791111D01*
X88996401Y-148071034D01*
X89134294Y-148329014D01*
X89315608Y-148549945D01*
X89280820Y-148560498D01*
X89170506Y-148619463D01*
X89073815Y-148698815D01*
X88994463Y-148795506D01*
X88935498Y-148905820D01*
X88899188Y-149025518D01*
X88886928Y-149150000D01*
X88890000Y-149714250D01*
X89048750Y-149873000D01*
X90373000Y-149873000D01*
X90373000Y-149853000D01*
X90627000Y-149853000D01*
X90627000Y-149873000D01*
X91951250Y-149873000D01*
X92110000Y-149714250D01*
X92111815Y-149380776D01*
X200342116Y-149380776D01*
X200342116Y-150619224D01*
X200518365Y-151845067D01*
X200867276Y-153033349D01*
X201381746Y-154159881D01*
X202051302Y-155201730D01*
X202862313Y-156137687D01*
X203798270Y-156948698D01*
X204840119Y-157618254D01*
X205966651Y-158132724D01*
X207154933Y-158481635D01*
X208380776Y-158657884D01*
X209619224Y-158657884D01*
X210845067Y-158481635D01*
X212033349Y-158132724D01*
X213159881Y-157618254D01*
X214201730Y-156948698D01*
X215137687Y-156137687D01*
X215948698Y-155201730D01*
X216618254Y-154159881D01*
X217132724Y-153033349D01*
X217481635Y-151845067D01*
X217657884Y-150619224D01*
X217657884Y-149380776D01*
X217481635Y-148154933D01*
X217132724Y-146966651D01*
X216618254Y-145840119D01*
X215948698Y-144798270D01*
X215137687Y-143862313D01*
X214201730Y-143051302D01*
X213159881Y-142381746D01*
X212033349Y-141867276D01*
X210845067Y-141518365D01*
X209619224Y-141342116D01*
X208380776Y-141342116D01*
X207154933Y-141518365D01*
X205966651Y-141867276D01*
X204840119Y-142381746D01*
X203798270Y-143051302D01*
X202862313Y-143862313D01*
X202051302Y-144798270D01*
X201381746Y-145840119D01*
X200867276Y-146966651D01*
X200518365Y-148154933D01*
X200342116Y-149380776D01*
X92111815Y-149380776D01*
X92113072Y-149150000D01*
X92100812Y-149025518D01*
X92064502Y-148905820D01*
X92005537Y-148795506D01*
X91926185Y-148698815D01*
X91829494Y-148619463D01*
X91719180Y-148560498D01*
X91684392Y-148549945D01*
X91865706Y-148329014D01*
X91875869Y-148310000D01*
X139460212Y-148310000D01*
X139500000Y-148313919D01*
X139539788Y-148310000D01*
X139539791Y-148310000D01*
X139658788Y-148298280D01*
X139811473Y-148251963D01*
X139952189Y-148176749D01*
X140075528Y-148075528D01*
X140100900Y-148044612D01*
X143835513Y-144310000D01*
X144529295Y-144310000D01*
X144557111Y-144328586D01*
X144727271Y-144399068D01*
X144907911Y-144435000D01*
X145092089Y-144435000D01*
X145272729Y-144399068D01*
X145442889Y-144328586D01*
X145596028Y-144226262D01*
X145726262Y-144096028D01*
X145828586Y-143942889D01*
X145899068Y-143772729D01*
X145935000Y-143592089D01*
X145935000Y-143407911D01*
X145899068Y-143227271D01*
X145828586Y-143057111D01*
X145726262Y-142903972D01*
X145596028Y-142773738D01*
X145442889Y-142671414D01*
X145272729Y-142600932D01*
X145092089Y-142565000D01*
X144907911Y-142565000D01*
X144727271Y-142600932D01*
X144557111Y-142671414D01*
X144529295Y-142690000D01*
X143539787Y-142690000D01*
X143499999Y-142686081D01*
X143460211Y-142690000D01*
X143460209Y-142690000D01*
X143341212Y-142701720D01*
X143188527Y-142748037D01*
X143140444Y-142773738D01*
X143047810Y-142823251D01*
X142992210Y-142868881D01*
X142924472Y-142924472D01*
X142899105Y-142955382D01*
X139164488Y-146690000D01*
X91875869Y-146690000D01*
X91865706Y-146670986D01*
X91680134Y-146444866D01*
X91454014Y-146259294D01*
X91436626Y-146250000D01*
X91454014Y-146240706D01*
X91680134Y-146055134D01*
X91865706Y-145829014D01*
X92003599Y-145571034D01*
X92088513Y-145291111D01*
X92117185Y-145000000D01*
X92088513Y-144708889D01*
X92003599Y-144428966D01*
X91865706Y-144170986D01*
X91680134Y-143944866D01*
X91454014Y-143759294D01*
X91196034Y-143621401D01*
X90916111Y-143536487D01*
X90697950Y-143515000D01*
X90302050Y-143515000D01*
X90083889Y-143536487D01*
X89803966Y-143621401D01*
X89545986Y-143759294D01*
X89319866Y-143944866D01*
X89134294Y-144170986D01*
X88996401Y-144428966D01*
X88911487Y-144708889D01*
X88882815Y-145000000D01*
X80860494Y-145000000D01*
X80978785Y-143358653D01*
X81376579Y-140057079D01*
X81932209Y-136778373D01*
X82644397Y-133530077D01*
X83511505Y-130319663D01*
X84531539Y-127154514D01*
X85702152Y-124041911D01*
X87020653Y-120989012D01*
X88484008Y-118002839D01*
X90088852Y-115090261D01*
X91831493Y-112257976D01*
X93707924Y-109512499D01*
X95713828Y-106860145D01*
X97844592Y-104307013D01*
X100095316Y-101858977D01*
X102460821Y-99521667D01*
X104935669Y-97300459D01*
X107514165Y-95200461D01*
X110190381Y-93226504D01*
X112958160Y-91383128D01*
X115811136Y-89674572D01*
X116359800Y-89380776D01*
X141342116Y-89380776D01*
X141342116Y-90619224D01*
X141518365Y-91845067D01*
X141867276Y-93033349D01*
X142381746Y-94159881D01*
X143051302Y-95201730D01*
X143862313Y-96137687D01*
X144798270Y-96948698D01*
X145840119Y-97618254D01*
X146966651Y-98132724D01*
X148154933Y-98481635D01*
X149380776Y-98657884D01*
X150619224Y-98657884D01*
X151845067Y-98481635D01*
X153033349Y-98132724D01*
X154159881Y-97618254D01*
X155201730Y-96948698D01*
X156137687Y-96137687D01*
X156948698Y-95201730D01*
X157618254Y-94159881D01*
X158132724Y-93033349D01*
X158481635Y-91845067D01*
X158657884Y-90619224D01*
X158657884Y-89380776D01*
X158481635Y-88154933D01*
X158132724Y-86966651D01*
X157618254Y-85840119D01*
X156948698Y-84798270D01*
X156137687Y-83862313D01*
X155201730Y-83051302D01*
X154159881Y-82381746D01*
X153033349Y-81867276D01*
X151845067Y-81518365D01*
X150619224Y-81342116D01*
X149380776Y-81342116D01*
X148154933Y-81518365D01*
X146966651Y-81867276D01*
X145840119Y-82381746D01*
X144798270Y-83051302D01*
X143862313Y-83862313D01*
X143051302Y-84798270D01*
X142381746Y-85840119D01*
X141867276Y-86966651D01*
X141518365Y-88154933D01*
X141342116Y-89380776D01*
X116359800Y-89380776D01*
X118742748Y-88104767D01*
X121746253Y-86677323D01*
X124814742Y-85395524D01*
X127941158Y-84262316D01*
X131118310Y-83280307D01*
X134338890Y-82451756D01*
X137595492Y-81778568D01*
X140880624Y-81262291D01*
X144186731Y-80904114D01*
X147506209Y-80704859D01*
X150831423Y-80664985D01*
X154154724Y-80784584D01*
G37*
G04 #@! TD.AperFunction*
M02*
