G04 #@! TF.GenerationSoftware,KiCad,Pcbnew,(5.1.10)-1*
G04 #@! TF.CreationDate,2021-10-24T10:48:28+02:00*
G04 #@! TF.ProjectId,amepl_led,616d6570-6c5f-46c6-9564-2e6b69636164,rev?*
G04 #@! TF.SameCoordinates,Original*
G04 #@! TF.FileFunction,Legend,Bot*
G04 #@! TF.FilePolarity,Positive*
%FSLAX46Y46*%
G04 Gerber Fmt 4.6, Leading zero omitted, Abs format (unit mm)*
G04 Created by KiCad (PCBNEW (5.1.10)-1) date 2021-10-24 10:48:28*
%MOMM*%
%LPD*%
G01*
G04 APERTURE LIST*
%ADD10C,0.250000*%
%ADD11C,0.150000*%
%ADD12C,0.120000*%
%ADD13O,2.052000X1.802000*%
G04 APERTURE END LIST*
D10*
X183785714Y-200857142D02*
X183071428Y-202857142D01*
X182357142Y-200857142D01*
X179642857Y-202857142D02*
X181357142Y-202857142D01*
X180500000Y-202857142D02*
X180500000Y-199857142D01*
X180785714Y-200285714D01*
X181071428Y-200571428D01*
X181357142Y-200714285D01*
X178357142Y-202571428D02*
X178214285Y-202714285D01*
X178357142Y-202857142D01*
X178500000Y-202714285D01*
X178357142Y-202571428D01*
X178357142Y-202857142D01*
X176357142Y-199857142D02*
X176071428Y-199857142D01*
X175785714Y-200000000D01*
X175642857Y-200142857D01*
X175500000Y-200428571D01*
X175357142Y-201000000D01*
X175357142Y-201714285D01*
X175500000Y-202285714D01*
X175642857Y-202571428D01*
X175785714Y-202714285D01*
X176071428Y-202857142D01*
X176357142Y-202857142D01*
X176642857Y-202714285D01*
X176785714Y-202571428D01*
X176928571Y-202285714D01*
X177071428Y-201714285D01*
X177071428Y-201000000D01*
X176928571Y-200428571D01*
X176785714Y-200142857D01*
X176642857Y-200000000D01*
X176357142Y-199857142D01*
D11*
X84990476Y-149452380D02*
X85466666Y-149452380D01*
X85514285Y-149928571D01*
X85466666Y-149880952D01*
X85371428Y-149833333D01*
X85133333Y-149833333D01*
X85038095Y-149880952D01*
X84990476Y-149928571D01*
X84942857Y-150023809D01*
X84942857Y-150261904D01*
X84990476Y-150357142D01*
X85038095Y-150404761D01*
X85133333Y-150452380D01*
X85371428Y-150452380D01*
X85466666Y-150404761D01*
X85514285Y-150357142D01*
X84657142Y-149452380D02*
X84323809Y-150452380D01*
X83990476Y-149452380D01*
X85523809Y-147952380D02*
X85523809Y-146952380D01*
X85285714Y-146952380D01*
X85142857Y-147000000D01*
X85047619Y-147095238D01*
X85000000Y-147190476D01*
X84952380Y-147380952D01*
X84952380Y-147523809D01*
X85000000Y-147714285D01*
X85047619Y-147809523D01*
X85142857Y-147904761D01*
X85285714Y-147952380D01*
X85523809Y-147952380D01*
X84523809Y-147952380D02*
X84523809Y-146952380D01*
X84047619Y-147952380D02*
X84047619Y-146952380D01*
X83476190Y-147952380D01*
X83476190Y-146952380D01*
X85261904Y-144500000D02*
X85357142Y-144452380D01*
X85500000Y-144452380D01*
X85642857Y-144500000D01*
X85738095Y-144595238D01*
X85785714Y-144690476D01*
X85833333Y-144880952D01*
X85833333Y-145023809D01*
X85785714Y-145214285D01*
X85738095Y-145309523D01*
X85642857Y-145404761D01*
X85500000Y-145452380D01*
X85404761Y-145452380D01*
X85261904Y-145404761D01*
X85214285Y-145357142D01*
X85214285Y-145023809D01*
X85404761Y-145023809D01*
X84785714Y-145452380D02*
X84785714Y-144452380D01*
X84214285Y-145452380D01*
X84214285Y-144452380D01*
X83738095Y-145452380D02*
X83738095Y-144452380D01*
X83500000Y-144452380D01*
X83357142Y-144500000D01*
X83261904Y-144595238D01*
X83214285Y-144690476D01*
X83166666Y-144880952D01*
X83166666Y-145023809D01*
X83214285Y-145214285D01*
X83261904Y-145309523D01*
X83357142Y-145404761D01*
X83500000Y-145452380D01*
X83738095Y-145452380D01*
X136219047Y-202804761D02*
X136076190Y-202852380D01*
X135838095Y-202852380D01*
X135742857Y-202804761D01*
X135695238Y-202757142D01*
X135647619Y-202661904D01*
X135647619Y-202566666D01*
X135695238Y-202471428D01*
X135742857Y-202423809D01*
X135838095Y-202376190D01*
X136028571Y-202328571D01*
X136123809Y-202280952D01*
X136171428Y-202233333D01*
X136219047Y-202138095D01*
X136219047Y-202042857D01*
X136171428Y-201947619D01*
X136123809Y-201900000D01*
X136028571Y-201852380D01*
X135790476Y-201852380D01*
X135647619Y-201900000D01*
X134790476Y-202804761D02*
X134885714Y-202852380D01*
X135076190Y-202852380D01*
X135171428Y-202804761D01*
X135219047Y-202757142D01*
X135266666Y-202661904D01*
X135266666Y-202376190D01*
X135219047Y-202280952D01*
X135171428Y-202233333D01*
X135076190Y-202185714D01*
X134885714Y-202185714D01*
X134790476Y-202233333D01*
X134361904Y-202852380D02*
X134361904Y-201852380D01*
X133933333Y-202852380D02*
X133933333Y-202328571D01*
X133980952Y-202233333D01*
X134076190Y-202185714D01*
X134219047Y-202185714D01*
X134314285Y-202233333D01*
X134361904Y-202280952D01*
X133457142Y-202185714D02*
X133457142Y-202852380D01*
X133457142Y-202280952D02*
X133409523Y-202233333D01*
X133314285Y-202185714D01*
X133171428Y-202185714D01*
X133076190Y-202233333D01*
X133028571Y-202328571D01*
X133028571Y-202852380D01*
X132552380Y-202852380D02*
X132552380Y-202185714D01*
X132552380Y-201852380D02*
X132600000Y-201900000D01*
X132552380Y-201947619D01*
X132504761Y-201900000D01*
X132552380Y-201852380D01*
X132552380Y-201947619D01*
X132219047Y-202185714D02*
X131838095Y-202185714D01*
X132076190Y-201852380D02*
X132076190Y-202709523D01*
X132028571Y-202804761D01*
X131933333Y-202852380D01*
X131838095Y-202852380D01*
X131647619Y-202185714D02*
X131266666Y-202185714D01*
X131504761Y-201852380D02*
X131504761Y-202709523D01*
X131457142Y-202804761D01*
X131361904Y-202852380D01*
X131266666Y-202852380D01*
X130790476Y-202852380D02*
X130885714Y-202804761D01*
X130933333Y-202709523D01*
X130933333Y-201852380D01*
X130409523Y-202852380D02*
X130409523Y-202185714D01*
X130409523Y-201852380D02*
X130457142Y-201900000D01*
X130409523Y-201947619D01*
X130361904Y-201900000D01*
X130409523Y-201852380D01*
X130409523Y-201947619D01*
X129504761Y-202804761D02*
X129600000Y-202852380D01*
X129790476Y-202852380D01*
X129885714Y-202804761D01*
X129933333Y-202757142D01*
X129980952Y-202661904D01*
X129980952Y-202376190D01*
X129933333Y-202280952D01*
X129885714Y-202233333D01*
X129790476Y-202185714D01*
X129600000Y-202185714D01*
X129504761Y-202233333D01*
X129076190Y-202852380D02*
X129076190Y-201852380D01*
X128647619Y-202852380D02*
X128647619Y-202328571D01*
X128695238Y-202233333D01*
X128790476Y-202185714D01*
X128933333Y-202185714D01*
X129028571Y-202233333D01*
X129076190Y-202280952D01*
X127409523Y-202852380D02*
X127409523Y-202185714D01*
X127409523Y-201852380D02*
X127457142Y-201900000D01*
X127409523Y-201947619D01*
X127361904Y-201900000D01*
X127409523Y-201852380D01*
X127409523Y-201947619D01*
X126980952Y-202804761D02*
X126885714Y-202852380D01*
X126695238Y-202852380D01*
X126600000Y-202804761D01*
X126552380Y-202709523D01*
X126552380Y-202661904D01*
X126600000Y-202566666D01*
X126695238Y-202519047D01*
X126838095Y-202519047D01*
X126933333Y-202471428D01*
X126980952Y-202376190D01*
X126980952Y-202328571D01*
X126933333Y-202233333D01*
X126838095Y-202185714D01*
X126695238Y-202185714D01*
X126600000Y-202233333D01*
X126266666Y-202185714D02*
X125885714Y-202185714D01*
X126123809Y-201852380D02*
X126123809Y-202709523D01*
X126076190Y-202804761D01*
X125980952Y-202852380D01*
X125885714Y-202852380D01*
X124409523Y-202804761D02*
X124504761Y-202852380D01*
X124695238Y-202852380D01*
X124790476Y-202804761D01*
X124838095Y-202709523D01*
X124838095Y-202328571D01*
X124790476Y-202233333D01*
X124695238Y-202185714D01*
X124504761Y-202185714D01*
X124409523Y-202233333D01*
X124361904Y-202328571D01*
X124361904Y-202423809D01*
X124838095Y-202519047D01*
X123933333Y-202852380D02*
X123933333Y-202185714D01*
X123933333Y-201852380D02*
X123980952Y-201900000D01*
X123933333Y-201947619D01*
X123885714Y-201900000D01*
X123933333Y-201852380D01*
X123933333Y-201947619D01*
X123457142Y-202185714D02*
X123457142Y-202852380D01*
X123457142Y-202280952D02*
X123409523Y-202233333D01*
X123314285Y-202185714D01*
X123171428Y-202185714D01*
X123076190Y-202233333D01*
X123028571Y-202328571D01*
X123028571Y-202852380D01*
X121885714Y-201852380D02*
X121647619Y-202852380D01*
X121457142Y-202138095D01*
X121266666Y-202852380D01*
X121028571Y-201852380D01*
X120504761Y-202852380D02*
X120600000Y-202804761D01*
X120647619Y-202757142D01*
X120695238Y-202661904D01*
X120695238Y-202376190D01*
X120647619Y-202280952D01*
X120600000Y-202233333D01*
X120504761Y-202185714D01*
X120361904Y-202185714D01*
X120266666Y-202233333D01*
X120219047Y-202280952D01*
X120171428Y-202376190D01*
X120171428Y-202661904D01*
X120219047Y-202757142D01*
X120266666Y-202804761D01*
X120361904Y-202852380D01*
X120504761Y-202852380D01*
X119742857Y-202852380D02*
X119742857Y-202185714D01*
X119742857Y-202376190D02*
X119695238Y-202280952D01*
X119647619Y-202233333D01*
X119552380Y-202185714D01*
X119457142Y-202185714D01*
X119266666Y-202185714D02*
X118885714Y-202185714D01*
X119123809Y-201852380D02*
X119123809Y-202709523D01*
X119076190Y-202804761D01*
X118980952Y-202852380D01*
X118885714Y-202852380D01*
D10*
X183642857Y-104285714D02*
X183214285Y-104428571D01*
X183071428Y-104571428D01*
X182928571Y-104857142D01*
X182928571Y-105285714D01*
X183071428Y-105571428D01*
X183214285Y-105714285D01*
X183500000Y-105857142D01*
X184642857Y-105857142D01*
X184642857Y-102857142D01*
X183642857Y-102857142D01*
X183357142Y-103000000D01*
X183214285Y-103142857D01*
X183071428Y-103428571D01*
X183071428Y-103714285D01*
X183214285Y-104000000D01*
X183357142Y-104142857D01*
X183642857Y-104285714D01*
X184642857Y-104285714D01*
X179928571Y-105857142D02*
X180928571Y-104428571D01*
X181642857Y-105857142D02*
X181642857Y-102857142D01*
X180500000Y-102857142D01*
X180214285Y-103000000D01*
X180071428Y-103142857D01*
X179928571Y-103428571D01*
X179928571Y-103857142D01*
X180071428Y-104142857D01*
X180214285Y-104285714D01*
X180500000Y-104428571D01*
X181642857Y-104428571D01*
X178642857Y-102857142D02*
X178642857Y-105285714D01*
X178500000Y-105571428D01*
X178357142Y-105714285D01*
X178071428Y-105857142D01*
X177500000Y-105857142D01*
X177214285Y-105714285D01*
X177071428Y-105571428D01*
X176928571Y-105285714D01*
X176928571Y-102857142D01*
X175500000Y-105857142D02*
X175500000Y-102857142D01*
X174785714Y-102857142D01*
X174357142Y-103000000D01*
X174071428Y-103285714D01*
X173928571Y-103571428D01*
X173785714Y-104142857D01*
X173785714Y-104571428D01*
X173928571Y-105142857D01*
X174071428Y-105428571D01*
X174357142Y-105714285D01*
X174785714Y-105857142D01*
X175500000Y-105857142D01*
X172642857Y-105000000D02*
X171214285Y-105000000D01*
X172928571Y-105857142D02*
X171928571Y-102857142D01*
X170928571Y-105857142D01*
X168500000Y-105857142D02*
X169928571Y-105857142D01*
X169928571Y-102857142D01*
X167500000Y-104285714D02*
X166500000Y-104285714D01*
X166071428Y-105857142D02*
X167500000Y-105857142D01*
X167500000Y-102857142D01*
X166071428Y-102857142D01*
X162642857Y-105000000D02*
X161214285Y-105000000D01*
X162928571Y-105857142D02*
X161928571Y-102857142D01*
X160928571Y-105857142D01*
X162500000Y-101857142D02*
X162357142Y-102000000D01*
X162500000Y-102142857D01*
X162642857Y-102000000D01*
X162500000Y-101857142D01*
X162500000Y-102142857D01*
X161357142Y-101857142D02*
X161214285Y-102000000D01*
X161357142Y-102142857D01*
X161500000Y-102000000D01*
X161357142Y-101857142D01*
X161357142Y-102142857D01*
X160071428Y-105000000D02*
X158642857Y-105000000D01*
X160357142Y-105857142D02*
X159357142Y-102857142D01*
X158357142Y-105857142D01*
X159928571Y-101857142D02*
X159785714Y-102000000D01*
X159928571Y-102142857D01*
X160071428Y-102000000D01*
X159928571Y-101857142D01*
X159928571Y-102142857D01*
X158785714Y-101857142D02*
X158642857Y-102000000D01*
X158785714Y-102142857D01*
X158928571Y-102000000D01*
X158785714Y-101857142D01*
X158785714Y-102142857D01*
X155642857Y-105571428D02*
X155785714Y-105714285D01*
X156214285Y-105857142D01*
X156500000Y-105857142D01*
X156928571Y-105714285D01*
X157214285Y-105428571D01*
X157357142Y-105142857D01*
X157500000Y-104571428D01*
X157500000Y-104142857D01*
X157357142Y-103571428D01*
X157214285Y-103285714D01*
X156928571Y-103000000D01*
X156500000Y-102857142D01*
X156214285Y-102857142D01*
X155785714Y-103000000D01*
X155642857Y-103142857D01*
X154357142Y-105857142D02*
X154357142Y-102857142D01*
X154357142Y-104285714D02*
X152642857Y-104285714D01*
X152642857Y-105857142D02*
X152642857Y-102857142D01*
X151214285Y-104285714D02*
X150214285Y-104285714D01*
X149785714Y-105857142D02*
X151214285Y-105857142D01*
X151214285Y-102857142D01*
X149785714Y-102857142D01*
X147071428Y-105857142D02*
X148500000Y-105857142D01*
X148500000Y-102857142D01*
X146214285Y-105000000D02*
X144785714Y-105000000D01*
X146500000Y-105857142D02*
X145500000Y-102857142D01*
X144500000Y-105857142D01*
X143642857Y-105714285D02*
X143214285Y-105857142D01*
X142500000Y-105857142D01*
X142214285Y-105714285D01*
X142071428Y-105571428D01*
X141928571Y-105285714D01*
X141928571Y-105000000D01*
X142071428Y-104714285D01*
X142214285Y-104571428D01*
X142500000Y-104428571D01*
X143071428Y-104285714D01*
X143357142Y-104142857D01*
X143500000Y-104000000D01*
X143642857Y-103714285D01*
X143642857Y-103428571D01*
X143500000Y-103142857D01*
X143357142Y-103000000D01*
X143071428Y-102857142D01*
X142357142Y-102857142D01*
X141928571Y-103000000D01*
X140642857Y-104285714D02*
X139642857Y-104285714D01*
X139214285Y-105857142D02*
X140642857Y-105857142D01*
X140642857Y-102857142D01*
X139214285Y-102857142D01*
X136214285Y-105857142D02*
X137214285Y-104428571D01*
X137928571Y-105857142D02*
X137928571Y-102857142D01*
X136785714Y-102857142D01*
X136500000Y-103000000D01*
X136357142Y-103142857D01*
X136214285Y-103428571D01*
X136214285Y-103857142D01*
X136357142Y-104142857D01*
X136500000Y-104285714D01*
X136785714Y-104428571D01*
X137928571Y-104428571D01*
X132071428Y-102857142D02*
X131500000Y-102857142D01*
X131214285Y-103000000D01*
X130928571Y-103285714D01*
X130785714Y-103857142D01*
X130785714Y-104857142D01*
X130928571Y-105428571D01*
X131214285Y-105714285D01*
X131500000Y-105857142D01*
X132071428Y-105857142D01*
X132357142Y-105714285D01*
X132642857Y-105428571D01*
X132785714Y-104857142D01*
X132785714Y-103857142D01*
X132642857Y-103285714D01*
X132357142Y-103000000D01*
X132071428Y-102857142D01*
X128500000Y-104285714D02*
X129500000Y-104285714D01*
X129500000Y-105857142D02*
X129500000Y-102857142D01*
X128071428Y-102857142D01*
X124642857Y-105857142D02*
X124642857Y-102857142D01*
X123928571Y-102857142D01*
X123500000Y-103000000D01*
X123214285Y-103285714D01*
X123071428Y-103571428D01*
X122928571Y-104142857D01*
X122928571Y-104571428D01*
X123071428Y-105142857D01*
X123214285Y-105428571D01*
X123500000Y-105714285D01*
X123928571Y-105857142D01*
X124642857Y-105857142D01*
X121071428Y-102857142D02*
X120500000Y-102857142D01*
X120214285Y-103000000D01*
X119928571Y-103285714D01*
X119785714Y-103857142D01*
X119785714Y-104857142D01*
X119928571Y-105428571D01*
X120214285Y-105714285D01*
X120500000Y-105857142D01*
X121071428Y-105857142D01*
X121357142Y-105714285D01*
X121642857Y-105428571D01*
X121785714Y-104857142D01*
X121785714Y-103857142D01*
X121642857Y-103285714D01*
X121357142Y-103000000D01*
X121071428Y-102857142D01*
X117928571Y-102857142D02*
X117357142Y-102857142D01*
X117071428Y-103000000D01*
X116785714Y-103285714D01*
X116642857Y-103857142D01*
X116642857Y-104857142D01*
X116785714Y-105428571D01*
X117071428Y-105714285D01*
X117357142Y-105857142D01*
X117928571Y-105857142D01*
X118214285Y-105714285D01*
X118500000Y-105428571D01*
X118642857Y-104857142D01*
X118642857Y-103857142D01*
X118500000Y-103285714D01*
X118214285Y-103000000D01*
X117928571Y-102857142D01*
X115357142Y-105857142D02*
X115357142Y-102857142D01*
X114357142Y-105000000D01*
X113357142Y-102857142D01*
X113357142Y-105857142D01*
D11*
X104619047Y-121254761D02*
X104714285Y-121302380D01*
X104904761Y-121302380D01*
X105000000Y-121254761D01*
X105047619Y-121207142D01*
X105095238Y-121111904D01*
X105095238Y-120826190D01*
X105047619Y-120730952D01*
X105000000Y-120683333D01*
X104904761Y-120635714D01*
X104714285Y-120635714D01*
X104619047Y-120683333D01*
X103761904Y-121302380D02*
X103761904Y-120778571D01*
X103809523Y-120683333D01*
X103904761Y-120635714D01*
X104095238Y-120635714D01*
X104190476Y-120683333D01*
X103761904Y-121254761D02*
X103857142Y-121302380D01*
X104095238Y-121302380D01*
X104190476Y-121254761D01*
X104238095Y-121159523D01*
X104238095Y-121064285D01*
X104190476Y-120969047D01*
X104095238Y-120921428D01*
X103857142Y-120921428D01*
X103761904Y-120873809D01*
X103333333Y-121254761D02*
X103238095Y-121302380D01*
X103047619Y-121302380D01*
X102952380Y-121254761D01*
X102904761Y-121159523D01*
X102904761Y-121111904D01*
X102952380Y-121016666D01*
X103047619Y-120969047D01*
X103190476Y-120969047D01*
X103285714Y-120921428D01*
X103333333Y-120826190D01*
X103333333Y-120778571D01*
X103285714Y-120683333D01*
X103190476Y-120635714D01*
X103047619Y-120635714D01*
X102952380Y-120683333D01*
X102047619Y-121302380D02*
X102047619Y-120778571D01*
X102095238Y-120683333D01*
X102190476Y-120635714D01*
X102380952Y-120635714D01*
X102476190Y-120683333D01*
X102047619Y-121254761D02*
X102142857Y-121302380D01*
X102380952Y-121302380D01*
X102476190Y-121254761D01*
X102523809Y-121159523D01*
X102523809Y-121064285D01*
X102476190Y-120969047D01*
X102380952Y-120921428D01*
X102142857Y-120921428D01*
X102047619Y-120873809D01*
X101571428Y-121302380D02*
X101571428Y-120635714D01*
X101571428Y-120826190D02*
X101523809Y-120730952D01*
X101476190Y-120683333D01*
X101380952Y-120635714D01*
X101285714Y-120635714D01*
X101095238Y-120635714D02*
X100714285Y-120635714D01*
X100952380Y-120302380D02*
X100952380Y-121159523D01*
X100904761Y-121254761D01*
X100809523Y-121302380D01*
X100714285Y-121302380D01*
X99952380Y-121302380D02*
X99952380Y-120778571D01*
X100000000Y-120683333D01*
X100095238Y-120635714D01*
X100285714Y-120635714D01*
X100380952Y-120683333D01*
X99952380Y-121254761D02*
X100047619Y-121302380D01*
X100285714Y-121302380D01*
X100380952Y-121254761D01*
X100428571Y-121159523D01*
X100428571Y-121064285D01*
X100380952Y-120969047D01*
X100285714Y-120921428D01*
X100047619Y-120921428D01*
X99952380Y-120873809D01*
X99476190Y-121302380D02*
X99476190Y-120635714D01*
X99476190Y-120826190D02*
X99428571Y-120730952D01*
X99380952Y-120683333D01*
X99285714Y-120635714D01*
X99190476Y-120635714D01*
X98809523Y-121254761D02*
X98809523Y-121302380D01*
X98857142Y-121397619D01*
X98904761Y-121445238D01*
X97619047Y-121302380D02*
X97619047Y-120302380D01*
X97619047Y-120683333D02*
X97523809Y-120635714D01*
X97333333Y-120635714D01*
X97238095Y-120683333D01*
X97190476Y-120730952D01*
X97142857Y-120826190D01*
X97142857Y-121111904D01*
X97190476Y-121207142D01*
X97238095Y-121254761D01*
X97333333Y-121302380D01*
X97523809Y-121302380D01*
X97619047Y-121254761D01*
X96285714Y-121302380D02*
X96285714Y-120778571D01*
X96333333Y-120683333D01*
X96428571Y-120635714D01*
X96619047Y-120635714D01*
X96714285Y-120683333D01*
X96285714Y-121254761D02*
X96380952Y-121302380D01*
X96619047Y-121302380D01*
X96714285Y-121254761D01*
X96761904Y-121159523D01*
X96761904Y-121064285D01*
X96714285Y-120969047D01*
X96619047Y-120921428D01*
X96380952Y-120921428D01*
X96285714Y-120873809D01*
X95809523Y-120635714D02*
X95809523Y-121302380D01*
X95809523Y-120730952D02*
X95761904Y-120683333D01*
X95666666Y-120635714D01*
X95523809Y-120635714D01*
X95428571Y-120683333D01*
X95380952Y-120778571D01*
X95380952Y-121302380D01*
X94952380Y-121254761D02*
X94857142Y-121302380D01*
X94666666Y-121302380D01*
X94571428Y-121254761D01*
X94523809Y-121159523D01*
X94523809Y-121111904D01*
X94571428Y-121016666D01*
X94666666Y-120969047D01*
X94809523Y-120969047D01*
X94904761Y-120921428D01*
X94952380Y-120826190D01*
X94952380Y-120778571D01*
X94904761Y-120683333D01*
X94809523Y-120635714D01*
X94666666Y-120635714D01*
X94571428Y-120683333D01*
X94095238Y-121302380D02*
X94095238Y-120302380D01*
X93666666Y-121302380D02*
X93666666Y-120778571D01*
X93714285Y-120683333D01*
X93809523Y-120635714D01*
X93952380Y-120635714D01*
X94047619Y-120683333D01*
X94095238Y-120730952D01*
X92809523Y-121254761D02*
X92904761Y-121302380D01*
X93095238Y-121302380D01*
X93190476Y-121254761D01*
X93238095Y-121159523D01*
X93238095Y-120778571D01*
X93190476Y-120683333D01*
X93095238Y-120635714D01*
X92904761Y-120635714D01*
X92809523Y-120683333D01*
X92761904Y-120778571D01*
X92761904Y-120873809D01*
X93238095Y-120969047D01*
X91952380Y-121254761D02*
X92047619Y-121302380D01*
X92238095Y-121302380D01*
X92333333Y-121254761D01*
X92380952Y-121159523D01*
X92380952Y-120778571D01*
X92333333Y-120683333D01*
X92238095Y-120635714D01*
X92047619Y-120635714D01*
X91952380Y-120683333D01*
X91904761Y-120778571D01*
X91904761Y-120873809D01*
X92380952Y-120969047D01*
X102595238Y-122047619D02*
X102547619Y-122000000D01*
X102452380Y-121952380D01*
X102214285Y-121952380D01*
X102119047Y-122000000D01*
X102071428Y-122047619D01*
X102023809Y-122142857D01*
X102023809Y-122238095D01*
X102071428Y-122380952D01*
X102642857Y-122952380D01*
X102023809Y-122952380D01*
X101690476Y-121952380D02*
X101071428Y-121952380D01*
X101404761Y-122333333D01*
X101261904Y-122333333D01*
X101166666Y-122380952D01*
X101119047Y-122428571D01*
X101071428Y-122523809D01*
X101071428Y-122761904D01*
X101119047Y-122857142D01*
X101166666Y-122904761D01*
X101261904Y-122952380D01*
X101547619Y-122952380D01*
X101642857Y-122904761D01*
X101690476Y-122857142D01*
X100642857Y-122857142D02*
X100595238Y-122904761D01*
X100642857Y-122952380D01*
X100690476Y-122904761D01*
X100642857Y-122857142D01*
X100642857Y-122952380D01*
X99642857Y-122952380D02*
X100214285Y-122952380D01*
X99928571Y-122952380D02*
X99928571Y-121952380D01*
X100023809Y-122095238D01*
X100119047Y-122190476D01*
X100214285Y-122238095D01*
X99023809Y-121952380D02*
X98928571Y-121952380D01*
X98833333Y-122000000D01*
X98785714Y-122047619D01*
X98738095Y-122142857D01*
X98690476Y-122333333D01*
X98690476Y-122571428D01*
X98738095Y-122761904D01*
X98785714Y-122857142D01*
X98833333Y-122904761D01*
X98928571Y-122952380D01*
X99023809Y-122952380D01*
X99119047Y-122904761D01*
X99166666Y-122857142D01*
X99214285Y-122761904D01*
X99261904Y-122571428D01*
X99261904Y-122333333D01*
X99214285Y-122142857D01*
X99166666Y-122047619D01*
X99119047Y-122000000D01*
X99023809Y-121952380D01*
X98261904Y-122857142D02*
X98214285Y-122904761D01*
X98261904Y-122952380D01*
X98309523Y-122904761D01*
X98261904Y-122857142D01*
X98261904Y-122952380D01*
X97833333Y-122047619D02*
X97785714Y-122000000D01*
X97690476Y-121952380D01*
X97452380Y-121952380D01*
X97357142Y-122000000D01*
X97309523Y-122047619D01*
X97261904Y-122142857D01*
X97261904Y-122238095D01*
X97309523Y-122380952D01*
X97880952Y-122952380D01*
X97261904Y-122952380D01*
X96642857Y-121952380D02*
X96547619Y-121952380D01*
X96452380Y-122000000D01*
X96404761Y-122047619D01*
X96357142Y-122142857D01*
X96309523Y-122333333D01*
X96309523Y-122571428D01*
X96357142Y-122761904D01*
X96404761Y-122857142D01*
X96452380Y-122904761D01*
X96547619Y-122952380D01*
X96642857Y-122952380D01*
X96738095Y-122904761D01*
X96785714Y-122857142D01*
X96833333Y-122761904D01*
X96880952Y-122571428D01*
X96880952Y-122333333D01*
X96833333Y-122142857D01*
X96785714Y-122047619D01*
X96738095Y-122000000D01*
X96642857Y-121952380D01*
X95928571Y-122047619D02*
X95880952Y-122000000D01*
X95785714Y-121952380D01*
X95547619Y-121952380D01*
X95452380Y-122000000D01*
X95404761Y-122047619D01*
X95357142Y-122142857D01*
X95357142Y-122238095D01*
X95404761Y-122380952D01*
X95976190Y-122952380D01*
X95357142Y-122952380D01*
X94404761Y-122952380D02*
X94976190Y-122952380D01*
X94690476Y-122952380D02*
X94690476Y-121952380D01*
X94785714Y-122095238D01*
X94880952Y-122190476D01*
X94976190Y-122238095D01*
X102357142Y-123935714D02*
X101833333Y-123935714D01*
X102357142Y-124602380D01*
X101833333Y-124602380D01*
X101595238Y-123935714D02*
X101214285Y-123935714D01*
X101452380Y-123602380D02*
X101452380Y-124459523D01*
X101404761Y-124554761D01*
X101309523Y-124602380D01*
X101214285Y-124602380D01*
X100738095Y-124602380D02*
X100833333Y-124554761D01*
X100880952Y-124459523D01*
X100880952Y-123602380D01*
X99119047Y-124602380D02*
X99595238Y-124602380D01*
X99595238Y-123602380D01*
X98357142Y-124602380D02*
X98357142Y-124078571D01*
X98404761Y-123983333D01*
X98500000Y-123935714D01*
X98690476Y-123935714D01*
X98785714Y-123983333D01*
X98357142Y-124554761D02*
X98452380Y-124602380D01*
X98690476Y-124602380D01*
X98785714Y-124554761D01*
X98833333Y-124459523D01*
X98833333Y-124364285D01*
X98785714Y-124269047D01*
X98690476Y-124221428D01*
X98452380Y-124221428D01*
X98357142Y-124173809D01*
X97880952Y-123935714D02*
X97880952Y-124602380D01*
X97880952Y-124030952D02*
X97833333Y-123983333D01*
X97738095Y-123935714D01*
X97595238Y-123935714D01*
X97500000Y-123983333D01*
X97452380Y-124078571D01*
X97452380Y-124602380D01*
X96547619Y-124602380D02*
X96547619Y-123602380D01*
X96547619Y-124554761D02*
X96642857Y-124602380D01*
X96833333Y-124602380D01*
X96928571Y-124554761D01*
X96976190Y-124507142D01*
X97023809Y-124411904D01*
X97023809Y-124126190D01*
X96976190Y-124030952D01*
X96928571Y-123983333D01*
X96833333Y-123935714D01*
X96642857Y-123935714D01*
X96547619Y-123983333D01*
X95642857Y-124602380D02*
X95642857Y-124078571D01*
X95690476Y-123983333D01*
X95785714Y-123935714D01*
X95976190Y-123935714D01*
X96071428Y-123983333D01*
X95642857Y-124554761D02*
X95738095Y-124602380D01*
X95976190Y-124602380D01*
X96071428Y-124554761D01*
X96119047Y-124459523D01*
X96119047Y-124364285D01*
X96071428Y-124269047D01*
X95976190Y-124221428D01*
X95738095Y-124221428D01*
X95642857Y-124173809D01*
X94738095Y-123935714D02*
X94738095Y-124602380D01*
X95166666Y-123935714D02*
X95166666Y-124459523D01*
X95119047Y-124554761D01*
X95023809Y-124602380D01*
X94880952Y-124602380D01*
X94785714Y-124554761D01*
X94738095Y-124507142D01*
D12*
X93250000Y-152850000D02*
X92000000Y-152850000D01*
X93250000Y-151600000D02*
X93250000Y-152850000D01*
X87750000Y-143200000D02*
X87750000Y-147500000D01*
X90700000Y-143200000D02*
X87750000Y-143200000D01*
X90700000Y-142450000D02*
X90700000Y-143200000D01*
X87750000Y-151800000D02*
X87750000Y-147500000D01*
X90700000Y-151800000D02*
X87750000Y-151800000D01*
X90700000Y-152550000D02*
X90700000Y-151800000D01*
X92950000Y-142450000D02*
X92950000Y-144250000D01*
X92200000Y-142450000D02*
X92950000Y-142450000D01*
X92200000Y-144250000D02*
X92200000Y-142450000D01*
X92950000Y-144250000D02*
X92200000Y-144250000D01*
X92950000Y-150750000D02*
X92950000Y-152550000D01*
X92200000Y-150750000D02*
X92950000Y-150750000D01*
X92200000Y-152550000D02*
X92200000Y-150750000D01*
X92950000Y-152550000D02*
X92200000Y-152550000D01*
X92950000Y-145750000D02*
X92950000Y-149250000D01*
X92200000Y-145750000D02*
X92950000Y-145750000D01*
X92200000Y-149250000D02*
X92200000Y-145750000D01*
X92950000Y-149250000D02*
X92200000Y-149250000D01*
X92960000Y-142440000D02*
X92960000Y-152560000D01*
X86990000Y-142440000D02*
X92960000Y-142440000D01*
X86990000Y-152560000D02*
X86990000Y-142440000D01*
X92960000Y-152560000D02*
X86990000Y-152560000D01*
D11*
X93502380Y-147166666D02*
X94216666Y-147166666D01*
X94359523Y-147119047D01*
X94454761Y-147023809D01*
X94502380Y-146880952D01*
X94502380Y-146785714D01*
X94502380Y-148166666D02*
X94502380Y-147595238D01*
X94502380Y-147880952D02*
X93502380Y-147880952D01*
X93645238Y-147785714D01*
X93740476Y-147690476D01*
X93788095Y-147595238D01*
%LPC*%
D13*
X90500000Y-145000000D03*
X90500000Y-147500000D03*
G36*
G01*
X91261000Y-150901000D02*
X89739000Y-150901000D01*
G75*
G02*
X89474000Y-150636000I0J265000D01*
G01*
X89474000Y-149364000D01*
G75*
G02*
X89739000Y-149099000I265000J0D01*
G01*
X91261000Y-149099000D01*
G75*
G02*
X91526000Y-149364000I0J-265000D01*
G01*
X91526000Y-150636000D01*
G75*
G02*
X91261000Y-150901000I-265000J0D01*
G01*
G37*
M02*
