%FSLAX45Y45*%
G04 Gerber Fmt 4.5, Leading zero omitted, Abs format (unit mm)*
G04 Created by KiCad (PCBNEW 5.1.5+dfsg1-2build2) date 2021-10-24 20:04:06*
%MOMM*%
%LPD*%
G04 APERTURE LIST*
%TA.AperFunction,Profile*%
%ADD10C,0.050000*%
%TD*%
%ADD11C,0.200000*%
%ADD12C,0.300000*%
G04 APERTURE END LIST*
D10*
X15800000Y-9000000D02*
G75*
G03X15800000Y-9000000I-800000J0D01*
G01*
X21700000Y-15000000D02*
G75*
G03X21700000Y-15000000I-800000J0D01*
G01*
X15800000Y-20810935D02*
G75*
G03X15800000Y-20810935I-800000J0D01*
G01*
X22000000Y-15000000D02*
G75*
G03X22000000Y-15000000I-7000000J0D01*
G01*
D11*
X10095000Y-14825000D02*
X10125000Y-14855000D01*
X10125000Y-14825000D02*
X10095000Y-14855000D01*
X11240000Y-12190000D02*
X11270000Y-12220000D01*
X11270000Y-12190000D02*
X11240000Y-12220000D01*
X11240000Y-13190000D02*
X11270000Y-13220000D01*
X11270000Y-13190000D02*
X11240000Y-13220000D01*
X11240000Y-14190000D02*
X11270000Y-14220000D01*
X11270000Y-14190000D02*
X11240000Y-14220000D01*
X11240000Y-15190000D02*
X11270000Y-15220000D01*
X11270000Y-15190000D02*
X11240000Y-15220000D01*
X11240000Y-16190000D02*
X11270000Y-16220000D01*
X11270000Y-16190000D02*
X11240000Y-16220000D01*
X11245000Y-17185000D02*
X11275000Y-17215000D01*
X11275000Y-17185000D02*
X11245000Y-17215000D01*
X12240000Y-11190000D02*
X12270000Y-11220000D01*
X12270000Y-11190000D02*
X12240000Y-11220000D01*
X12240000Y-12190000D02*
X12270000Y-12220000D01*
X12270000Y-12190000D02*
X12240000Y-12220000D01*
X12240000Y-13190000D02*
X12270000Y-13220000D01*
X12270000Y-13190000D02*
X12240000Y-13220000D01*
X12240000Y-14140000D02*
X12270000Y-14170000D01*
X12270000Y-14140000D02*
X12240000Y-14170000D01*
X12240000Y-15190000D02*
X12270000Y-15220000D01*
X12270000Y-15190000D02*
X12240000Y-15220000D01*
X12240000Y-16190000D02*
X12270000Y-16220000D01*
X12270000Y-16190000D02*
X12240000Y-16220000D01*
X12240000Y-17190000D02*
X12270000Y-17220000D01*
X12270000Y-17190000D02*
X12240000Y-17220000D01*
X12240000Y-18190000D02*
X12270000Y-18220000D01*
X12270000Y-18190000D02*
X12240000Y-18220000D01*
X13095000Y-12325000D02*
X13125000Y-12355000D01*
X13125000Y-12325000D02*
X13095000Y-12355000D01*
X13240000Y-11190000D02*
X13270000Y-11220000D01*
X13270000Y-11190000D02*
X13240000Y-11220000D01*
X13240000Y-13190000D02*
X13270000Y-13220000D01*
X13270000Y-13190000D02*
X13240000Y-13220000D01*
X13240000Y-14140000D02*
X13270000Y-14170000D01*
X13270000Y-14140000D02*
X13240000Y-14170000D01*
X13240000Y-15190000D02*
X13270000Y-15220000D01*
X13270000Y-15190000D02*
X13240000Y-15220000D01*
X13240000Y-16190000D02*
X13270000Y-16220000D01*
X13270000Y-16190000D02*
X13240000Y-16220000D01*
X13240000Y-17190000D02*
X13270000Y-17220000D01*
X13270000Y-17190000D02*
X13240000Y-17220000D01*
X13240000Y-18190000D02*
X13270000Y-18220000D01*
X13270000Y-18190000D02*
X13240000Y-18220000D01*
X14095000Y-13325000D02*
X14125000Y-13355000D01*
X14125000Y-13325000D02*
X14095000Y-13355000D01*
X14235000Y-14135000D02*
X14265000Y-14165000D01*
X14265000Y-14135000D02*
X14235000Y-14165000D01*
X14235000Y-18185000D02*
X14265000Y-18215000D01*
X14265000Y-18185000D02*
X14235000Y-18215000D01*
X14240000Y-11190000D02*
X14270000Y-11220000D01*
X14270000Y-11190000D02*
X14240000Y-11220000D01*
X14240000Y-12190000D02*
X14270000Y-12220000D01*
X14270000Y-12190000D02*
X14240000Y-12220000D01*
X14240000Y-15190000D02*
X14270000Y-15220000D01*
X14270000Y-15190000D02*
X14240000Y-15220000D01*
X14240000Y-16190000D02*
X14270000Y-16220000D01*
X14270000Y-16190000D02*
X14240000Y-16220000D01*
X14240000Y-17190000D02*
X14270000Y-17220000D01*
X14270000Y-17190000D02*
X14240000Y-17220000D01*
X14740000Y-10190000D02*
X14770000Y-10220000D01*
X14770000Y-10190000D02*
X14740000Y-10220000D01*
X14740000Y-19190000D02*
X14770000Y-19220000D01*
X14770000Y-19190000D02*
X14740000Y-19220000D01*
X15235000Y-14135000D02*
X15265000Y-14165000D01*
X15265000Y-14135000D02*
X15235000Y-14165000D01*
X15235000Y-17185000D02*
X15265000Y-17215000D01*
X15265000Y-17185000D02*
X15235000Y-17215000D01*
X15235000Y-18185000D02*
X15265000Y-18215000D01*
X15265000Y-18185000D02*
X15235000Y-18215000D01*
X15240000Y-11190000D02*
X15270000Y-11220000D01*
X15270000Y-11190000D02*
X15240000Y-11220000D01*
X15240000Y-12190000D02*
X15270000Y-12220000D01*
X15270000Y-12190000D02*
X15240000Y-12220000D01*
X15240000Y-13190000D02*
X15270000Y-13220000D01*
X15270000Y-13190000D02*
X15240000Y-13220000D01*
X15240000Y-15190000D02*
X15270000Y-15220000D01*
X15270000Y-15190000D02*
X15240000Y-15220000D01*
X15240000Y-16190000D02*
X15270000Y-16220000D01*
X15270000Y-16190000D02*
X15240000Y-16220000D01*
X16240000Y-11190000D02*
X16270000Y-11220000D01*
X16270000Y-11190000D02*
X16240000Y-11220000D01*
X16240000Y-12190000D02*
X16270000Y-12220000D01*
X16270000Y-12190000D02*
X16240000Y-12220000D01*
X16240000Y-13190000D02*
X16270000Y-13220000D01*
X16270000Y-13190000D02*
X16240000Y-13220000D01*
X16240000Y-14190000D02*
X16270000Y-14220000D01*
X16270000Y-14190000D02*
X16240000Y-14220000D01*
X16240000Y-15190000D02*
X16270000Y-15220000D01*
X16270000Y-15190000D02*
X16240000Y-15220000D01*
X16240000Y-16190000D02*
X16270000Y-16220000D01*
X16270000Y-16190000D02*
X16240000Y-16220000D01*
X16240000Y-17190000D02*
X16270000Y-17220000D01*
X16270000Y-17190000D02*
X16240000Y-17220000D01*
X16240000Y-18190000D02*
X16270000Y-18220000D01*
X16270000Y-18190000D02*
X16240000Y-18220000D01*
X17095000Y-13325000D02*
X17125000Y-13355000D01*
X17125000Y-13325000D02*
X17095000Y-13355000D01*
X17235000Y-11185000D02*
X17265000Y-11215000D01*
X17265000Y-11185000D02*
X17235000Y-11215000D01*
X17240000Y-12190000D02*
X17270000Y-12220000D01*
X17270000Y-12190000D02*
X17240000Y-12220000D01*
X17240000Y-15190000D02*
X17270000Y-15220000D01*
X17270000Y-15190000D02*
X17240000Y-15220000D01*
X17240000Y-16190000D02*
X17270000Y-16220000D01*
X17270000Y-16190000D02*
X17240000Y-16220000D01*
X17240000Y-17140000D02*
X17270000Y-17170000D01*
X17270000Y-17140000D02*
X17240000Y-17170000D01*
X17240000Y-18190000D02*
X17270000Y-18220000D01*
X17270000Y-18190000D02*
X17240000Y-18220000D01*
X18095000Y-12325000D02*
X18125000Y-12355000D01*
X18125000Y-12325000D02*
X18095000Y-12355000D01*
X18240000Y-13190000D02*
X18270000Y-13220000D01*
X18270000Y-13190000D02*
X18240000Y-13220000D01*
X18240000Y-14190000D02*
X18270000Y-14220000D01*
X18270000Y-14190000D02*
X18240000Y-14220000D01*
X18240000Y-15190000D02*
X18270000Y-15220000D01*
X18270000Y-15190000D02*
X18240000Y-15220000D01*
X18240000Y-16190000D02*
X18270000Y-16220000D01*
X18270000Y-16190000D02*
X18240000Y-16220000D01*
X18240000Y-17190000D02*
X18270000Y-17220000D01*
X18270000Y-17190000D02*
X18240000Y-17220000D01*
X19240000Y-14640000D02*
X19270000Y-14670000D01*
X19270000Y-14640000D02*
X19240000Y-14670000D01*
X14670000Y-14050000D02*
G75*
G03X14670000Y-14050000I-20000J0D01*
G01*
X17275000Y-14205000D02*
G75*
G03X17275000Y-14205000I-20000J0D01*
G01*
X9050000Y-15052500D02*
X9050000Y-15147500D01*
X9002500Y-15100000D02*
X9097500Y-15100000D01*
X9050000Y-15302500D02*
X9050000Y-15397500D01*
X9002500Y-15350000D02*
X9097500Y-15350000D01*
X9050000Y-15552500D02*
X9050000Y-15647500D01*
X9002500Y-15600000D02*
X9097500Y-15600000D01*
X9050000Y-13852500D02*
X9050000Y-13947500D01*
X9002500Y-13900000D02*
X9097500Y-13900000D01*
X9050000Y-14102500D02*
X9050000Y-14197500D01*
X9002500Y-14150000D02*
X9097500Y-14150000D01*
X9050000Y-14352500D02*
X9050000Y-14447500D01*
X9002500Y-14400000D02*
X9097500Y-14400000D01*
X10335356Y-16323356D02*
X10335356Y-16252644D01*
X10264644Y-16252644D01*
X10264644Y-16323356D01*
X10335356Y-16323356D01*
X10335356Y-16577356D02*
X10335356Y-16506644D01*
X10264644Y-16506644D01*
X10264644Y-16577356D01*
X10335356Y-16577356D01*
X10335356Y-16831356D02*
X10335356Y-16760644D01*
X10264644Y-16760644D01*
X10264644Y-16831356D01*
X10335356Y-16831356D01*
X10335356Y-17085356D02*
X10335356Y-17014644D01*
X10264644Y-17014644D01*
X10264644Y-17085356D01*
X10335356Y-17085356D01*
D12*
X8283928Y-22468214D02*
X8283928Y-22168214D01*
X8355357Y-22168214D01*
X8398214Y-22182500D01*
X8426786Y-22211072D01*
X8441071Y-22239643D01*
X8455357Y-22296786D01*
X8455357Y-22339643D01*
X8441071Y-22396786D01*
X8426786Y-22425357D01*
X8398214Y-22453929D01*
X8355357Y-22468214D01*
X8283928Y-22468214D01*
X8583928Y-22468214D02*
X8583928Y-22268214D01*
X8583928Y-22325357D02*
X8598214Y-22296786D01*
X8612500Y-22282500D01*
X8641071Y-22268214D01*
X8669643Y-22268214D01*
X8769643Y-22468214D02*
X8769643Y-22268214D01*
X8769643Y-22168214D02*
X8755357Y-22182500D01*
X8769643Y-22196786D01*
X8783928Y-22182500D01*
X8769643Y-22168214D01*
X8769643Y-22196786D01*
X8955357Y-22468214D02*
X8926786Y-22453929D01*
X8912500Y-22425357D01*
X8912500Y-22168214D01*
X9112500Y-22468214D02*
X9083928Y-22453929D01*
X9069643Y-22425357D01*
X9069643Y-22168214D01*
X9455357Y-22468214D02*
X9455357Y-22168214D01*
X9555357Y-22382500D01*
X9655357Y-22168214D01*
X9655357Y-22468214D01*
X9926786Y-22468214D02*
X9926786Y-22311072D01*
X9912500Y-22282500D01*
X9883928Y-22268214D01*
X9826786Y-22268214D01*
X9798214Y-22282500D01*
X9926786Y-22453929D02*
X9898214Y-22468214D01*
X9826786Y-22468214D01*
X9798214Y-22453929D01*
X9783928Y-22425357D01*
X9783928Y-22396786D01*
X9798214Y-22368214D01*
X9826786Y-22353929D01*
X9898214Y-22353929D01*
X9926786Y-22339643D01*
X10069643Y-22268214D02*
X10069643Y-22568214D01*
X10069643Y-22282500D02*
X10098214Y-22268214D01*
X10155357Y-22268214D01*
X10183928Y-22282500D01*
X10198214Y-22296786D01*
X10212500Y-22325357D01*
X10212500Y-22411071D01*
X10198214Y-22439643D01*
X10183928Y-22453929D01*
X10155357Y-22468214D01*
X10098214Y-22468214D01*
X10069643Y-22453929D01*
X10341071Y-22439643D02*
X10355357Y-22453929D01*
X10341071Y-22468214D01*
X10326786Y-22453929D01*
X10341071Y-22439643D01*
X10341071Y-22468214D01*
X10341071Y-22282500D02*
X10355357Y-22296786D01*
X10341071Y-22311072D01*
X10326786Y-22296786D01*
X10341071Y-22282500D01*
X10341071Y-22311072D01*
X7967500Y-22947500D02*
X7997500Y-22977500D01*
X7997500Y-22947500D02*
X7967500Y-22977500D01*
X8341071Y-22798214D02*
X8369643Y-22798214D01*
X8398214Y-22812500D01*
X8412500Y-22826786D01*
X8426786Y-22855357D01*
X8441071Y-22912500D01*
X8441071Y-22983929D01*
X8426786Y-23041071D01*
X8412500Y-23069643D01*
X8398214Y-23083929D01*
X8369643Y-23098214D01*
X8341071Y-23098214D01*
X8312500Y-23083929D01*
X8298214Y-23069643D01*
X8283928Y-23041071D01*
X8269643Y-22983929D01*
X8269643Y-22912500D01*
X8283928Y-22855357D01*
X8298214Y-22826786D01*
X8312500Y-22812500D01*
X8341071Y-22798214D01*
X8569643Y-23069643D02*
X8583928Y-23083929D01*
X8569643Y-23098214D01*
X8555357Y-23083929D01*
X8569643Y-23069643D01*
X8569643Y-23098214D01*
X8683928Y-22798214D02*
X8869643Y-22798214D01*
X8769643Y-22912500D01*
X8812500Y-22912500D01*
X8841071Y-22926786D01*
X8855357Y-22941071D01*
X8869643Y-22969643D01*
X8869643Y-23041071D01*
X8855357Y-23069643D01*
X8841071Y-23083929D01*
X8812500Y-23098214D01*
X8726786Y-23098214D01*
X8698214Y-23083929D01*
X8683928Y-23069643D01*
X9055357Y-22798214D02*
X9083928Y-22798214D01*
X9112500Y-22812500D01*
X9126786Y-22826786D01*
X9141071Y-22855357D01*
X9155357Y-22912500D01*
X9155357Y-22983929D01*
X9141071Y-23041071D01*
X9126786Y-23069643D01*
X9112500Y-23083929D01*
X9083928Y-23098214D01*
X9055357Y-23098214D01*
X9026786Y-23083929D01*
X9012500Y-23069643D01*
X8998214Y-23041071D01*
X8983928Y-22983929D01*
X8983928Y-22912500D01*
X8998214Y-22855357D01*
X9012500Y-22826786D01*
X9026786Y-22812500D01*
X9055357Y-22798214D01*
X9283928Y-23098214D02*
X9283928Y-22898214D01*
X9283928Y-22926786D02*
X9298214Y-22912500D01*
X9326786Y-22898214D01*
X9369643Y-22898214D01*
X9398214Y-22912500D01*
X9412500Y-22941071D01*
X9412500Y-23098214D01*
X9412500Y-22941071D02*
X9426786Y-22912500D01*
X9455357Y-22898214D01*
X9498214Y-22898214D01*
X9526786Y-22912500D01*
X9541071Y-22941071D01*
X9541071Y-23098214D01*
X9683928Y-23098214D02*
X9683928Y-22898214D01*
X9683928Y-22926786D02*
X9698214Y-22912500D01*
X9726786Y-22898214D01*
X9769643Y-22898214D01*
X9798214Y-22912500D01*
X9812500Y-22941071D01*
X9812500Y-23098214D01*
X9812500Y-22941071D02*
X9826786Y-22912500D01*
X9855357Y-22898214D01*
X9898214Y-22898214D01*
X9926786Y-22912500D01*
X9941071Y-22941071D01*
X9941071Y-23098214D01*
X10526786Y-22783929D02*
X10269643Y-23169643D01*
X10912500Y-22798214D02*
X10941071Y-22798214D01*
X10969643Y-22812500D01*
X10983928Y-22826786D01*
X10998214Y-22855357D01*
X11012500Y-22912500D01*
X11012500Y-22983929D01*
X10998214Y-23041071D01*
X10983928Y-23069643D01*
X10969643Y-23083929D01*
X10941071Y-23098214D01*
X10912500Y-23098214D01*
X10883928Y-23083929D01*
X10869643Y-23069643D01*
X10855357Y-23041071D01*
X10841071Y-22983929D01*
X10841071Y-22912500D01*
X10855357Y-22855357D01*
X10869643Y-22826786D01*
X10883928Y-22812500D01*
X10912500Y-22798214D01*
X11141071Y-23069643D02*
X11155357Y-23083929D01*
X11141071Y-23098214D01*
X11126786Y-23083929D01*
X11141071Y-23069643D01*
X11141071Y-23098214D01*
X11341071Y-22798214D02*
X11369643Y-22798214D01*
X11398214Y-22812500D01*
X11412500Y-22826786D01*
X11426786Y-22855357D01*
X11441071Y-22912500D01*
X11441071Y-22983929D01*
X11426786Y-23041071D01*
X11412500Y-23069643D01*
X11398214Y-23083929D01*
X11369643Y-23098214D01*
X11341071Y-23098214D01*
X11312500Y-23083929D01*
X11298214Y-23069643D01*
X11283928Y-23041071D01*
X11269643Y-22983929D01*
X11269643Y-22912500D01*
X11283928Y-22855357D01*
X11298214Y-22826786D01*
X11312500Y-22812500D01*
X11341071Y-22798214D01*
X11726786Y-23098214D02*
X11555357Y-23098214D01*
X11641071Y-23098214D02*
X11641071Y-22798214D01*
X11612500Y-22841071D01*
X11583928Y-22869643D01*
X11555357Y-22883929D01*
X11841071Y-22826786D02*
X11855357Y-22812500D01*
X11883928Y-22798214D01*
X11955357Y-22798214D01*
X11983928Y-22812500D01*
X11998214Y-22826786D01*
X12012500Y-22855357D01*
X12012500Y-22883929D01*
X11998214Y-22926786D01*
X11826786Y-23098214D01*
X12012500Y-23098214D01*
X12126786Y-22798214D02*
X12126786Y-22855357D01*
X12241071Y-22798214D02*
X12241071Y-22855357D01*
X12683928Y-23212500D02*
X12669643Y-23198214D01*
X12641071Y-23155357D01*
X12626786Y-23126786D01*
X12612500Y-23083929D01*
X12598214Y-23012500D01*
X12598214Y-22955357D01*
X12612500Y-22883929D01*
X12626786Y-22841071D01*
X12641071Y-22812500D01*
X12669643Y-22769643D01*
X12683928Y-22755357D01*
X12926786Y-22798214D02*
X12869643Y-22798214D01*
X12841071Y-22812500D01*
X12826786Y-22826786D01*
X12798214Y-22869643D01*
X12783928Y-22926786D01*
X12783928Y-23041071D01*
X12798214Y-23069643D01*
X12812500Y-23083929D01*
X12841071Y-23098214D01*
X12898214Y-23098214D01*
X12926786Y-23083929D01*
X12941071Y-23069643D01*
X12955357Y-23041071D01*
X12955357Y-22969643D01*
X12941071Y-22941071D01*
X12926786Y-22926786D01*
X12898214Y-22912500D01*
X12841071Y-22912500D01*
X12812500Y-22926786D01*
X12798214Y-22941071D01*
X12783928Y-22969643D01*
X13055357Y-22798214D02*
X13241071Y-22798214D01*
X13141071Y-22912500D01*
X13183928Y-22912500D01*
X13212500Y-22926786D01*
X13226786Y-22941071D01*
X13241071Y-22969643D01*
X13241071Y-23041071D01*
X13226786Y-23069643D01*
X13212500Y-23083929D01*
X13183928Y-23098214D01*
X13098214Y-23098214D01*
X13069643Y-23083929D01*
X13055357Y-23069643D01*
X13598214Y-23098214D02*
X13598214Y-22798214D01*
X13726786Y-23098214D02*
X13726786Y-22941071D01*
X13712500Y-22912500D01*
X13683928Y-22898214D01*
X13641071Y-22898214D01*
X13612500Y-22912500D01*
X13598214Y-22926786D01*
X13912500Y-23098214D02*
X13883928Y-23083929D01*
X13869643Y-23069643D01*
X13855357Y-23041071D01*
X13855357Y-22955357D01*
X13869643Y-22926786D01*
X13883928Y-22912500D01*
X13912500Y-22898214D01*
X13955357Y-22898214D01*
X13983928Y-22912500D01*
X13998214Y-22926786D01*
X14012500Y-22955357D01*
X14012500Y-23041071D01*
X13998214Y-23069643D01*
X13983928Y-23083929D01*
X13955357Y-23098214D01*
X13912500Y-23098214D01*
X14183928Y-23098214D02*
X14155357Y-23083929D01*
X14141071Y-23055357D01*
X14141071Y-22798214D01*
X14412500Y-23083929D02*
X14383928Y-23098214D01*
X14326786Y-23098214D01*
X14298214Y-23083929D01*
X14283928Y-23055357D01*
X14283928Y-22941071D01*
X14298214Y-22912500D01*
X14326786Y-22898214D01*
X14383928Y-22898214D01*
X14412500Y-22912500D01*
X14426786Y-22941071D01*
X14426786Y-22969643D01*
X14283928Y-22998214D01*
X14541071Y-23083929D02*
X14569643Y-23098214D01*
X14626786Y-23098214D01*
X14655357Y-23083929D01*
X14669643Y-23055357D01*
X14669643Y-23041071D01*
X14655357Y-23012500D01*
X14626786Y-22998214D01*
X14583928Y-22998214D01*
X14555357Y-22983929D01*
X14541071Y-22955357D01*
X14541071Y-22941071D01*
X14555357Y-22912500D01*
X14583928Y-22898214D01*
X14626786Y-22898214D01*
X14655357Y-22912500D01*
X14769643Y-23212500D02*
X14783928Y-23198214D01*
X14812500Y-23155357D01*
X14826786Y-23126786D01*
X14841071Y-23083929D01*
X14855357Y-23012500D01*
X14855357Y-22955357D01*
X14841071Y-22883929D01*
X14826786Y-22841071D01*
X14812500Y-22812500D01*
X14783928Y-22769643D01*
X14769643Y-22755357D01*
X7997500Y-23358500D02*
G75*
G03X7997500Y-23358500I-20000J0D01*
G01*
X8341071Y-23194214D02*
X8369643Y-23194214D01*
X8398214Y-23208500D01*
X8412500Y-23222786D01*
X8426786Y-23251357D01*
X8441071Y-23308500D01*
X8441071Y-23379929D01*
X8426786Y-23437071D01*
X8412500Y-23465643D01*
X8398214Y-23479929D01*
X8369643Y-23494214D01*
X8341071Y-23494214D01*
X8312500Y-23479929D01*
X8298214Y-23465643D01*
X8283928Y-23437071D01*
X8269643Y-23379929D01*
X8269643Y-23308500D01*
X8283928Y-23251357D01*
X8298214Y-23222786D01*
X8312500Y-23208500D01*
X8341071Y-23194214D01*
X8569643Y-23465643D02*
X8583928Y-23479929D01*
X8569643Y-23494214D01*
X8555357Y-23479929D01*
X8569643Y-23465643D01*
X8569643Y-23494214D01*
X8841071Y-23294214D02*
X8841071Y-23494214D01*
X8769643Y-23179929D02*
X8698214Y-23394214D01*
X8883928Y-23394214D01*
X9055357Y-23194214D02*
X9083928Y-23194214D01*
X9112500Y-23208500D01*
X9126786Y-23222786D01*
X9141071Y-23251357D01*
X9155357Y-23308500D01*
X9155357Y-23379929D01*
X9141071Y-23437071D01*
X9126786Y-23465643D01*
X9112500Y-23479929D01*
X9083928Y-23494214D01*
X9055357Y-23494214D01*
X9026786Y-23479929D01*
X9012500Y-23465643D01*
X8998214Y-23437071D01*
X8983928Y-23379929D01*
X8983928Y-23308500D01*
X8998214Y-23251357D01*
X9012500Y-23222786D01*
X9026786Y-23208500D01*
X9055357Y-23194214D01*
X9283928Y-23494214D02*
X9283928Y-23294214D01*
X9283928Y-23322786D02*
X9298214Y-23308500D01*
X9326786Y-23294214D01*
X9369643Y-23294214D01*
X9398214Y-23308500D01*
X9412500Y-23337071D01*
X9412500Y-23494214D01*
X9412500Y-23337071D02*
X9426786Y-23308500D01*
X9455357Y-23294214D01*
X9498214Y-23294214D01*
X9526786Y-23308500D01*
X9541071Y-23337071D01*
X9541071Y-23494214D01*
X9683928Y-23494214D02*
X9683928Y-23294214D01*
X9683928Y-23322786D02*
X9698214Y-23308500D01*
X9726786Y-23294214D01*
X9769643Y-23294214D01*
X9798214Y-23308500D01*
X9812500Y-23337071D01*
X9812500Y-23494214D01*
X9812500Y-23337071D02*
X9826786Y-23308500D01*
X9855357Y-23294214D01*
X9898214Y-23294214D01*
X9926786Y-23308500D01*
X9941071Y-23337071D01*
X9941071Y-23494214D01*
X10526786Y-23179929D02*
X10269643Y-23565643D01*
X10912500Y-23194214D02*
X10941071Y-23194214D01*
X10969643Y-23208500D01*
X10983928Y-23222786D01*
X10998214Y-23251357D01*
X11012500Y-23308500D01*
X11012500Y-23379929D01*
X10998214Y-23437071D01*
X10983928Y-23465643D01*
X10969643Y-23479929D01*
X10941071Y-23494214D01*
X10912500Y-23494214D01*
X10883928Y-23479929D01*
X10869643Y-23465643D01*
X10855357Y-23437071D01*
X10841071Y-23379929D01*
X10841071Y-23308500D01*
X10855357Y-23251357D01*
X10869643Y-23222786D01*
X10883928Y-23208500D01*
X10912500Y-23194214D01*
X11141071Y-23465643D02*
X11155357Y-23479929D01*
X11141071Y-23494214D01*
X11126786Y-23479929D01*
X11141071Y-23465643D01*
X11141071Y-23494214D01*
X11341071Y-23194214D02*
X11369643Y-23194214D01*
X11398214Y-23208500D01*
X11412500Y-23222786D01*
X11426786Y-23251357D01*
X11441071Y-23308500D01*
X11441071Y-23379929D01*
X11426786Y-23437071D01*
X11412500Y-23465643D01*
X11398214Y-23479929D01*
X11369643Y-23494214D01*
X11341071Y-23494214D01*
X11312500Y-23479929D01*
X11298214Y-23465643D01*
X11283928Y-23437071D01*
X11269643Y-23379929D01*
X11269643Y-23308500D01*
X11283928Y-23251357D01*
X11298214Y-23222786D01*
X11312500Y-23208500D01*
X11341071Y-23194214D01*
X11726786Y-23494214D02*
X11555357Y-23494214D01*
X11641071Y-23494214D02*
X11641071Y-23194214D01*
X11612500Y-23237071D01*
X11583928Y-23265643D01*
X11555357Y-23279929D01*
X11983928Y-23194214D02*
X11926786Y-23194214D01*
X11898214Y-23208500D01*
X11883928Y-23222786D01*
X11855357Y-23265643D01*
X11841071Y-23322786D01*
X11841071Y-23437071D01*
X11855357Y-23465643D01*
X11869643Y-23479929D01*
X11898214Y-23494214D01*
X11955357Y-23494214D01*
X11983928Y-23479929D01*
X11998214Y-23465643D01*
X12012500Y-23437071D01*
X12012500Y-23365643D01*
X11998214Y-23337071D01*
X11983928Y-23322786D01*
X11955357Y-23308500D01*
X11898214Y-23308500D01*
X11869643Y-23322786D01*
X11855357Y-23337071D01*
X11841071Y-23365643D01*
X12126786Y-23194214D02*
X12126786Y-23251357D01*
X12241071Y-23194214D02*
X12241071Y-23251357D01*
X12683928Y-23608500D02*
X12669643Y-23594214D01*
X12641071Y-23551357D01*
X12626786Y-23522786D01*
X12612500Y-23479929D01*
X12598214Y-23408500D01*
X12598214Y-23351357D01*
X12612500Y-23279929D01*
X12626786Y-23237071D01*
X12641071Y-23208500D01*
X12669643Y-23165643D01*
X12683928Y-23151357D01*
X12783928Y-23222786D02*
X12798214Y-23208500D01*
X12826786Y-23194214D01*
X12898214Y-23194214D01*
X12926786Y-23208500D01*
X12941071Y-23222786D01*
X12955357Y-23251357D01*
X12955357Y-23279929D01*
X12941071Y-23322786D01*
X12769643Y-23494214D01*
X12955357Y-23494214D01*
X13312500Y-23494214D02*
X13312500Y-23194214D01*
X13441071Y-23494214D02*
X13441071Y-23337071D01*
X13426786Y-23308500D01*
X13398214Y-23294214D01*
X13355357Y-23294214D01*
X13326786Y-23308500D01*
X13312500Y-23322786D01*
X13626786Y-23494214D02*
X13598214Y-23479929D01*
X13583928Y-23465643D01*
X13569643Y-23437071D01*
X13569643Y-23351357D01*
X13583928Y-23322786D01*
X13598214Y-23308500D01*
X13626786Y-23294214D01*
X13669643Y-23294214D01*
X13698214Y-23308500D01*
X13712500Y-23322786D01*
X13726786Y-23351357D01*
X13726786Y-23437071D01*
X13712500Y-23465643D01*
X13698214Y-23479929D01*
X13669643Y-23494214D01*
X13626786Y-23494214D01*
X13898214Y-23494214D02*
X13869643Y-23479929D01*
X13855357Y-23451357D01*
X13855357Y-23194214D01*
X14126786Y-23479929D02*
X14098214Y-23494214D01*
X14041071Y-23494214D01*
X14012500Y-23479929D01*
X13998214Y-23451357D01*
X13998214Y-23337071D01*
X14012500Y-23308500D01*
X14041071Y-23294214D01*
X14098214Y-23294214D01*
X14126786Y-23308500D01*
X14141071Y-23337071D01*
X14141071Y-23365643D01*
X13998214Y-23394214D01*
X14255357Y-23479929D02*
X14283928Y-23494214D01*
X14341071Y-23494214D01*
X14369643Y-23479929D01*
X14383928Y-23451357D01*
X14383928Y-23437071D01*
X14369643Y-23408500D01*
X14341071Y-23394214D01*
X14298214Y-23394214D01*
X14269643Y-23379929D01*
X14255357Y-23351357D01*
X14255357Y-23337071D01*
X14269643Y-23308500D01*
X14298214Y-23294214D01*
X14341071Y-23294214D01*
X14369643Y-23308500D01*
X14483928Y-23608500D02*
X14498214Y-23594214D01*
X14526786Y-23551357D01*
X14541071Y-23522786D01*
X14555357Y-23479929D01*
X14569643Y-23408500D01*
X14569643Y-23351357D01*
X14555357Y-23279929D01*
X14541071Y-23237071D01*
X14526786Y-23208500D01*
X14498214Y-23165643D01*
X14483928Y-23151357D01*
X7950000Y-23707000D02*
X7950000Y-23802000D01*
X7902500Y-23754500D02*
X7997500Y-23754500D01*
X8341071Y-23590214D02*
X8369643Y-23590214D01*
X8398214Y-23604500D01*
X8412500Y-23618786D01*
X8426786Y-23647357D01*
X8441071Y-23704500D01*
X8441071Y-23775929D01*
X8426786Y-23833071D01*
X8412500Y-23861643D01*
X8398214Y-23875929D01*
X8369643Y-23890214D01*
X8341071Y-23890214D01*
X8312500Y-23875929D01*
X8298214Y-23861643D01*
X8283928Y-23833071D01*
X8269643Y-23775929D01*
X8269643Y-23704500D01*
X8283928Y-23647357D01*
X8298214Y-23618786D01*
X8312500Y-23604500D01*
X8341071Y-23590214D01*
X8569643Y-23861643D02*
X8583928Y-23875929D01*
X8569643Y-23890214D01*
X8555357Y-23875929D01*
X8569643Y-23861643D01*
X8569643Y-23890214D01*
X8726786Y-23890214D02*
X8783928Y-23890214D01*
X8812500Y-23875929D01*
X8826786Y-23861643D01*
X8855357Y-23818786D01*
X8869643Y-23761643D01*
X8869643Y-23647357D01*
X8855357Y-23618786D01*
X8841071Y-23604500D01*
X8812500Y-23590214D01*
X8755357Y-23590214D01*
X8726786Y-23604500D01*
X8712500Y-23618786D01*
X8698214Y-23647357D01*
X8698214Y-23718786D01*
X8712500Y-23747357D01*
X8726786Y-23761643D01*
X8755357Y-23775929D01*
X8812500Y-23775929D01*
X8841071Y-23761643D01*
X8855357Y-23747357D01*
X8869643Y-23718786D01*
X9141071Y-23590214D02*
X8998214Y-23590214D01*
X8983928Y-23733071D01*
X8998214Y-23718786D01*
X9026786Y-23704500D01*
X9098214Y-23704500D01*
X9126786Y-23718786D01*
X9141071Y-23733071D01*
X9155357Y-23761643D01*
X9155357Y-23833071D01*
X9141071Y-23861643D01*
X9126786Y-23875929D01*
X9098214Y-23890214D01*
X9026786Y-23890214D01*
X8998214Y-23875929D01*
X8983928Y-23861643D01*
X9283928Y-23890214D02*
X9283928Y-23690214D01*
X9283928Y-23718786D02*
X9298214Y-23704500D01*
X9326786Y-23690214D01*
X9369643Y-23690214D01*
X9398214Y-23704500D01*
X9412500Y-23733071D01*
X9412500Y-23890214D01*
X9412500Y-23733071D02*
X9426786Y-23704500D01*
X9455357Y-23690214D01*
X9498214Y-23690214D01*
X9526786Y-23704500D01*
X9541071Y-23733071D01*
X9541071Y-23890214D01*
X9683928Y-23890214D02*
X9683928Y-23690214D01*
X9683928Y-23718786D02*
X9698214Y-23704500D01*
X9726786Y-23690214D01*
X9769643Y-23690214D01*
X9798214Y-23704500D01*
X9812500Y-23733071D01*
X9812500Y-23890214D01*
X9812500Y-23733071D02*
X9826786Y-23704500D01*
X9855357Y-23690214D01*
X9898214Y-23690214D01*
X9926786Y-23704500D01*
X9941071Y-23733071D01*
X9941071Y-23890214D01*
X10526786Y-23575929D02*
X10269643Y-23961643D01*
X10912500Y-23590214D02*
X10941071Y-23590214D01*
X10969643Y-23604500D01*
X10983928Y-23618786D01*
X10998214Y-23647357D01*
X11012500Y-23704500D01*
X11012500Y-23775929D01*
X10998214Y-23833071D01*
X10983928Y-23861643D01*
X10969643Y-23875929D01*
X10941071Y-23890214D01*
X10912500Y-23890214D01*
X10883928Y-23875929D01*
X10869643Y-23861643D01*
X10855357Y-23833071D01*
X10841071Y-23775929D01*
X10841071Y-23704500D01*
X10855357Y-23647357D01*
X10869643Y-23618786D01*
X10883928Y-23604500D01*
X10912500Y-23590214D01*
X11141071Y-23861643D02*
X11155357Y-23875929D01*
X11141071Y-23890214D01*
X11126786Y-23875929D01*
X11141071Y-23861643D01*
X11141071Y-23890214D01*
X11341071Y-23590214D02*
X11369643Y-23590214D01*
X11398214Y-23604500D01*
X11412500Y-23618786D01*
X11426786Y-23647357D01*
X11441071Y-23704500D01*
X11441071Y-23775929D01*
X11426786Y-23833071D01*
X11412500Y-23861643D01*
X11398214Y-23875929D01*
X11369643Y-23890214D01*
X11341071Y-23890214D01*
X11312500Y-23875929D01*
X11298214Y-23861643D01*
X11283928Y-23833071D01*
X11269643Y-23775929D01*
X11269643Y-23704500D01*
X11283928Y-23647357D01*
X11298214Y-23618786D01*
X11312500Y-23604500D01*
X11341071Y-23590214D01*
X11541071Y-23590214D02*
X11726786Y-23590214D01*
X11626786Y-23704500D01*
X11669643Y-23704500D01*
X11698214Y-23718786D01*
X11712500Y-23733071D01*
X11726786Y-23761643D01*
X11726786Y-23833071D01*
X11712500Y-23861643D01*
X11698214Y-23875929D01*
X11669643Y-23890214D01*
X11583928Y-23890214D01*
X11555357Y-23875929D01*
X11541071Y-23861643D01*
X11826786Y-23590214D02*
X12026786Y-23590214D01*
X11898214Y-23890214D01*
X12126786Y-23590214D02*
X12126786Y-23647357D01*
X12241071Y-23590214D02*
X12241071Y-23647357D01*
X12683928Y-24004500D02*
X12669643Y-23990214D01*
X12641071Y-23947357D01*
X12626786Y-23918786D01*
X12612500Y-23875929D01*
X12598214Y-23804500D01*
X12598214Y-23747357D01*
X12612500Y-23675929D01*
X12626786Y-23633071D01*
X12641071Y-23604500D01*
X12669643Y-23561643D01*
X12683928Y-23547357D01*
X12926786Y-23590214D02*
X12869643Y-23590214D01*
X12841071Y-23604500D01*
X12826786Y-23618786D01*
X12798214Y-23661643D01*
X12783928Y-23718786D01*
X12783928Y-23833071D01*
X12798214Y-23861643D01*
X12812500Y-23875929D01*
X12841071Y-23890214D01*
X12898214Y-23890214D01*
X12926786Y-23875929D01*
X12941071Y-23861643D01*
X12955357Y-23833071D01*
X12955357Y-23761643D01*
X12941071Y-23733071D01*
X12926786Y-23718786D01*
X12898214Y-23704500D01*
X12841071Y-23704500D01*
X12812500Y-23718786D01*
X12798214Y-23733071D01*
X12783928Y-23761643D01*
X13312500Y-23890214D02*
X13312500Y-23590214D01*
X13441071Y-23890214D02*
X13441071Y-23733071D01*
X13426786Y-23704500D01*
X13398214Y-23690214D01*
X13355357Y-23690214D01*
X13326786Y-23704500D01*
X13312500Y-23718786D01*
X13626786Y-23890214D02*
X13598214Y-23875929D01*
X13583928Y-23861643D01*
X13569643Y-23833071D01*
X13569643Y-23747357D01*
X13583928Y-23718786D01*
X13598214Y-23704500D01*
X13626786Y-23690214D01*
X13669643Y-23690214D01*
X13698214Y-23704500D01*
X13712500Y-23718786D01*
X13726786Y-23747357D01*
X13726786Y-23833071D01*
X13712500Y-23861643D01*
X13698214Y-23875929D01*
X13669643Y-23890214D01*
X13626786Y-23890214D01*
X13898214Y-23890214D02*
X13869643Y-23875929D01*
X13855357Y-23847357D01*
X13855357Y-23590214D01*
X14126786Y-23875929D02*
X14098214Y-23890214D01*
X14041071Y-23890214D01*
X14012500Y-23875929D01*
X13998214Y-23847357D01*
X13998214Y-23733071D01*
X14012500Y-23704500D01*
X14041071Y-23690214D01*
X14098214Y-23690214D01*
X14126786Y-23704500D01*
X14141071Y-23733071D01*
X14141071Y-23761643D01*
X13998214Y-23790214D01*
X14255357Y-23875929D02*
X14283928Y-23890214D01*
X14341071Y-23890214D01*
X14369643Y-23875929D01*
X14383928Y-23847357D01*
X14383928Y-23833071D01*
X14369643Y-23804500D01*
X14341071Y-23790214D01*
X14298214Y-23790214D01*
X14269643Y-23775929D01*
X14255357Y-23747357D01*
X14255357Y-23733071D01*
X14269643Y-23704500D01*
X14298214Y-23690214D01*
X14341071Y-23690214D01*
X14369643Y-23704500D01*
X14483928Y-24004500D02*
X14498214Y-23990214D01*
X14526786Y-23947357D01*
X14541071Y-23918786D01*
X14555357Y-23875929D01*
X14569643Y-23804500D01*
X14569643Y-23747357D01*
X14555357Y-23675929D01*
X14541071Y-23633071D01*
X14526786Y-23604500D01*
X14498214Y-23561643D01*
X14483928Y-23547357D01*
X7982856Y-24185856D02*
X7982856Y-24115144D01*
X7912144Y-24115144D01*
X7912144Y-24185856D01*
X7982856Y-24185856D01*
X8441071Y-24286214D02*
X8269643Y-24286214D01*
X8355357Y-24286214D02*
X8355357Y-23986214D01*
X8326786Y-24029071D01*
X8298214Y-24057643D01*
X8269643Y-24071929D01*
X8569643Y-24257643D02*
X8583928Y-24271929D01*
X8569643Y-24286214D01*
X8555357Y-24271929D01*
X8569643Y-24257643D01*
X8569643Y-24286214D01*
X8769643Y-23986214D02*
X8798214Y-23986214D01*
X8826786Y-24000500D01*
X8841071Y-24014786D01*
X8855357Y-24043357D01*
X8869643Y-24100500D01*
X8869643Y-24171929D01*
X8855357Y-24229071D01*
X8841071Y-24257643D01*
X8826786Y-24271929D01*
X8798214Y-24286214D01*
X8769643Y-24286214D01*
X8741071Y-24271929D01*
X8726786Y-24257643D01*
X8712500Y-24229071D01*
X8698214Y-24171929D01*
X8698214Y-24100500D01*
X8712500Y-24043357D01*
X8726786Y-24014786D01*
X8741071Y-24000500D01*
X8769643Y-23986214D01*
X9055357Y-23986214D02*
X9083928Y-23986214D01*
X9112500Y-24000500D01*
X9126786Y-24014786D01*
X9141071Y-24043357D01*
X9155357Y-24100500D01*
X9155357Y-24171929D01*
X9141071Y-24229071D01*
X9126786Y-24257643D01*
X9112500Y-24271929D01*
X9083928Y-24286214D01*
X9055357Y-24286214D01*
X9026786Y-24271929D01*
X9012500Y-24257643D01*
X8998214Y-24229071D01*
X8983928Y-24171929D01*
X8983928Y-24100500D01*
X8998214Y-24043357D01*
X9012500Y-24014786D01*
X9026786Y-24000500D01*
X9055357Y-23986214D01*
X9283928Y-24286214D02*
X9283928Y-24086214D01*
X9283928Y-24114786D02*
X9298214Y-24100500D01*
X9326786Y-24086214D01*
X9369643Y-24086214D01*
X9398214Y-24100500D01*
X9412500Y-24129071D01*
X9412500Y-24286214D01*
X9412500Y-24129071D02*
X9426786Y-24100500D01*
X9455357Y-24086214D01*
X9498214Y-24086214D01*
X9526786Y-24100500D01*
X9541071Y-24129071D01*
X9541071Y-24286214D01*
X9683928Y-24286214D02*
X9683928Y-24086214D01*
X9683928Y-24114786D02*
X9698214Y-24100500D01*
X9726786Y-24086214D01*
X9769643Y-24086214D01*
X9798214Y-24100500D01*
X9812500Y-24129071D01*
X9812500Y-24286214D01*
X9812500Y-24129071D02*
X9826786Y-24100500D01*
X9855357Y-24086214D01*
X9898214Y-24086214D01*
X9926786Y-24100500D01*
X9941071Y-24129071D01*
X9941071Y-24286214D01*
X10526786Y-23971929D02*
X10269643Y-24357643D01*
X10912500Y-23986214D02*
X10941071Y-23986214D01*
X10969643Y-24000500D01*
X10983928Y-24014786D01*
X10998214Y-24043357D01*
X11012500Y-24100500D01*
X11012500Y-24171929D01*
X10998214Y-24229071D01*
X10983928Y-24257643D01*
X10969643Y-24271929D01*
X10941071Y-24286214D01*
X10912500Y-24286214D01*
X10883928Y-24271929D01*
X10869643Y-24257643D01*
X10855357Y-24229071D01*
X10841071Y-24171929D01*
X10841071Y-24100500D01*
X10855357Y-24043357D01*
X10869643Y-24014786D01*
X10883928Y-24000500D01*
X10912500Y-23986214D01*
X11141071Y-24257643D02*
X11155357Y-24271929D01*
X11141071Y-24286214D01*
X11126786Y-24271929D01*
X11141071Y-24257643D01*
X11141071Y-24286214D01*
X11341071Y-23986214D02*
X11369643Y-23986214D01*
X11398214Y-24000500D01*
X11412500Y-24014786D01*
X11426786Y-24043357D01*
X11441071Y-24100500D01*
X11441071Y-24171929D01*
X11426786Y-24229071D01*
X11412500Y-24257643D01*
X11398214Y-24271929D01*
X11369643Y-24286214D01*
X11341071Y-24286214D01*
X11312500Y-24271929D01*
X11298214Y-24257643D01*
X11283928Y-24229071D01*
X11269643Y-24171929D01*
X11269643Y-24100500D01*
X11283928Y-24043357D01*
X11298214Y-24014786D01*
X11312500Y-24000500D01*
X11341071Y-23986214D01*
X11541071Y-23986214D02*
X11726786Y-23986214D01*
X11626786Y-24100500D01*
X11669643Y-24100500D01*
X11698214Y-24114786D01*
X11712500Y-24129071D01*
X11726786Y-24157643D01*
X11726786Y-24229071D01*
X11712500Y-24257643D01*
X11698214Y-24271929D01*
X11669643Y-24286214D01*
X11583928Y-24286214D01*
X11555357Y-24271929D01*
X11541071Y-24257643D01*
X11869643Y-24286214D02*
X11926786Y-24286214D01*
X11955357Y-24271929D01*
X11969643Y-24257643D01*
X11998214Y-24214786D01*
X12012500Y-24157643D01*
X12012500Y-24043357D01*
X11998214Y-24014786D01*
X11983928Y-24000500D01*
X11955357Y-23986214D01*
X11898214Y-23986214D01*
X11869643Y-24000500D01*
X11855357Y-24014786D01*
X11841071Y-24043357D01*
X11841071Y-24114786D01*
X11855357Y-24143357D01*
X11869643Y-24157643D01*
X11898214Y-24171929D01*
X11955357Y-24171929D01*
X11983928Y-24157643D01*
X11998214Y-24143357D01*
X12012500Y-24114786D01*
X12126786Y-23986214D02*
X12126786Y-24043357D01*
X12241071Y-23986214D02*
X12241071Y-24043357D01*
X12683928Y-24400500D02*
X12669643Y-24386214D01*
X12641071Y-24343357D01*
X12626786Y-24314786D01*
X12612500Y-24271929D01*
X12598214Y-24200500D01*
X12598214Y-24143357D01*
X12612500Y-24071929D01*
X12626786Y-24029071D01*
X12641071Y-24000500D01*
X12669643Y-23957643D01*
X12683928Y-23943357D01*
X12926786Y-24086214D02*
X12926786Y-24286214D01*
X12855357Y-23971929D02*
X12783928Y-24186214D01*
X12969643Y-24186214D01*
X13312500Y-24286214D02*
X13312500Y-23986214D01*
X13441071Y-24286214D02*
X13441071Y-24129071D01*
X13426786Y-24100500D01*
X13398214Y-24086214D01*
X13355357Y-24086214D01*
X13326786Y-24100500D01*
X13312500Y-24114786D01*
X13626786Y-24286214D02*
X13598214Y-24271929D01*
X13583928Y-24257643D01*
X13569643Y-24229071D01*
X13569643Y-24143357D01*
X13583928Y-24114786D01*
X13598214Y-24100500D01*
X13626786Y-24086214D01*
X13669643Y-24086214D01*
X13698214Y-24100500D01*
X13712500Y-24114786D01*
X13726786Y-24143357D01*
X13726786Y-24229071D01*
X13712500Y-24257643D01*
X13698214Y-24271929D01*
X13669643Y-24286214D01*
X13626786Y-24286214D01*
X13898214Y-24286214D02*
X13869643Y-24271929D01*
X13855357Y-24243357D01*
X13855357Y-23986214D01*
X14126786Y-24271929D02*
X14098214Y-24286214D01*
X14041071Y-24286214D01*
X14012500Y-24271929D01*
X13998214Y-24243357D01*
X13998214Y-24129071D01*
X14012500Y-24100500D01*
X14041071Y-24086214D01*
X14098214Y-24086214D01*
X14126786Y-24100500D01*
X14141071Y-24129071D01*
X14141071Y-24157643D01*
X13998214Y-24186214D01*
X14255357Y-24271929D02*
X14283928Y-24286214D01*
X14341071Y-24286214D01*
X14369643Y-24271929D01*
X14383928Y-24243357D01*
X14383928Y-24229071D01*
X14369643Y-24200500D01*
X14341071Y-24186214D01*
X14298214Y-24186214D01*
X14269643Y-24171929D01*
X14255357Y-24143357D01*
X14255357Y-24129071D01*
X14269643Y-24100500D01*
X14298214Y-24086214D01*
X14341071Y-24086214D01*
X14369643Y-24100500D01*
X14483928Y-24400500D02*
X14498214Y-24386214D01*
X14526786Y-24343357D01*
X14541071Y-24314786D01*
X14555357Y-24271929D01*
X14569643Y-24200500D01*
X14569643Y-24143357D01*
X14555357Y-24071929D01*
X14541071Y-24029071D01*
X14526786Y-24000500D01*
X14498214Y-23957643D01*
X14483928Y-23943357D01*
M02*
