M48
; DRILL file {KiCad (5.1.10)-1} date 10/24/21 10:48:32
; FORMAT={-:-/ absolute / metric / decimal}
; #@! TF.CreationDate,2021-10-24T10:48:32+02:00
; #@! TF.GenerationSoftware,Kicad,Pcbnew,(5.1.10)-1
FMAT,2
METRIC
T1C0.300
T2C0.400
T3C0.950
%
G90
G05
T1
X101.1Y-148.4
X112.55Y-122.05
X112.55Y-132.05
X112.55Y-142.05
X112.55Y-152.05
X112.55Y-162.05
X112.6Y-172.0
X122.55Y-112.05
X122.55Y-122.05
X122.55Y-132.05
X122.55Y-141.55
X122.55Y-152.05
X122.55Y-162.05
X122.55Y-172.05
X122.55Y-182.05
X131.1Y-123.4
X132.55Y-112.05
X132.55Y-132.05
X132.55Y-141.55
X132.55Y-152.05
X132.55Y-162.05
X132.55Y-172.05
X132.55Y-182.05
X141.1Y-133.4
X142.5Y-141.5
X142.5Y-182.0
X142.55Y-112.05
X142.55Y-122.05
X142.55Y-152.05
X142.55Y-162.05
X142.55Y-172.05
X145.0Y-143.5
X147.55Y-102.05
X147.55Y-192.05
X152.5Y-141.5
X152.5Y-172.0
X152.5Y-182.0
X152.55Y-112.05
X152.55Y-122.05
X152.55Y-132.05
X152.55Y-152.05
X152.55Y-162.05
X162.55Y-112.05
X162.55Y-122.05
X162.55Y-132.05
X162.55Y-142.05
X162.55Y-152.05
X162.55Y-162.05
X162.55Y-172.05
X162.55Y-182.05
X171.1Y-133.4
X172.5Y-112.0
X172.55Y-122.05
X172.55Y-152.05
X172.55Y-162.05
X172.55Y-171.55
X172.55Y-182.05
X181.1Y-123.4
X182.55Y-132.05
X182.55Y-142.05
X182.55Y-152.05
X182.55Y-162.05
X182.55Y-172.05
X192.55Y-146.55
T2
X172.55Y-142.05
T3
X90.5Y-145.0
X90.5Y-147.5
X90.5Y-150.0
T0
M30
