G04 #@! TF.GenerationSoftware,KiCad,Pcbnew,(5.1.10)-1*
G04 #@! TF.CreationDate,2021-10-24T10:48:28+02:00*
G04 #@! TF.ProjectId,amepl_led,616d6570-6c5f-46c6-9564-2e6b69636164,rev?*
G04 #@! TF.SameCoordinates,Original*
G04 #@! TF.FileFunction,Soldermask,Bot*
G04 #@! TF.FilePolarity,Negative*
%FSLAX46Y46*%
G04 Gerber Fmt 4.6, Leading zero omitted, Abs format (unit mm)*
G04 Created by KiCad (PCBNEW (5.1.10)-1) date 2021-10-24 10:48:28*
%MOMM*%
%LPD*%
G01*
G04 APERTURE LIST*
%ADD10O,2.052000X1.802000*%
%ADD11C,0.100000*%
G04 APERTURE END LIST*
D10*
X90500000Y-145000000D03*
X90500000Y-147500000D03*
G36*
G01*
X91261000Y-150901000D02*
X89739000Y-150901000D01*
G75*
G02*
X89474000Y-150636000I0J265000D01*
G01*
X89474000Y-149364000D01*
G75*
G02*
X89739000Y-149099000I265000J0D01*
G01*
X91261000Y-149099000D01*
G75*
G02*
X91526000Y-149364000I0J-265000D01*
G01*
X91526000Y-150636000D01*
G75*
G02*
X91261000Y-150901000I-265000J0D01*
G01*
G37*
D11*
G36*
X89475990Y-150635804D02*
G01*
X89481062Y-150687304D01*
X89496029Y-150736642D01*
X89520332Y-150782110D01*
X89553038Y-150821962D01*
X89592890Y-150854668D01*
X89638358Y-150878971D01*
X89687696Y-150893938D01*
X89739196Y-150899010D01*
X89740822Y-150900175D01*
X89740626Y-150902165D01*
X89739000Y-150903000D01*
X89656903Y-150903000D01*
X89656707Y-150902990D01*
X89616204Y-150899001D01*
X89615819Y-150898925D01*
X89582767Y-150888899D01*
X89582405Y-150888749D01*
X89551954Y-150872472D01*
X89551628Y-150872254D01*
X89524932Y-150850345D01*
X89524655Y-150850068D01*
X89502746Y-150823372D01*
X89502528Y-150823046D01*
X89486251Y-150792595D01*
X89486101Y-150792233D01*
X89476075Y-150759181D01*
X89475999Y-150758796D01*
X89472010Y-150718293D01*
X89472000Y-150718097D01*
X89472000Y-150636000D01*
X89473000Y-150634268D01*
X89475000Y-150634268D01*
X89475990Y-150635804D01*
G37*
G36*
X91527165Y-150634374D02*
G01*
X91528000Y-150636000D01*
X91528000Y-150718097D01*
X91527990Y-150718293D01*
X91524001Y-150758796D01*
X91523925Y-150759181D01*
X91513899Y-150792233D01*
X91513749Y-150792595D01*
X91497472Y-150823046D01*
X91497254Y-150823372D01*
X91475345Y-150850068D01*
X91475068Y-150850345D01*
X91448372Y-150872254D01*
X91448046Y-150872472D01*
X91417595Y-150888749D01*
X91417233Y-150888899D01*
X91384181Y-150898925D01*
X91383796Y-150899001D01*
X91343293Y-150902990D01*
X91343097Y-150903000D01*
X91261000Y-150903000D01*
X91259268Y-150902000D01*
X91259268Y-150900000D01*
X91260804Y-150899010D01*
X91312304Y-150893938D01*
X91361642Y-150878971D01*
X91407110Y-150854668D01*
X91446962Y-150821962D01*
X91479668Y-150782110D01*
X91503971Y-150736642D01*
X91518938Y-150687304D01*
X91524010Y-150635804D01*
X91525175Y-150634178D01*
X91527165Y-150634374D01*
G37*
G36*
X89740732Y-149098000D02*
G01*
X89740732Y-149100000D01*
X89739196Y-149100990D01*
X89687696Y-149106062D01*
X89638358Y-149121029D01*
X89592890Y-149145332D01*
X89553038Y-149178038D01*
X89520332Y-149217890D01*
X89496029Y-149263358D01*
X89481062Y-149312696D01*
X89475990Y-149364196D01*
X89474825Y-149365822D01*
X89472835Y-149365626D01*
X89472000Y-149364000D01*
X89472000Y-149281903D01*
X89472010Y-149281707D01*
X89475999Y-149241204D01*
X89476075Y-149240819D01*
X89486101Y-149207767D01*
X89486251Y-149207405D01*
X89502528Y-149176954D01*
X89502746Y-149176628D01*
X89524655Y-149149932D01*
X89524932Y-149149655D01*
X89551628Y-149127746D01*
X89551954Y-149127528D01*
X89582405Y-149111251D01*
X89582767Y-149111101D01*
X89615819Y-149101075D01*
X89616204Y-149100999D01*
X89656707Y-149097010D01*
X89656903Y-149097000D01*
X89739000Y-149097000D01*
X89740732Y-149098000D01*
G37*
G36*
X91343293Y-149097010D02*
G01*
X91383796Y-149100999D01*
X91384181Y-149101075D01*
X91417233Y-149111101D01*
X91417595Y-149111251D01*
X91448046Y-149127528D01*
X91448372Y-149127746D01*
X91475068Y-149149655D01*
X91475345Y-149149932D01*
X91497254Y-149176628D01*
X91497472Y-149176954D01*
X91513749Y-149207405D01*
X91513899Y-149207767D01*
X91523925Y-149240819D01*
X91524001Y-149241204D01*
X91527990Y-149281707D01*
X91528000Y-149281903D01*
X91528000Y-149364000D01*
X91527000Y-149365732D01*
X91525000Y-149365732D01*
X91524010Y-149364196D01*
X91518938Y-149312696D01*
X91503971Y-149263358D01*
X91479668Y-149217890D01*
X91446962Y-149178038D01*
X91407110Y-149145332D01*
X91361642Y-149121029D01*
X91312304Y-149106062D01*
X91260804Y-149100990D01*
X91259178Y-149099825D01*
X91259374Y-149097835D01*
X91261000Y-149097000D01*
X91343097Y-149097000D01*
X91343293Y-149097010D01*
G37*
M02*
