G04 #@! TF.GenerationSoftware,KiCad,Pcbnew,(5.1.10)-1*
G04 #@! TF.CreationDate,2021-10-24T10:48:28+02:00*
G04 #@! TF.ProjectId,amepl_led,616d6570-6c5f-46c6-9564-2e6b69636164,rev?*
G04 #@! TF.SameCoordinates,Original*
G04 #@! TF.FileFunction,Paste,Top*
G04 #@! TF.FilePolarity,Positive*
%FSLAX46Y46*%
G04 Gerber Fmt 4.6, Leading zero omitted, Abs format (unit mm)*
G04 Created by KiCad (PCBNEW (5.1.10)-1) date 2021-10-24 10:48:28*
%MOMM*%
%LPD*%
G01*
G04 APERTURE LIST*
%ADD10R,1.500000X1.000000*%
G04 APERTURE END LIST*
G36*
G01*
X98750000Y-149525000D02*
X98750000Y-150475000D01*
G75*
G02*
X98500000Y-150725000I-250000J0D01*
G01*
X97825000Y-150725000D01*
G75*
G02*
X97575000Y-150475000I0J250000D01*
G01*
X97575000Y-149525000D01*
G75*
G02*
X97825000Y-149275000I250000J0D01*
G01*
X98500000Y-149275000D01*
G75*
G02*
X98750000Y-149525000I0J-250000D01*
G01*
G37*
G36*
G01*
X100825000Y-149525000D02*
X100825000Y-150475000D01*
G75*
G02*
X100575000Y-150725000I-250000J0D01*
G01*
X99900000Y-150725000D01*
G75*
G02*
X99650000Y-150475000I0J250000D01*
G01*
X99650000Y-149525000D01*
G75*
G02*
X99900000Y-149275000I250000J0D01*
G01*
X100575000Y-149275000D01*
G75*
G02*
X100825000Y-149525000I0J-250000D01*
G01*
G37*
G36*
G01*
X169587500Y-179925000D02*
X169587500Y-180875000D01*
G75*
G02*
X169337500Y-181125000I-250000J0D01*
G01*
X168662500Y-181125000D01*
G75*
G02*
X168412500Y-180875000I0J250000D01*
G01*
X168412500Y-179925000D01*
G75*
G02*
X168662500Y-179675000I250000J0D01*
G01*
X169337500Y-179675000D01*
G75*
G02*
X169587500Y-179925000I0J-250000D01*
G01*
G37*
G36*
G01*
X171662500Y-179925000D02*
X171662500Y-180875000D01*
G75*
G02*
X171412500Y-181125000I-250000J0D01*
G01*
X170737500Y-181125000D01*
G75*
G02*
X170487500Y-180875000I0J250000D01*
G01*
X170487500Y-179925000D01*
G75*
G02*
X170737500Y-179675000I250000J0D01*
G01*
X171412500Y-179675000D01*
G75*
G02*
X171662500Y-179925000I0J-250000D01*
G01*
G37*
G36*
G01*
X145150000Y-190125000D02*
X145150000Y-191075000D01*
G75*
G02*
X144900000Y-191325000I-250000J0D01*
G01*
X144225000Y-191325000D01*
G75*
G02*
X143975000Y-191075000I0J250000D01*
G01*
X143975000Y-190125000D01*
G75*
G02*
X144225000Y-189875000I250000J0D01*
G01*
X144900000Y-189875000D01*
G75*
G02*
X145150000Y-190125000I0J-250000D01*
G01*
G37*
G36*
G01*
X147225000Y-190125000D02*
X147225000Y-191075000D01*
G75*
G02*
X146975000Y-191325000I-250000J0D01*
G01*
X146300000Y-191325000D01*
G75*
G02*
X146050000Y-191075000I0J250000D01*
G01*
X146050000Y-190125000D01*
G75*
G02*
X146300000Y-189875000I250000J0D01*
G01*
X146975000Y-189875000D01*
G75*
G02*
X147225000Y-190125000I0J-250000D01*
G01*
G37*
G36*
G01*
X159550000Y-179925000D02*
X159550000Y-180875000D01*
G75*
G02*
X159300000Y-181125000I-250000J0D01*
G01*
X158625000Y-181125000D01*
G75*
G02*
X158375000Y-180875000I0J250000D01*
G01*
X158375000Y-179925000D01*
G75*
G02*
X158625000Y-179675000I250000J0D01*
G01*
X159300000Y-179675000D01*
G75*
G02*
X159550000Y-179925000I0J-250000D01*
G01*
G37*
G36*
G01*
X161625000Y-179925000D02*
X161625000Y-180875000D01*
G75*
G02*
X161375000Y-181125000I-250000J0D01*
G01*
X160700000Y-181125000D01*
G75*
G02*
X160450000Y-180875000I0J250000D01*
G01*
X160450000Y-179925000D01*
G75*
G02*
X160700000Y-179675000I250000J0D01*
G01*
X161375000Y-179675000D01*
G75*
G02*
X161625000Y-179925000I0J-250000D01*
G01*
G37*
G36*
G01*
X162475000Y-119550000D02*
X161525000Y-119550000D01*
G75*
G02*
X161275000Y-119300000I0J250000D01*
G01*
X161275000Y-118625000D01*
G75*
G02*
X161525000Y-118375000I250000J0D01*
G01*
X162475000Y-118375000D01*
G75*
G02*
X162725000Y-118625000I0J-250000D01*
G01*
X162725000Y-119300000D01*
G75*
G02*
X162475000Y-119550000I-250000J0D01*
G01*
G37*
G36*
G01*
X162475000Y-121625000D02*
X161525000Y-121625000D01*
G75*
G02*
X161275000Y-121375000I0J250000D01*
G01*
X161275000Y-120700000D01*
G75*
G02*
X161525000Y-120450000I250000J0D01*
G01*
X162475000Y-120450000D01*
G75*
G02*
X162725000Y-120700000I0J-250000D01*
G01*
X162725000Y-121375000D01*
G75*
G02*
X162475000Y-121625000I-250000J0D01*
G01*
G37*
G36*
G01*
X169550000Y-140000000D02*
X169550000Y-140950000D01*
G75*
G02*
X169300000Y-141200000I-250000J0D01*
G01*
X168625000Y-141200000D01*
G75*
G02*
X168375000Y-140950000I0J250000D01*
G01*
X168375000Y-140000000D01*
G75*
G02*
X168625000Y-139750000I250000J0D01*
G01*
X169300000Y-139750000D01*
G75*
G02*
X169550000Y-140000000I0J-250000D01*
G01*
G37*
G36*
G01*
X171625000Y-140000000D02*
X171625000Y-140950000D01*
G75*
G02*
X171375000Y-141200000I-250000J0D01*
G01*
X170700000Y-141200000D01*
G75*
G02*
X170450000Y-140950000I0J250000D01*
G01*
X170450000Y-140000000D01*
G75*
G02*
X170700000Y-139750000I250000J0D01*
G01*
X171375000Y-139750000D01*
G75*
G02*
X171625000Y-140000000I0J-250000D01*
G01*
G37*
G36*
G01*
X120150000Y-169925000D02*
X120150000Y-170875000D01*
G75*
G02*
X119900000Y-171125000I-250000J0D01*
G01*
X119225000Y-171125000D01*
G75*
G02*
X118975000Y-170875000I0J250000D01*
G01*
X118975000Y-169925000D01*
G75*
G02*
X119225000Y-169675000I250000J0D01*
G01*
X119900000Y-169675000D01*
G75*
G02*
X120150000Y-169925000I0J-250000D01*
G01*
G37*
G36*
G01*
X122225000Y-169925000D02*
X122225000Y-170875000D01*
G75*
G02*
X121975000Y-171125000I-250000J0D01*
G01*
X121300000Y-171125000D01*
G75*
G02*
X121050000Y-170875000I0J250000D01*
G01*
X121050000Y-169925000D01*
G75*
G02*
X121300000Y-169675000I250000J0D01*
G01*
X121975000Y-169675000D01*
G75*
G02*
X122225000Y-169925000I0J-250000D01*
G01*
G37*
G36*
G01*
X112075000Y-160025000D02*
X112075000Y-160975000D01*
G75*
G02*
X111825000Y-161225000I-250000J0D01*
G01*
X111150000Y-161225000D01*
G75*
G02*
X110900000Y-160975000I0J250000D01*
G01*
X110900000Y-160025000D01*
G75*
G02*
X111150000Y-159775000I250000J0D01*
G01*
X111825000Y-159775000D01*
G75*
G02*
X112075000Y-160025000I0J-250000D01*
G01*
G37*
G36*
G01*
X114150000Y-160025000D02*
X114150000Y-160975000D01*
G75*
G02*
X113900000Y-161225000I-250000J0D01*
G01*
X113225000Y-161225000D01*
G75*
G02*
X112975000Y-160975000I0J250000D01*
G01*
X112975000Y-160025000D01*
G75*
G02*
X113225000Y-159775000I250000J0D01*
G01*
X113900000Y-159775000D01*
G75*
G02*
X114150000Y-160025000I0J-250000D01*
G01*
G37*
G36*
G01*
X149375000Y-169725000D02*
X149375000Y-170675000D01*
G75*
G02*
X149125000Y-170925000I-250000J0D01*
G01*
X148450000Y-170925000D01*
G75*
G02*
X148200000Y-170675000I0J250000D01*
G01*
X148200000Y-169725000D01*
G75*
G02*
X148450000Y-169475000I250000J0D01*
G01*
X149125000Y-169475000D01*
G75*
G02*
X149375000Y-169725000I0J-250000D01*
G01*
G37*
G36*
G01*
X151450000Y-169725000D02*
X151450000Y-170675000D01*
G75*
G02*
X151200000Y-170925000I-250000J0D01*
G01*
X150525000Y-170925000D01*
G75*
G02*
X150275000Y-170675000I0J250000D01*
G01*
X150275000Y-169725000D01*
G75*
G02*
X150525000Y-169475000I250000J0D01*
G01*
X151200000Y-169475000D01*
G75*
G02*
X151450000Y-169725000I0J-250000D01*
G01*
G37*
G36*
G01*
X131050000Y-150025000D02*
X131050000Y-150975000D01*
G75*
G02*
X130800000Y-151225000I-250000J0D01*
G01*
X130125000Y-151225000D01*
G75*
G02*
X129875000Y-150975000I0J250000D01*
G01*
X129875000Y-150025000D01*
G75*
G02*
X130125000Y-149775000I250000J0D01*
G01*
X130800000Y-149775000D01*
G75*
G02*
X131050000Y-150025000I0J-250000D01*
G01*
G37*
G36*
G01*
X133125000Y-150025000D02*
X133125000Y-150975000D01*
G75*
G02*
X132875000Y-151225000I-250000J0D01*
G01*
X132200000Y-151225000D01*
G75*
G02*
X131950000Y-150975000I0J250000D01*
G01*
X131950000Y-150025000D01*
G75*
G02*
X132200000Y-149775000I250000J0D01*
G01*
X132875000Y-149775000D01*
G75*
G02*
X133125000Y-150025000I0J-250000D01*
G01*
G37*
G36*
G01*
X151475000Y-139575000D02*
X150525000Y-139575000D01*
G75*
G02*
X150275000Y-139325000I0J250000D01*
G01*
X150275000Y-138650000D01*
G75*
G02*
X150525000Y-138400000I250000J0D01*
G01*
X151475000Y-138400000D01*
G75*
G02*
X151725000Y-138650000I0J-250000D01*
G01*
X151725000Y-139325000D01*
G75*
G02*
X151475000Y-139575000I-250000J0D01*
G01*
G37*
G36*
G01*
X151475000Y-141650000D02*
X150525000Y-141650000D01*
G75*
G02*
X150275000Y-141400000I0J250000D01*
G01*
X150275000Y-140725000D01*
G75*
G02*
X150525000Y-140475000I250000J0D01*
G01*
X151475000Y-140475000D01*
G75*
G02*
X151725000Y-140725000I0J-250000D01*
G01*
X151725000Y-141400000D01*
G75*
G02*
X151475000Y-141650000I-250000J0D01*
G01*
G37*
G36*
G01*
X159575000Y-160025000D02*
X159575000Y-160975000D01*
G75*
G02*
X159325000Y-161225000I-250000J0D01*
G01*
X158650000Y-161225000D01*
G75*
G02*
X158400000Y-160975000I0J250000D01*
G01*
X158400000Y-160025000D01*
G75*
G02*
X158650000Y-159775000I250000J0D01*
G01*
X159325000Y-159775000D01*
G75*
G02*
X159575000Y-160025000I0J-250000D01*
G01*
G37*
G36*
G01*
X161650000Y-160025000D02*
X161650000Y-160975000D01*
G75*
G02*
X161400000Y-161225000I-250000J0D01*
G01*
X160725000Y-161225000D01*
G75*
G02*
X160475000Y-160975000I0J250000D01*
G01*
X160475000Y-160025000D01*
G75*
G02*
X160725000Y-159775000I250000J0D01*
G01*
X161400000Y-159775000D01*
G75*
G02*
X161650000Y-160025000I0J-250000D01*
G01*
G37*
G36*
G01*
X159550000Y-150025000D02*
X159550000Y-150975000D01*
G75*
G02*
X159300000Y-151225000I-250000J0D01*
G01*
X158625000Y-151225000D01*
G75*
G02*
X158375000Y-150975000I0J250000D01*
G01*
X158375000Y-150025000D01*
G75*
G02*
X158625000Y-149775000I250000J0D01*
G01*
X159300000Y-149775000D01*
G75*
G02*
X159550000Y-150025000I0J-250000D01*
G01*
G37*
G36*
G01*
X161625000Y-150025000D02*
X161625000Y-150975000D01*
G75*
G02*
X161375000Y-151225000I-250000J0D01*
G01*
X160700000Y-151225000D01*
G75*
G02*
X160450000Y-150975000I0J250000D01*
G01*
X160450000Y-150025000D01*
G75*
G02*
X160700000Y-149775000I250000J0D01*
G01*
X161375000Y-149775000D01*
G75*
G02*
X161625000Y-150025000I0J-250000D01*
G01*
G37*
G36*
G01*
X169550000Y-169725000D02*
X169550000Y-170675000D01*
G75*
G02*
X169300000Y-170925000I-250000J0D01*
G01*
X168625000Y-170925000D01*
G75*
G02*
X168375000Y-170675000I0J250000D01*
G01*
X168375000Y-169725000D01*
G75*
G02*
X168625000Y-169475000I250000J0D01*
G01*
X169300000Y-169475000D01*
G75*
G02*
X169550000Y-169725000I0J-250000D01*
G01*
G37*
G36*
G01*
X171625000Y-169725000D02*
X171625000Y-170675000D01*
G75*
G02*
X171375000Y-170925000I-250000J0D01*
G01*
X170700000Y-170925000D01*
G75*
G02*
X170450000Y-170675000I0J250000D01*
G01*
X170450000Y-169725000D01*
G75*
G02*
X170700000Y-169475000I250000J0D01*
G01*
X171375000Y-169475000D01*
G75*
G02*
X171625000Y-169725000I0J-250000D01*
G01*
G37*
G36*
G01*
X129375000Y-169925000D02*
X129375000Y-170875000D01*
G75*
G02*
X129125000Y-171125000I-250000J0D01*
G01*
X128450000Y-171125000D01*
G75*
G02*
X128200000Y-170875000I0J250000D01*
G01*
X128200000Y-169925000D01*
G75*
G02*
X128450000Y-169675000I250000J0D01*
G01*
X129125000Y-169675000D01*
G75*
G02*
X129375000Y-169925000I0J-250000D01*
G01*
G37*
G36*
G01*
X131450000Y-169925000D02*
X131450000Y-170875000D01*
G75*
G02*
X131200000Y-171125000I-250000J0D01*
G01*
X130525000Y-171125000D01*
G75*
G02*
X130275000Y-170875000I0J250000D01*
G01*
X130275000Y-169925000D01*
G75*
G02*
X130525000Y-169675000I250000J0D01*
G01*
X131200000Y-169675000D01*
G75*
G02*
X131450000Y-169925000I0J-250000D01*
G01*
G37*
G36*
G01*
X159575000Y-140525000D02*
X159575000Y-141475000D01*
G75*
G02*
X159325000Y-141725000I-250000J0D01*
G01*
X158650000Y-141725000D01*
G75*
G02*
X158400000Y-141475000I0J250000D01*
G01*
X158400000Y-140525000D01*
G75*
G02*
X158650000Y-140275000I250000J0D01*
G01*
X159325000Y-140275000D01*
G75*
G02*
X159575000Y-140525000I0J-250000D01*
G01*
G37*
G36*
G01*
X161650000Y-140525000D02*
X161650000Y-141475000D01*
G75*
G02*
X161400000Y-141725000I-250000J0D01*
G01*
X160725000Y-141725000D01*
G75*
G02*
X160475000Y-141475000I0J250000D01*
G01*
X160475000Y-140525000D01*
G75*
G02*
X160725000Y-140275000I250000J0D01*
G01*
X161400000Y-140275000D01*
G75*
G02*
X161650000Y-140525000I0J-250000D01*
G01*
G37*
G36*
G01*
X170075000Y-130525000D02*
X170075000Y-131475000D01*
G75*
G02*
X169825000Y-131725000I-250000J0D01*
G01*
X169150000Y-131725000D01*
G75*
G02*
X168900000Y-131475000I0J250000D01*
G01*
X168900000Y-130525000D01*
G75*
G02*
X169150000Y-130275000I250000J0D01*
G01*
X169825000Y-130275000D01*
G75*
G02*
X170075000Y-130525000I0J-250000D01*
G01*
G37*
G36*
G01*
X172150000Y-130525000D02*
X172150000Y-131475000D01*
G75*
G02*
X171900000Y-131725000I-250000J0D01*
G01*
X171225000Y-131725000D01*
G75*
G02*
X170975000Y-131475000I0J250000D01*
G01*
X170975000Y-130525000D01*
G75*
G02*
X171225000Y-130275000I250000J0D01*
G01*
X171900000Y-130275000D01*
G75*
G02*
X172150000Y-130525000I0J-250000D01*
G01*
G37*
G36*
G01*
X191075000Y-144525000D02*
X191075000Y-145475000D01*
G75*
G02*
X190825000Y-145725000I-250000J0D01*
G01*
X190150000Y-145725000D01*
G75*
G02*
X189900000Y-145475000I0J250000D01*
G01*
X189900000Y-144525000D01*
G75*
G02*
X190150000Y-144275000I250000J0D01*
G01*
X190825000Y-144275000D01*
G75*
G02*
X191075000Y-144525000I0J-250000D01*
G01*
G37*
G36*
G01*
X193150000Y-144525000D02*
X193150000Y-145475000D01*
G75*
G02*
X192900000Y-145725000I-250000J0D01*
G01*
X192225000Y-145725000D01*
G75*
G02*
X191975000Y-145475000I0J250000D01*
G01*
X191975000Y-144525000D01*
G75*
G02*
X192225000Y-144275000I250000J0D01*
G01*
X192900000Y-144275000D01*
G75*
G02*
X193150000Y-144525000I0J-250000D01*
G01*
G37*
G36*
G01*
X139375000Y-179725000D02*
X139375000Y-180675000D01*
G75*
G02*
X139125000Y-180925000I-250000J0D01*
G01*
X138450000Y-180925000D01*
G75*
G02*
X138200000Y-180675000I0J250000D01*
G01*
X138200000Y-179725000D01*
G75*
G02*
X138450000Y-179475000I250000J0D01*
G01*
X139125000Y-179475000D01*
G75*
G02*
X139375000Y-179725000I0J-250000D01*
G01*
G37*
G36*
G01*
X141450000Y-179725000D02*
X141450000Y-180675000D01*
G75*
G02*
X141200000Y-180925000I-250000J0D01*
G01*
X140525000Y-180925000D01*
G75*
G02*
X140275000Y-180675000I0J250000D01*
G01*
X140275000Y-179725000D01*
G75*
G02*
X140525000Y-179475000I250000J0D01*
G01*
X141200000Y-179475000D01*
G75*
G02*
X141450000Y-179725000I0J-250000D01*
G01*
G37*
G36*
G01*
X112950000Y-150975000D02*
X112950000Y-150025000D01*
G75*
G02*
X113200000Y-149775000I250000J0D01*
G01*
X113875000Y-149775000D01*
G75*
G02*
X114125000Y-150025000I0J-250000D01*
G01*
X114125000Y-150975000D01*
G75*
G02*
X113875000Y-151225000I-250000J0D01*
G01*
X113200000Y-151225000D01*
G75*
G02*
X112950000Y-150975000I0J250000D01*
G01*
G37*
G36*
G01*
X110875000Y-150975000D02*
X110875000Y-150025000D01*
G75*
G02*
X111125000Y-149775000I250000J0D01*
G01*
X111800000Y-149775000D01*
G75*
G02*
X112050000Y-150025000I0J-250000D01*
G01*
X112050000Y-150975000D01*
G75*
G02*
X111800000Y-151225000I-250000J0D01*
G01*
X111125000Y-151225000D01*
G75*
G02*
X110875000Y-150975000I0J250000D01*
G01*
G37*
G36*
G01*
X159325000Y-169725000D02*
X159325000Y-170675000D01*
G75*
G02*
X159075000Y-170925000I-250000J0D01*
G01*
X158400000Y-170925000D01*
G75*
G02*
X158150000Y-170675000I0J250000D01*
G01*
X158150000Y-169725000D01*
G75*
G02*
X158400000Y-169475000I250000J0D01*
G01*
X159075000Y-169475000D01*
G75*
G02*
X159325000Y-169725000I0J-250000D01*
G01*
G37*
G36*
G01*
X161400000Y-169725000D02*
X161400000Y-170675000D01*
G75*
G02*
X161150000Y-170925000I-250000J0D01*
G01*
X160475000Y-170925000D01*
G75*
G02*
X160225000Y-170675000I0J250000D01*
G01*
X160225000Y-169725000D01*
G75*
G02*
X160475000Y-169475000I250000J0D01*
G01*
X161150000Y-169475000D01*
G75*
G02*
X161400000Y-169725000I0J-250000D01*
G01*
G37*
G36*
G01*
X149550000Y-160025000D02*
X149550000Y-160975000D01*
G75*
G02*
X149300000Y-161225000I-250000J0D01*
G01*
X148625000Y-161225000D01*
G75*
G02*
X148375000Y-160975000I0J250000D01*
G01*
X148375000Y-160025000D01*
G75*
G02*
X148625000Y-159775000I250000J0D01*
G01*
X149300000Y-159775000D01*
G75*
G02*
X149550000Y-160025000I0J-250000D01*
G01*
G37*
G36*
G01*
X151625000Y-160025000D02*
X151625000Y-160975000D01*
G75*
G02*
X151375000Y-161225000I-250000J0D01*
G01*
X150700000Y-161225000D01*
G75*
G02*
X150450000Y-160975000I0J250000D01*
G01*
X150450000Y-160025000D01*
G75*
G02*
X150700000Y-159775000I250000J0D01*
G01*
X151375000Y-159775000D01*
G75*
G02*
X151625000Y-160025000I0J-250000D01*
G01*
G37*
G36*
G01*
X179525000Y-130525000D02*
X179525000Y-131475000D01*
G75*
G02*
X179275000Y-131725000I-250000J0D01*
G01*
X178600000Y-131725000D01*
G75*
G02*
X178350000Y-131475000I0J250000D01*
G01*
X178350000Y-130525000D01*
G75*
G02*
X178600000Y-130275000I250000J0D01*
G01*
X179275000Y-130275000D01*
G75*
G02*
X179525000Y-130525000I0J-250000D01*
G01*
G37*
G36*
G01*
X181600000Y-130525000D02*
X181600000Y-131475000D01*
G75*
G02*
X181350000Y-131725000I-250000J0D01*
G01*
X180675000Y-131725000D01*
G75*
G02*
X180425000Y-131475000I0J250000D01*
G01*
X180425000Y-130525000D01*
G75*
G02*
X180675000Y-130275000I250000J0D01*
G01*
X181350000Y-130275000D01*
G75*
G02*
X181600000Y-130525000I0J-250000D01*
G01*
G37*
G36*
G01*
X149575000Y-179925000D02*
X149575000Y-180875000D01*
G75*
G02*
X149325000Y-181125000I-250000J0D01*
G01*
X148650000Y-181125000D01*
G75*
G02*
X148400000Y-180875000I0J250000D01*
G01*
X148400000Y-179925000D01*
G75*
G02*
X148650000Y-179675000I250000J0D01*
G01*
X149325000Y-179675000D01*
G75*
G02*
X149575000Y-179925000I0J-250000D01*
G01*
G37*
G36*
G01*
X151650000Y-179925000D02*
X151650000Y-180875000D01*
G75*
G02*
X151400000Y-181125000I-250000J0D01*
G01*
X150725000Y-181125000D01*
G75*
G02*
X150475000Y-180875000I0J250000D01*
G01*
X150475000Y-179925000D01*
G75*
G02*
X150725000Y-179675000I250000J0D01*
G01*
X151400000Y-179675000D01*
G75*
G02*
X151650000Y-179925000I0J-250000D01*
G01*
G37*
G36*
G01*
X130700147Y-130239135D02*
X130700147Y-131189135D01*
G75*
G02*
X130450147Y-131439135I-250000J0D01*
G01*
X129775147Y-131439135D01*
G75*
G02*
X129525147Y-131189135I0J250000D01*
G01*
X129525147Y-130239135D01*
G75*
G02*
X129775147Y-129989135I250000J0D01*
G01*
X130450147Y-129989135D01*
G75*
G02*
X130700147Y-130239135I0J-250000D01*
G01*
G37*
G36*
G01*
X132775147Y-130239135D02*
X132775147Y-131189135D01*
G75*
G02*
X132525147Y-131439135I-250000J0D01*
G01*
X131850147Y-131439135D01*
G75*
G02*
X131600147Y-131189135I0J250000D01*
G01*
X131600147Y-130239135D01*
G75*
G02*
X131850147Y-129989135I250000J0D01*
G01*
X132525147Y-129989135D01*
G75*
G02*
X132775147Y-130239135I0J-250000D01*
G01*
G37*
G36*
G01*
X121050000Y-150025000D02*
X121050000Y-150975000D01*
G75*
G02*
X120800000Y-151225000I-250000J0D01*
G01*
X120125000Y-151225000D01*
G75*
G02*
X119875000Y-150975000I0J250000D01*
G01*
X119875000Y-150025000D01*
G75*
G02*
X120125000Y-149775000I250000J0D01*
G01*
X120800000Y-149775000D01*
G75*
G02*
X121050000Y-150025000I0J-250000D01*
G01*
G37*
G36*
G01*
X123125000Y-150025000D02*
X123125000Y-150975000D01*
G75*
G02*
X122875000Y-151225000I-250000J0D01*
G01*
X122200000Y-151225000D01*
G75*
G02*
X121950000Y-150975000I0J250000D01*
G01*
X121950000Y-150025000D01*
G75*
G02*
X122200000Y-149775000I250000J0D01*
G01*
X122875000Y-149775000D01*
G75*
G02*
X123125000Y-150025000I0J-250000D01*
G01*
G37*
G36*
G01*
X179575000Y-169525000D02*
X179575000Y-170475000D01*
G75*
G02*
X179325000Y-170725000I-250000J0D01*
G01*
X178650000Y-170725000D01*
G75*
G02*
X178400000Y-170475000I0J250000D01*
G01*
X178400000Y-169525000D01*
G75*
G02*
X178650000Y-169275000I250000J0D01*
G01*
X179325000Y-169275000D01*
G75*
G02*
X179575000Y-169525000I0J-250000D01*
G01*
G37*
G36*
G01*
X181650000Y-169525000D02*
X181650000Y-170475000D01*
G75*
G02*
X181400000Y-170725000I-250000J0D01*
G01*
X180725000Y-170725000D01*
G75*
G02*
X180475000Y-170475000I0J250000D01*
G01*
X180475000Y-169525000D01*
G75*
G02*
X180725000Y-169275000I250000J0D01*
G01*
X181400000Y-169275000D01*
G75*
G02*
X181650000Y-169525000I0J-250000D01*
G01*
G37*
G36*
G01*
X111475000Y-139550000D02*
X110525000Y-139550000D01*
G75*
G02*
X110275000Y-139300000I0J250000D01*
G01*
X110275000Y-138625000D01*
G75*
G02*
X110525000Y-138375000I250000J0D01*
G01*
X111475000Y-138375000D01*
G75*
G02*
X111725000Y-138625000I0J-250000D01*
G01*
X111725000Y-139300000D01*
G75*
G02*
X111475000Y-139550000I-250000J0D01*
G01*
G37*
G36*
G01*
X111475000Y-141625000D02*
X110525000Y-141625000D01*
G75*
G02*
X110275000Y-141375000I0J250000D01*
G01*
X110275000Y-140700000D01*
G75*
G02*
X110525000Y-140450000I250000J0D01*
G01*
X111475000Y-140450000D01*
G75*
G02*
X111725000Y-140700000I0J-250000D01*
G01*
X111725000Y-141375000D01*
G75*
G02*
X111475000Y-141625000I-250000J0D01*
G01*
G37*
G36*
G01*
X179550000Y-160025000D02*
X179550000Y-160975000D01*
G75*
G02*
X179300000Y-161225000I-250000J0D01*
G01*
X178625000Y-161225000D01*
G75*
G02*
X178375000Y-160975000I0J250000D01*
G01*
X178375000Y-160025000D01*
G75*
G02*
X178625000Y-159775000I250000J0D01*
G01*
X179300000Y-159775000D01*
G75*
G02*
X179550000Y-160025000I0J-250000D01*
G01*
G37*
G36*
G01*
X181625000Y-160025000D02*
X181625000Y-160975000D01*
G75*
G02*
X181375000Y-161225000I-250000J0D01*
G01*
X180700000Y-161225000D01*
G75*
G02*
X180450000Y-160975000I0J250000D01*
G01*
X180450000Y-160025000D01*
G75*
G02*
X180700000Y-159775000I250000J0D01*
G01*
X181375000Y-159775000D01*
G75*
G02*
X181625000Y-160025000I0J-250000D01*
G01*
G37*
G36*
G01*
X179550000Y-150025000D02*
X179550000Y-150975000D01*
G75*
G02*
X179300000Y-151225000I-250000J0D01*
G01*
X178625000Y-151225000D01*
G75*
G02*
X178375000Y-150975000I0J250000D01*
G01*
X178375000Y-150025000D01*
G75*
G02*
X178625000Y-149775000I250000J0D01*
G01*
X179300000Y-149775000D01*
G75*
G02*
X179550000Y-150025000I0J-250000D01*
G01*
G37*
G36*
G01*
X181625000Y-150025000D02*
X181625000Y-150975000D01*
G75*
G02*
X181375000Y-151225000I-250000J0D01*
G01*
X180700000Y-151225000D01*
G75*
G02*
X180450000Y-150975000I0J250000D01*
G01*
X180450000Y-150025000D01*
G75*
G02*
X180700000Y-149775000I250000J0D01*
G01*
X181375000Y-149775000D01*
G75*
G02*
X181625000Y-150025000I0J-250000D01*
G01*
G37*
G36*
G01*
X142550000Y-99525000D02*
X142550000Y-100475000D01*
G75*
G02*
X142300000Y-100725000I-250000J0D01*
G01*
X141625000Y-100725000D01*
G75*
G02*
X141375000Y-100475000I0J250000D01*
G01*
X141375000Y-99525000D01*
G75*
G02*
X141625000Y-99275000I250000J0D01*
G01*
X142300000Y-99275000D01*
G75*
G02*
X142550000Y-99525000I0J-250000D01*
G01*
G37*
G36*
G01*
X144625000Y-99525000D02*
X144625000Y-100475000D01*
G75*
G02*
X144375000Y-100725000I-250000J0D01*
G01*
X143700000Y-100725000D01*
G75*
G02*
X143450000Y-100475000I0J250000D01*
G01*
X143450000Y-99525000D01*
G75*
G02*
X143700000Y-99275000I250000J0D01*
G01*
X144375000Y-99275000D01*
G75*
G02*
X144625000Y-99525000I0J-250000D01*
G01*
G37*
G36*
G01*
X129575000Y-179925000D02*
X129575000Y-180875000D01*
G75*
G02*
X129325000Y-181125000I-250000J0D01*
G01*
X128650000Y-181125000D01*
G75*
G02*
X128400000Y-180875000I0J250000D01*
G01*
X128400000Y-179925000D01*
G75*
G02*
X128650000Y-179675000I250000J0D01*
G01*
X129325000Y-179675000D01*
G75*
G02*
X129575000Y-179925000I0J-250000D01*
G01*
G37*
G36*
G01*
X131650000Y-179925000D02*
X131650000Y-180875000D01*
G75*
G02*
X131400000Y-181125000I-250000J0D01*
G01*
X130725000Y-181125000D01*
G75*
G02*
X130475000Y-180875000I0J250000D01*
G01*
X130475000Y-179925000D01*
G75*
G02*
X130725000Y-179675000I250000J0D01*
G01*
X131400000Y-179675000D01*
G75*
G02*
X131650000Y-179925000I0J-250000D01*
G01*
G37*
G36*
G01*
X151023609Y-111550411D02*
X150073609Y-111550411D01*
G75*
G02*
X149823609Y-111300411I0J250000D01*
G01*
X149823609Y-110625411D01*
G75*
G02*
X150073609Y-110375411I250000J0D01*
G01*
X151023609Y-110375411D01*
G75*
G02*
X151273609Y-110625411I0J-250000D01*
G01*
X151273609Y-111300411D01*
G75*
G02*
X151023609Y-111550411I-250000J0D01*
G01*
G37*
G36*
G01*
X151023609Y-113625411D02*
X150073609Y-113625411D01*
G75*
G02*
X149823609Y-113375411I0J250000D01*
G01*
X149823609Y-112700411D01*
G75*
G02*
X150073609Y-112450411I250000J0D01*
G01*
X151023609Y-112450411D01*
G75*
G02*
X151273609Y-112700411I0J-250000D01*
G01*
X151273609Y-113375411D01*
G75*
G02*
X151023609Y-113625411I-250000J0D01*
G01*
G37*
G36*
G01*
X141475000Y-139575000D02*
X140525000Y-139575000D01*
G75*
G02*
X140275000Y-139325000I0J250000D01*
G01*
X140275000Y-138650000D01*
G75*
G02*
X140525000Y-138400000I250000J0D01*
G01*
X141475000Y-138400000D01*
G75*
G02*
X141725000Y-138650000I0J-250000D01*
G01*
X141725000Y-139325000D01*
G75*
G02*
X141475000Y-139575000I-250000J0D01*
G01*
G37*
G36*
G01*
X141475000Y-141650000D02*
X140525000Y-141650000D01*
G75*
G02*
X140275000Y-141400000I0J250000D01*
G01*
X140275000Y-140725000D01*
G75*
G02*
X140525000Y-140475000I250000J0D01*
G01*
X141475000Y-140475000D01*
G75*
G02*
X141725000Y-140725000I0J-250000D01*
G01*
X141725000Y-141400000D01*
G75*
G02*
X141475000Y-141650000I-250000J0D01*
G01*
G37*
G36*
G01*
X112075000Y-170025000D02*
X112075000Y-170975000D01*
G75*
G02*
X111825000Y-171225000I-250000J0D01*
G01*
X111150000Y-171225000D01*
G75*
G02*
X110900000Y-170975000I0J250000D01*
G01*
X110900000Y-170025000D01*
G75*
G02*
X111150000Y-169775000I250000J0D01*
G01*
X111825000Y-169775000D01*
G75*
G02*
X112075000Y-170025000I0J-250000D01*
G01*
G37*
G36*
G01*
X114150000Y-170025000D02*
X114150000Y-170975000D01*
G75*
G02*
X113900000Y-171225000I-250000J0D01*
G01*
X113225000Y-171225000D01*
G75*
G02*
X112975000Y-170975000I0J250000D01*
G01*
X112975000Y-170025000D01*
G75*
G02*
X113225000Y-169775000I250000J0D01*
G01*
X113900000Y-169775000D01*
G75*
G02*
X114150000Y-170025000I0J-250000D01*
G01*
G37*
G36*
G01*
X152475000Y-119575000D02*
X151525000Y-119575000D01*
G75*
G02*
X151275000Y-119325000I0J250000D01*
G01*
X151275000Y-118650000D01*
G75*
G02*
X151525000Y-118400000I250000J0D01*
G01*
X152475000Y-118400000D01*
G75*
G02*
X152725000Y-118650000I0J-250000D01*
G01*
X152725000Y-119325000D01*
G75*
G02*
X152475000Y-119575000I-250000J0D01*
G01*
G37*
G36*
G01*
X152475000Y-121650000D02*
X151525000Y-121650000D01*
G75*
G02*
X151275000Y-121400000I0J250000D01*
G01*
X151275000Y-120725000D01*
G75*
G02*
X151525000Y-120475000I250000J0D01*
G01*
X152475000Y-120475000D01*
G75*
G02*
X152725000Y-120725000I0J-250000D01*
G01*
X152725000Y-121400000D01*
G75*
G02*
X152475000Y-121650000I-250000J0D01*
G01*
G37*
G36*
G01*
X139575000Y-160025000D02*
X139575000Y-160975000D01*
G75*
G02*
X139325000Y-161225000I-250000J0D01*
G01*
X138650000Y-161225000D01*
G75*
G02*
X138400000Y-160975000I0J250000D01*
G01*
X138400000Y-160025000D01*
G75*
G02*
X138650000Y-159775000I250000J0D01*
G01*
X139325000Y-159775000D01*
G75*
G02*
X139575000Y-160025000I0J-250000D01*
G01*
G37*
G36*
G01*
X141650000Y-160025000D02*
X141650000Y-160975000D01*
G75*
G02*
X141400000Y-161225000I-250000J0D01*
G01*
X140725000Y-161225000D01*
G75*
G02*
X140475000Y-160975000I0J250000D01*
G01*
X140475000Y-160025000D01*
G75*
G02*
X140725000Y-159775000I250000J0D01*
G01*
X141400000Y-159775000D01*
G75*
G02*
X141650000Y-160025000I0J-250000D01*
G01*
G37*
G36*
G01*
X141075000Y-150025000D02*
X141075000Y-150975000D01*
G75*
G02*
X140825000Y-151225000I-250000J0D01*
G01*
X140150000Y-151225000D01*
G75*
G02*
X139900000Y-150975000I0J250000D01*
G01*
X139900000Y-150025000D01*
G75*
G02*
X140150000Y-149775000I250000J0D01*
G01*
X140825000Y-149775000D01*
G75*
G02*
X141075000Y-150025000I0J-250000D01*
G01*
G37*
G36*
G01*
X143150000Y-150025000D02*
X143150000Y-150975000D01*
G75*
G02*
X142900000Y-151225000I-250000J0D01*
G01*
X142225000Y-151225000D01*
G75*
G02*
X141975000Y-150975000I0J250000D01*
G01*
X141975000Y-150025000D01*
G75*
G02*
X142225000Y-149775000I250000J0D01*
G01*
X142900000Y-149775000D01*
G75*
G02*
X143150000Y-150025000I0J-250000D01*
G01*
G37*
G36*
G01*
X170961201Y-111961440D02*
X170011201Y-111961440D01*
G75*
G02*
X169761201Y-111711440I0J250000D01*
G01*
X169761201Y-111036440D01*
G75*
G02*
X170011201Y-110786440I250000J0D01*
G01*
X170961201Y-110786440D01*
G75*
G02*
X171211201Y-111036440I0J-250000D01*
G01*
X171211201Y-111711440D01*
G75*
G02*
X170961201Y-111961440I-250000J0D01*
G01*
G37*
G36*
G01*
X170961201Y-114036440D02*
X170011201Y-114036440D01*
G75*
G02*
X169761201Y-113786440I0J250000D01*
G01*
X169761201Y-113111440D01*
G75*
G02*
X170011201Y-112861440I250000J0D01*
G01*
X170961201Y-112861440D01*
G75*
G02*
X171211201Y-113111440I0J-250000D01*
G01*
X171211201Y-113786440D01*
G75*
G02*
X170961201Y-114036440I-250000J0D01*
G01*
G37*
G36*
G01*
X119575000Y-179525000D02*
X119575000Y-180475000D01*
G75*
G02*
X119325000Y-180725000I-250000J0D01*
G01*
X118650000Y-180725000D01*
G75*
G02*
X118400000Y-180475000I0J250000D01*
G01*
X118400000Y-179525000D01*
G75*
G02*
X118650000Y-179275000I250000J0D01*
G01*
X119325000Y-179275000D01*
G75*
G02*
X119575000Y-179525000I0J-250000D01*
G01*
G37*
G36*
G01*
X121650000Y-179525000D02*
X121650000Y-180475000D01*
G75*
G02*
X121400000Y-180725000I-250000J0D01*
G01*
X120725000Y-180725000D01*
G75*
G02*
X120475000Y-180475000I0J250000D01*
G01*
X120475000Y-179525000D01*
G75*
G02*
X120725000Y-179275000I250000J0D01*
G01*
X121400000Y-179275000D01*
G75*
G02*
X121650000Y-179525000I0J-250000D01*
G01*
G37*
G36*
G01*
X134475000Y-111475000D02*
X134475000Y-110525000D01*
G75*
G02*
X134725000Y-110275000I250000J0D01*
G01*
X135400000Y-110275000D01*
G75*
G02*
X135650000Y-110525000I0J-250000D01*
G01*
X135650000Y-111475000D01*
G75*
G02*
X135400000Y-111725000I-250000J0D01*
G01*
X134725000Y-111725000D01*
G75*
G02*
X134475000Y-111475000I0J250000D01*
G01*
G37*
G36*
G01*
X132400000Y-111475000D02*
X132400000Y-110525000D01*
G75*
G02*
X132650000Y-110275000I250000J0D01*
G01*
X133325000Y-110275000D01*
G75*
G02*
X133575000Y-110525000I0J-250000D01*
G01*
X133575000Y-111475000D01*
G75*
G02*
X133325000Y-111725000I-250000J0D01*
G01*
X132650000Y-111725000D01*
G75*
G02*
X132400000Y-111475000I0J250000D01*
G01*
G37*
G36*
G01*
X139668451Y-136112268D02*
X140618451Y-136112268D01*
G75*
G02*
X140868451Y-136362268I0J-250000D01*
G01*
X140868451Y-137037268D01*
G75*
G02*
X140618451Y-137287268I-250000J0D01*
G01*
X139668451Y-137287268D01*
G75*
G02*
X139418451Y-137037268I0J250000D01*
G01*
X139418451Y-136362268D01*
G75*
G02*
X139668451Y-136112268I250000J0D01*
G01*
G37*
G36*
G01*
X139668451Y-134037268D02*
X140618451Y-134037268D01*
G75*
G02*
X140868451Y-134287268I0J-250000D01*
G01*
X140868451Y-134962268D01*
G75*
G02*
X140618451Y-135212268I-250000J0D01*
G01*
X139668451Y-135212268D01*
G75*
G02*
X139418451Y-134962268I0J250000D01*
G01*
X139418451Y-134287268D01*
G75*
G02*
X139668451Y-134037268I250000J0D01*
G01*
G37*
G36*
G01*
X169575000Y-160025000D02*
X169575000Y-160975000D01*
G75*
G02*
X169325000Y-161225000I-250000J0D01*
G01*
X168650000Y-161225000D01*
G75*
G02*
X168400000Y-160975000I0J250000D01*
G01*
X168400000Y-160025000D01*
G75*
G02*
X168650000Y-159775000I250000J0D01*
G01*
X169325000Y-159775000D01*
G75*
G02*
X169575000Y-160025000I0J-250000D01*
G01*
G37*
G36*
G01*
X171650000Y-160025000D02*
X171650000Y-160975000D01*
G75*
G02*
X171400000Y-161225000I-250000J0D01*
G01*
X170725000Y-161225000D01*
G75*
G02*
X170475000Y-160975000I0J250000D01*
G01*
X170475000Y-160025000D01*
G75*
G02*
X170725000Y-159775000I250000J0D01*
G01*
X171400000Y-159775000D01*
G75*
G02*
X171650000Y-160025000I0J-250000D01*
G01*
G37*
G36*
G01*
X171475000Y-119525000D02*
X170525000Y-119525000D01*
G75*
G02*
X170275000Y-119275000I0J250000D01*
G01*
X170275000Y-118600000D01*
G75*
G02*
X170525000Y-118350000I250000J0D01*
G01*
X171475000Y-118350000D01*
G75*
G02*
X171725000Y-118600000I0J-250000D01*
G01*
X171725000Y-119275000D01*
G75*
G02*
X171475000Y-119525000I-250000J0D01*
G01*
G37*
G36*
G01*
X171475000Y-121600000D02*
X170525000Y-121600000D01*
G75*
G02*
X170275000Y-121350000I0J250000D01*
G01*
X170275000Y-120675000D01*
G75*
G02*
X170525000Y-120425000I250000J0D01*
G01*
X171475000Y-120425000D01*
G75*
G02*
X171725000Y-120675000I0J-250000D01*
G01*
X171725000Y-121350000D01*
G75*
G02*
X171475000Y-121600000I-250000J0D01*
G01*
G37*
G36*
G01*
X149550000Y-150025000D02*
X149550000Y-150975000D01*
G75*
G02*
X149300000Y-151225000I-250000J0D01*
G01*
X148625000Y-151225000D01*
G75*
G02*
X148375000Y-150975000I0J250000D01*
G01*
X148375000Y-150025000D01*
G75*
G02*
X148625000Y-149775000I250000J0D01*
G01*
X149300000Y-149775000D01*
G75*
G02*
X149550000Y-150025000I0J-250000D01*
G01*
G37*
G36*
G01*
X151625000Y-150025000D02*
X151625000Y-150975000D01*
G75*
G02*
X151375000Y-151225000I-250000J0D01*
G01*
X150700000Y-151225000D01*
G75*
G02*
X150450000Y-150975000I0J250000D01*
G01*
X150450000Y-150025000D01*
G75*
G02*
X150700000Y-149775000I250000J0D01*
G01*
X151375000Y-149775000D01*
G75*
G02*
X151625000Y-150025000I0J-250000D01*
G01*
G37*
G36*
G01*
X149575000Y-130525000D02*
X149575000Y-131475000D01*
G75*
G02*
X149325000Y-131725000I-250000J0D01*
G01*
X148650000Y-131725000D01*
G75*
G02*
X148400000Y-131475000I0J250000D01*
G01*
X148400000Y-130525000D01*
G75*
G02*
X148650000Y-130275000I250000J0D01*
G01*
X149325000Y-130275000D01*
G75*
G02*
X149575000Y-130525000I0J-250000D01*
G01*
G37*
G36*
G01*
X151650000Y-130525000D02*
X151650000Y-131475000D01*
G75*
G02*
X151400000Y-131725000I-250000J0D01*
G01*
X150725000Y-131725000D01*
G75*
G02*
X150475000Y-131475000I0J250000D01*
G01*
X150475000Y-130525000D01*
G75*
G02*
X150725000Y-130275000I250000J0D01*
G01*
X151400000Y-130275000D01*
G75*
G02*
X151650000Y-130525000I0J-250000D01*
G01*
G37*
G36*
G01*
X124450000Y-111475000D02*
X124450000Y-110525000D01*
G75*
G02*
X124700000Y-110275000I250000J0D01*
G01*
X125375000Y-110275000D01*
G75*
G02*
X125625000Y-110525000I0J-250000D01*
G01*
X125625000Y-111475000D01*
G75*
G02*
X125375000Y-111725000I-250000J0D01*
G01*
X124700000Y-111725000D01*
G75*
G02*
X124450000Y-111475000I0J250000D01*
G01*
G37*
G36*
G01*
X122375000Y-111475000D02*
X122375000Y-110525000D01*
G75*
G02*
X122625000Y-110275000I250000J0D01*
G01*
X123300000Y-110275000D01*
G75*
G02*
X123550000Y-110525000I0J-250000D01*
G01*
X123550000Y-111475000D01*
G75*
G02*
X123300000Y-111725000I-250000J0D01*
G01*
X122625000Y-111725000D01*
G75*
G02*
X122375000Y-111475000I0J250000D01*
G01*
G37*
G36*
G01*
X112475000Y-119575000D02*
X111525000Y-119575000D01*
G75*
G02*
X111275000Y-119325000I0J250000D01*
G01*
X111275000Y-118650000D01*
G75*
G02*
X111525000Y-118400000I250000J0D01*
G01*
X112475000Y-118400000D01*
G75*
G02*
X112725000Y-118650000I0J-250000D01*
G01*
X112725000Y-119325000D01*
G75*
G02*
X112475000Y-119575000I-250000J0D01*
G01*
G37*
G36*
G01*
X112475000Y-121650000D02*
X111525000Y-121650000D01*
G75*
G02*
X111275000Y-121400000I0J250000D01*
G01*
X111275000Y-120725000D01*
G75*
G02*
X111525000Y-120475000I250000J0D01*
G01*
X112475000Y-120475000D01*
G75*
G02*
X112725000Y-120725000I0J-250000D01*
G01*
X112725000Y-121400000D01*
G75*
G02*
X112475000Y-121650000I-250000J0D01*
G01*
G37*
G36*
G01*
X123950000Y-121475000D02*
X123950000Y-120525000D01*
G75*
G02*
X124200000Y-120275000I250000J0D01*
G01*
X124875000Y-120275000D01*
G75*
G02*
X125125000Y-120525000I0J-250000D01*
G01*
X125125000Y-121475000D01*
G75*
G02*
X124875000Y-121725000I-250000J0D01*
G01*
X124200000Y-121725000D01*
G75*
G02*
X123950000Y-121475000I0J250000D01*
G01*
G37*
G36*
G01*
X121875000Y-121475000D02*
X121875000Y-120525000D01*
G75*
G02*
X122125000Y-120275000I250000J0D01*
G01*
X122800000Y-120275000D01*
G75*
G02*
X123050000Y-120525000I0J-250000D01*
G01*
X123050000Y-121475000D01*
G75*
G02*
X122800000Y-121725000I-250000J0D01*
G01*
X122125000Y-121725000D01*
G75*
G02*
X121875000Y-121475000I0J250000D01*
G01*
G37*
G36*
G01*
X120075000Y-160025000D02*
X120075000Y-160975000D01*
G75*
G02*
X119825000Y-161225000I-250000J0D01*
G01*
X119150000Y-161225000D01*
G75*
G02*
X118900000Y-160975000I0J250000D01*
G01*
X118900000Y-160025000D01*
G75*
G02*
X119150000Y-159775000I250000J0D01*
G01*
X119825000Y-159775000D01*
G75*
G02*
X120075000Y-160025000I0J-250000D01*
G01*
G37*
G36*
G01*
X122150000Y-160025000D02*
X122150000Y-160975000D01*
G75*
G02*
X121900000Y-161225000I-250000J0D01*
G01*
X121225000Y-161225000D01*
G75*
G02*
X120975000Y-160975000I0J250000D01*
G01*
X120975000Y-160025000D01*
G75*
G02*
X121225000Y-159775000I250000J0D01*
G01*
X121900000Y-159775000D01*
G75*
G02*
X122150000Y-160025000I0J-250000D01*
G01*
G37*
G36*
G01*
X144425000Y-111475000D02*
X144425000Y-110525000D01*
G75*
G02*
X144675000Y-110275000I250000J0D01*
G01*
X145350000Y-110275000D01*
G75*
G02*
X145600000Y-110525000I0J-250000D01*
G01*
X145600000Y-111475000D01*
G75*
G02*
X145350000Y-111725000I-250000J0D01*
G01*
X144675000Y-111725000D01*
G75*
G02*
X144425000Y-111475000I0J250000D01*
G01*
G37*
G36*
G01*
X142350000Y-111475000D02*
X142350000Y-110525000D01*
G75*
G02*
X142600000Y-110275000I250000J0D01*
G01*
X143275000Y-110275000D01*
G75*
G02*
X143525000Y-110525000I0J-250000D01*
G01*
X143525000Y-111475000D01*
G75*
G02*
X143275000Y-111725000I-250000J0D01*
G01*
X142600000Y-111725000D01*
G75*
G02*
X142350000Y-111475000I0J250000D01*
G01*
G37*
G36*
G01*
X121475000Y-139575000D02*
X120525000Y-139575000D01*
G75*
G02*
X120275000Y-139325000I0J250000D01*
G01*
X120275000Y-138650000D01*
G75*
G02*
X120525000Y-138400000I250000J0D01*
G01*
X121475000Y-138400000D01*
G75*
G02*
X121725000Y-138650000I0J-250000D01*
G01*
X121725000Y-139325000D01*
G75*
G02*
X121475000Y-139575000I-250000J0D01*
G01*
G37*
G36*
G01*
X121475000Y-141650000D02*
X120525000Y-141650000D01*
G75*
G02*
X120275000Y-141400000I0J250000D01*
G01*
X120275000Y-140725000D01*
G75*
G02*
X120525000Y-140475000I250000J0D01*
G01*
X121475000Y-140475000D01*
G75*
G02*
X121725000Y-140725000I0J-250000D01*
G01*
X121725000Y-141400000D01*
G75*
G02*
X121475000Y-141650000I-250000J0D01*
G01*
G37*
G36*
G01*
X112475000Y-129525000D02*
X111525000Y-129525000D01*
G75*
G02*
X111275000Y-129275000I0J250000D01*
G01*
X111275000Y-128600000D01*
G75*
G02*
X111525000Y-128350000I250000J0D01*
G01*
X112475000Y-128350000D01*
G75*
G02*
X112725000Y-128600000I0J-250000D01*
G01*
X112725000Y-129275000D01*
G75*
G02*
X112475000Y-129525000I-250000J0D01*
G01*
G37*
G36*
G01*
X112475000Y-131600000D02*
X111525000Y-131600000D01*
G75*
G02*
X111275000Y-131350000I0J250000D01*
G01*
X111275000Y-130675000D01*
G75*
G02*
X111525000Y-130425000I250000J0D01*
G01*
X112475000Y-130425000D01*
G75*
G02*
X112725000Y-130675000I0J-250000D01*
G01*
X112725000Y-131350000D01*
G75*
G02*
X112475000Y-131600000I-250000J0D01*
G01*
G37*
G36*
G01*
X130050000Y-160025000D02*
X130050000Y-160975000D01*
G75*
G02*
X129800000Y-161225000I-250000J0D01*
G01*
X129125000Y-161225000D01*
G75*
G02*
X128875000Y-160975000I0J250000D01*
G01*
X128875000Y-160025000D01*
G75*
G02*
X129125000Y-159775000I250000J0D01*
G01*
X129800000Y-159775000D01*
G75*
G02*
X130050000Y-160025000I0J-250000D01*
G01*
G37*
G36*
G01*
X132125000Y-160025000D02*
X132125000Y-160975000D01*
G75*
G02*
X131875000Y-161225000I-250000J0D01*
G01*
X131200000Y-161225000D01*
G75*
G02*
X130950000Y-160975000I0J250000D01*
G01*
X130950000Y-160025000D01*
G75*
G02*
X131200000Y-159775000I250000J0D01*
G01*
X131875000Y-159775000D01*
G75*
G02*
X132125000Y-160025000I0J-250000D01*
G01*
G37*
G36*
G01*
X160820511Y-111919126D02*
X159870511Y-111919126D01*
G75*
G02*
X159620511Y-111669126I0J250000D01*
G01*
X159620511Y-110994126D01*
G75*
G02*
X159870511Y-110744126I250000J0D01*
G01*
X160820511Y-110744126D01*
G75*
G02*
X161070511Y-110994126I0J-250000D01*
G01*
X161070511Y-111669126D01*
G75*
G02*
X160820511Y-111919126I-250000J0D01*
G01*
G37*
G36*
G01*
X160820511Y-113994126D02*
X159870511Y-113994126D01*
G75*
G02*
X159620511Y-113744126I0J250000D01*
G01*
X159620511Y-113069126D01*
G75*
G02*
X159870511Y-112819126I250000J0D01*
G01*
X160820511Y-112819126D01*
G75*
G02*
X161070511Y-113069126I0J-250000D01*
G01*
X161070511Y-113744126D01*
G75*
G02*
X160820511Y-113994126I-250000J0D01*
G01*
G37*
G36*
G01*
X131475000Y-139575000D02*
X130525000Y-139575000D01*
G75*
G02*
X130275000Y-139325000I0J250000D01*
G01*
X130275000Y-138650000D01*
G75*
G02*
X130525000Y-138400000I250000J0D01*
G01*
X131475000Y-138400000D01*
G75*
G02*
X131725000Y-138650000I0J-250000D01*
G01*
X131725000Y-139325000D01*
G75*
G02*
X131475000Y-139575000I-250000J0D01*
G01*
G37*
G36*
G01*
X131475000Y-141650000D02*
X130525000Y-141650000D01*
G75*
G02*
X130275000Y-141400000I0J250000D01*
G01*
X130275000Y-140725000D01*
G75*
G02*
X130525000Y-140475000I250000J0D01*
G01*
X131475000Y-140475000D01*
G75*
G02*
X131725000Y-140725000I0J-250000D01*
G01*
X131725000Y-141400000D01*
G75*
G02*
X131475000Y-141650000I-250000J0D01*
G01*
G37*
G36*
G01*
X120487825Y-130296152D02*
X120487825Y-131246152D01*
G75*
G02*
X120237825Y-131496152I-250000J0D01*
G01*
X119562825Y-131496152D01*
G75*
G02*
X119312825Y-131246152I0J250000D01*
G01*
X119312825Y-130296152D01*
G75*
G02*
X119562825Y-130046152I250000J0D01*
G01*
X120237825Y-130046152D01*
G75*
G02*
X120487825Y-130296152I0J-250000D01*
G01*
G37*
G36*
G01*
X122562825Y-130296152D02*
X122562825Y-131246152D01*
G75*
G02*
X122312825Y-131496152I-250000J0D01*
G01*
X121637825Y-131496152D01*
G75*
G02*
X121387825Y-131246152I0J250000D01*
G01*
X121387825Y-130296152D01*
G75*
G02*
X121637825Y-130046152I250000J0D01*
G01*
X122312825Y-130046152D01*
G75*
G02*
X122562825Y-130296152I0J-250000D01*
G01*
G37*
G36*
G01*
X180193513Y-121733145D02*
X179243513Y-121733145D01*
G75*
G02*
X178993513Y-121483145I0J250000D01*
G01*
X178993513Y-120808145D01*
G75*
G02*
X179243513Y-120558145I250000J0D01*
G01*
X180193513Y-120558145D01*
G75*
G02*
X180443513Y-120808145I0J-250000D01*
G01*
X180443513Y-121483145D01*
G75*
G02*
X180193513Y-121733145I-250000J0D01*
G01*
G37*
G36*
G01*
X180193513Y-123808145D02*
X179243513Y-123808145D01*
G75*
G02*
X178993513Y-123558145I0J250000D01*
G01*
X178993513Y-122883145D01*
G75*
G02*
X179243513Y-122633145I250000J0D01*
G01*
X180193513Y-122633145D01*
G75*
G02*
X180443513Y-122883145I0J-250000D01*
G01*
X180443513Y-123558145D01*
G75*
G02*
X180193513Y-123808145I-250000J0D01*
G01*
G37*
G36*
G01*
X169550000Y-150025000D02*
X169550000Y-150975000D01*
G75*
G02*
X169300000Y-151225000I-250000J0D01*
G01*
X168625000Y-151225000D01*
G75*
G02*
X168375000Y-150975000I0J250000D01*
G01*
X168375000Y-150025000D01*
G75*
G02*
X168625000Y-149775000I250000J0D01*
G01*
X169300000Y-149775000D01*
G75*
G02*
X169550000Y-150025000I0J-250000D01*
G01*
G37*
G36*
G01*
X171625000Y-150025000D02*
X171625000Y-150975000D01*
G75*
G02*
X171375000Y-151225000I-250000J0D01*
G01*
X170700000Y-151225000D01*
G75*
G02*
X170450000Y-150975000I0J250000D01*
G01*
X170450000Y-150025000D01*
G75*
G02*
X170700000Y-149775000I250000J0D01*
G01*
X171375000Y-149775000D01*
G75*
G02*
X171625000Y-150025000I0J-250000D01*
G01*
G37*
G36*
G01*
X159575000Y-130525000D02*
X159575000Y-131475000D01*
G75*
G02*
X159325000Y-131725000I-250000J0D01*
G01*
X158650000Y-131725000D01*
G75*
G02*
X158400000Y-131475000I0J250000D01*
G01*
X158400000Y-130525000D01*
G75*
G02*
X158650000Y-130275000I250000J0D01*
G01*
X159325000Y-130275000D01*
G75*
G02*
X159575000Y-130525000I0J-250000D01*
G01*
G37*
G36*
G01*
X161650000Y-130525000D02*
X161650000Y-131475000D01*
G75*
G02*
X161400000Y-131725000I-250000J0D01*
G01*
X160725000Y-131725000D01*
G75*
G02*
X160475000Y-131475000I0J250000D01*
G01*
X160475000Y-130525000D01*
G75*
G02*
X160725000Y-130275000I250000J0D01*
G01*
X161400000Y-130275000D01*
G75*
G02*
X161650000Y-130525000I0J-250000D01*
G01*
G37*
G36*
G01*
X142475000Y-119575000D02*
X141525000Y-119575000D01*
G75*
G02*
X141275000Y-119325000I0J250000D01*
G01*
X141275000Y-118650000D01*
G75*
G02*
X141525000Y-118400000I250000J0D01*
G01*
X142475000Y-118400000D01*
G75*
G02*
X142725000Y-118650000I0J-250000D01*
G01*
X142725000Y-119325000D01*
G75*
G02*
X142475000Y-119575000I-250000J0D01*
G01*
G37*
G36*
G01*
X142475000Y-121650000D02*
X141525000Y-121650000D01*
G75*
G02*
X141275000Y-121400000I0J250000D01*
G01*
X141275000Y-120725000D01*
G75*
G02*
X141525000Y-120475000I250000J0D01*
G01*
X142475000Y-120475000D01*
G75*
G02*
X142725000Y-120725000I0J-250000D01*
G01*
X142725000Y-121400000D01*
G75*
G02*
X142475000Y-121650000I-250000J0D01*
G01*
G37*
G36*
G01*
X129525000Y-124925000D02*
X130475000Y-124925000D01*
G75*
G02*
X130725000Y-125175000I0J-250000D01*
G01*
X130725000Y-125850000D01*
G75*
G02*
X130475000Y-126100000I-250000J0D01*
G01*
X129525000Y-126100000D01*
G75*
G02*
X129275000Y-125850000I0J250000D01*
G01*
X129275000Y-125175000D01*
G75*
G02*
X129525000Y-124925000I250000J0D01*
G01*
G37*
G36*
G01*
X129525000Y-122850000D02*
X130475000Y-122850000D01*
G75*
G02*
X130725000Y-123100000I0J-250000D01*
G01*
X130725000Y-123775000D01*
G75*
G02*
X130475000Y-124025000I-250000J0D01*
G01*
X129525000Y-124025000D01*
G75*
G02*
X129275000Y-123775000I0J250000D01*
G01*
X129275000Y-123100000D01*
G75*
G02*
X129525000Y-122850000I250000J0D01*
G01*
G37*
G36*
G01*
X139375000Y-169925000D02*
X139375000Y-170875000D01*
G75*
G02*
X139125000Y-171125000I-250000J0D01*
G01*
X138450000Y-171125000D01*
G75*
G02*
X138200000Y-170875000I0J250000D01*
G01*
X138200000Y-169925000D01*
G75*
G02*
X138450000Y-169675000I250000J0D01*
G01*
X139125000Y-169675000D01*
G75*
G02*
X139375000Y-169925000I0J-250000D01*
G01*
G37*
G36*
G01*
X141450000Y-169925000D02*
X141450000Y-170875000D01*
G75*
G02*
X141200000Y-171125000I-250000J0D01*
G01*
X140525000Y-171125000D01*
G75*
G02*
X140275000Y-170875000I0J250000D01*
G01*
X140275000Y-169925000D01*
G75*
G02*
X140525000Y-169675000I250000J0D01*
G01*
X141200000Y-169675000D01*
G75*
G02*
X141450000Y-169925000I0J-250000D01*
G01*
G37*
G36*
G01*
X179550000Y-140025000D02*
X179550000Y-140975000D01*
G75*
G02*
X179300000Y-141225000I-250000J0D01*
G01*
X178625000Y-141225000D01*
G75*
G02*
X178375000Y-140975000I0J250000D01*
G01*
X178375000Y-140025000D01*
G75*
G02*
X178625000Y-139775000I250000J0D01*
G01*
X179300000Y-139775000D01*
G75*
G02*
X179550000Y-140025000I0J-250000D01*
G01*
G37*
G36*
G01*
X181625000Y-140025000D02*
X181625000Y-140975000D01*
G75*
G02*
X181375000Y-141225000I-250000J0D01*
G01*
X180700000Y-141225000D01*
G75*
G02*
X180450000Y-140975000I0J250000D01*
G01*
X180450000Y-140025000D01*
G75*
G02*
X180700000Y-139775000I250000J0D01*
G01*
X181375000Y-139775000D01*
G75*
G02*
X181625000Y-140025000I0J-250000D01*
G01*
G37*
D10*
X147550000Y-193400000D03*
X147550000Y-196600000D03*
X152450000Y-193400000D03*
X152450000Y-196600000D03*
X192550000Y-148400000D03*
X192550000Y-151600000D03*
X197450000Y-148400000D03*
X197450000Y-151600000D03*
X147550000Y-103400000D03*
X147550000Y-106600000D03*
X152450000Y-103400000D03*
X152450000Y-106600000D03*
X102550000Y-148400000D03*
X102550000Y-151600000D03*
X107450000Y-148400000D03*
X107450000Y-151600000D03*
X122550000Y-183400000D03*
X122550000Y-186600000D03*
X127450000Y-183400000D03*
X127450000Y-186600000D03*
X132550000Y-183400000D03*
X132550000Y-186600000D03*
X137450000Y-183400000D03*
X137450000Y-186600000D03*
X142550000Y-183400000D03*
X142550000Y-186600000D03*
X147450000Y-183400000D03*
X147450000Y-186600000D03*
X152550000Y-183400000D03*
X152550000Y-186600000D03*
X157450000Y-183400000D03*
X157450000Y-186600000D03*
X162550000Y-183400000D03*
X162550000Y-186600000D03*
X167450000Y-183400000D03*
X167450000Y-186600000D03*
X172550000Y-183400000D03*
X172550000Y-186600000D03*
X177450000Y-183400000D03*
X177450000Y-186600000D03*
X182550000Y-173400000D03*
X182550000Y-176600000D03*
X187450000Y-173400000D03*
X187450000Y-176600000D03*
X182550000Y-163400000D03*
X182550000Y-166600000D03*
X187450000Y-163400000D03*
X187450000Y-166600000D03*
X182550000Y-153400000D03*
X182550000Y-156600000D03*
X187450000Y-153400000D03*
X187450000Y-156600000D03*
X182550000Y-143400000D03*
X182550000Y-146600000D03*
X187450000Y-143400000D03*
X187450000Y-146600000D03*
X182550000Y-133400000D03*
X182550000Y-136600000D03*
X187450000Y-133400000D03*
X187450000Y-136600000D03*
X182550000Y-123400000D03*
X182550000Y-126600000D03*
X187450000Y-123400000D03*
X187450000Y-126600000D03*
X172550000Y-113400000D03*
X172550000Y-116600000D03*
X177450000Y-113400000D03*
X177450000Y-116600000D03*
X162550000Y-113400000D03*
X162550000Y-116600000D03*
X167450000Y-113400000D03*
X167450000Y-116600000D03*
X152550000Y-113400000D03*
X152550000Y-116600000D03*
X157450000Y-113400000D03*
X157450000Y-116600000D03*
X142550000Y-113400000D03*
X142550000Y-116600000D03*
X147450000Y-113400000D03*
X147450000Y-116600000D03*
X132550000Y-113400000D03*
X132550000Y-116600000D03*
X137450000Y-113400000D03*
X137450000Y-116600000D03*
X122550000Y-113400000D03*
X122550000Y-116600000D03*
X127450000Y-113400000D03*
X127450000Y-116600000D03*
X112550000Y-123400000D03*
X112550000Y-126600000D03*
X117450000Y-123400000D03*
X117450000Y-126600000D03*
X112550000Y-133400000D03*
X112550000Y-136600000D03*
X117450000Y-133400000D03*
X117450000Y-136600000D03*
X112550000Y-143400000D03*
X112550000Y-146600000D03*
X117450000Y-143400000D03*
X117450000Y-146600000D03*
X112550000Y-153400000D03*
X112550000Y-156600000D03*
X117450000Y-153400000D03*
X117450000Y-156600000D03*
X112550000Y-163400000D03*
X112550000Y-166600000D03*
X117450000Y-163400000D03*
X117450000Y-166600000D03*
X112550000Y-173400000D03*
X112550000Y-176600000D03*
X117450000Y-173400000D03*
X117450000Y-176600000D03*
X122550000Y-173400000D03*
X122550000Y-176600000D03*
X127450000Y-173400000D03*
X127450000Y-176600000D03*
X132550000Y-173400000D03*
X132550000Y-176600000D03*
X137450000Y-173400000D03*
X137450000Y-176600000D03*
X142550000Y-173400000D03*
X142550000Y-176600000D03*
X147450000Y-173400000D03*
X147450000Y-176600000D03*
X152550000Y-173400000D03*
X152550000Y-176600000D03*
X157450000Y-173400000D03*
X157450000Y-176600000D03*
X162550000Y-173400000D03*
X162550000Y-176600000D03*
X167450000Y-173400000D03*
X167450000Y-176600000D03*
X172550000Y-173400000D03*
X172550000Y-176600000D03*
X177450000Y-173400000D03*
X177450000Y-176600000D03*
X172550000Y-163400000D03*
X172550000Y-166600000D03*
X177450000Y-163400000D03*
X177450000Y-166600000D03*
X172550000Y-153400000D03*
X172550000Y-156600000D03*
X177450000Y-153400000D03*
X177450000Y-156600000D03*
X172550000Y-143400000D03*
X172550000Y-146600000D03*
X177450000Y-143400000D03*
X177450000Y-146600000D03*
X172550000Y-133400000D03*
X172550000Y-136600000D03*
X177450000Y-133400000D03*
X177450000Y-136600000D03*
X172550000Y-123400000D03*
X172550000Y-126600000D03*
X177450000Y-123400000D03*
X177450000Y-126600000D03*
X162550000Y-123400000D03*
X162550000Y-126600000D03*
X167450000Y-123400000D03*
X167450000Y-126600000D03*
X152550000Y-123400000D03*
X152550000Y-126600000D03*
X157450000Y-123400000D03*
X157450000Y-126600000D03*
X142550000Y-123400000D03*
X142550000Y-126600000D03*
X147450000Y-123400000D03*
X147450000Y-126600000D03*
X132550000Y-123400000D03*
X132550000Y-126600000D03*
X137450000Y-123400000D03*
X137450000Y-126600000D03*
X122550000Y-123400000D03*
X122550000Y-126600000D03*
X127450000Y-123400000D03*
X127450000Y-126600000D03*
X122550000Y-133400000D03*
X122550000Y-136600000D03*
X127450000Y-133400000D03*
X127450000Y-136600000D03*
X122550000Y-143400000D03*
X122550000Y-146600000D03*
X127450000Y-143400000D03*
X127450000Y-146600000D03*
X122550000Y-153400000D03*
X122550000Y-156600000D03*
X127450000Y-153400000D03*
X127450000Y-156600000D03*
X122550000Y-163400000D03*
X122550000Y-166600000D03*
X127450000Y-163400000D03*
X127450000Y-166600000D03*
X132550000Y-163400000D03*
X132550000Y-166600000D03*
X137450000Y-163400000D03*
X137450000Y-166600000D03*
X142550000Y-163400000D03*
X142550000Y-166600000D03*
X147450000Y-163400000D03*
X147450000Y-166600000D03*
X152550000Y-163400000D03*
X152550000Y-166600000D03*
X157450000Y-163400000D03*
X157450000Y-166600000D03*
X162550000Y-163400000D03*
X162550000Y-166600000D03*
X167450000Y-163400000D03*
X167450000Y-166600000D03*
X162550000Y-153400000D03*
X162550000Y-156600000D03*
X167450000Y-153400000D03*
X167450000Y-156600000D03*
X162550000Y-143400000D03*
X162550000Y-146600000D03*
X167450000Y-143400000D03*
X167450000Y-146600000D03*
X162550000Y-133400000D03*
X162550000Y-136600000D03*
X167450000Y-133400000D03*
X167450000Y-136600000D03*
X152550000Y-133400000D03*
X152550000Y-136600000D03*
X157450000Y-133400000D03*
X157450000Y-136600000D03*
X142550000Y-133400000D03*
X142550000Y-136600000D03*
X147450000Y-133400000D03*
X147450000Y-136600000D03*
X132550000Y-133400000D03*
X132550000Y-136600000D03*
X137450000Y-133400000D03*
X137450000Y-136600000D03*
X132550000Y-143400000D03*
X132550000Y-146600000D03*
X137450000Y-143400000D03*
X137450000Y-146600000D03*
X132550000Y-153400000D03*
X132550000Y-156600000D03*
X137450000Y-153400000D03*
X137450000Y-156600000D03*
X142550000Y-153400000D03*
X142550000Y-156600000D03*
X147450000Y-153400000D03*
X147450000Y-156600000D03*
X152550000Y-153400000D03*
X152550000Y-156600000D03*
X157450000Y-153400000D03*
X157450000Y-156600000D03*
X152550000Y-143400000D03*
X152550000Y-146600000D03*
X157450000Y-143400000D03*
X157450000Y-146600000D03*
X142550000Y-143400000D03*
X142550000Y-146600000D03*
X147450000Y-143400000D03*
X147450000Y-146600000D03*
M02*
